<svg width="62" height="26" viewBox="0 0 62 26" fill="none" xmlns="http://www.w3.org/2000/svg">
<rect width="62" height="26" rx="13" fill="url(#paint0_linear_6608_300)"/>
<rect x="1.5" y="1.58333" width="59" height="22.8333" rx="11.4167" fill="#213500" stroke="url(#paint1_linear_6608_300)"/>
<rect x="3" y="3.25" width="56" height="19.5" rx="9.75" fill="url(#paint2_linear_6608_300)"/>
<g style="mix-blend-mode:overlay">
<rect x="5" y="4.33333" width="52" height="13" rx="6.5" fill="url(#paint3_linear_6608_300)"/>
</g>
<circle cx="17" cy="13" r="7.66667" fill="url(#paint4_linear_6608_300)" stroke="url(#paint5_linear_6608_300)" stroke-width="0.666667"/>
<circle cx="17" cy="13" r="6" fill="url(#paint6_linear_6608_300)"/>
<circle cx="17" cy="13" r="5.33333" fill="url(#paint7_linear_6608_300)"/>
<path d="M15.5455 12.6667L17 9.66667L18.4545 12.6667L21 11.9167L19.9091 15.6667H17H14.0909L13 11.9167L15.5455 12.6667Z" fill="url(#paint8_linear_6608_300)" stroke="#914107" stroke-width="0.666667" stroke-linejoin="round"/>
<circle cx="17" cy="13" r="7.66667" stroke="#260037" stroke-width="0.666667"/>
<path d="M30.6484 17V15.7812L33.4961 13.1445C33.7383 12.9102 33.9414 12.6992 34.1055 12.5117C34.2721 12.3242 34.3984 12.1406 34.4844 11.9609C34.5703 11.7786 34.6133 11.582 34.6133 11.3711C34.6133 11.1367 34.5599 10.9349 34.4531 10.7656C34.3464 10.5937 34.2005 10.4622 34.0156 10.3711C33.8307 10.2773 33.6211 10.2305 33.3867 10.2305C33.1419 10.2305 32.9284 10.2799 32.7461 10.3789C32.5638 10.4779 32.4232 10.6198 32.3242 10.8047C32.2253 10.9896 32.1758 11.2096 32.1758 11.4648H30.5703C30.5703 10.9414 30.6888 10.487 30.9258 10.1016C31.1628 9.71615 31.4948 9.41797 31.9219 9.20703C32.349 8.99609 32.8411 8.89062 33.3984 8.89062C33.9714 8.89062 34.4701 8.99219 34.8945 9.19531C35.3216 9.39583 35.6536 9.67448 35.8906 10.0312C36.1276 10.388 36.2461 10.7969 36.2461 11.2578C36.2461 11.5599 36.1862 11.8581 36.0664 12.1523C35.9492 12.4466 35.7396 12.7734 35.4375 13.1328C35.1354 13.4896 34.7096 13.918 34.1602 14.418L32.9922 15.5625V15.6172H36.3516V17H30.6484ZM40.7139 17.1758C40.042 17.1732 39.4639 17.0078 38.9795 16.6797C38.4977 16.3516 38.1266 15.8763 37.8662 15.2539C37.6084 14.6315 37.4808 13.8828 37.4834 13.0078C37.4834 12.1354 37.6123 11.3919 37.8701 10.7773C38.1305 10.1628 38.5016 9.69531 38.9834 9.375C39.4678 9.05208 40.0446 8.89062 40.7139 8.89062C41.3831 8.89062 41.9587 9.05208 42.4404 9.375C42.9248 9.69792 43.2972 10.1667 43.5576 10.7812C43.818 11.3932 43.9469 12.1354 43.9443 13.0078C43.9443 13.8854 43.8141 14.6354 43.5537 15.2578C43.2959 15.8802 42.9261 16.3555 42.4443 16.6836C41.9626 17.0117 41.3857 17.1758 40.7139 17.1758ZM40.7139 15.7734C41.1722 15.7734 41.5381 15.543 41.8115 15.082C42.085 14.6211 42.2204 13.9297 42.2178 13.0078C42.2178 12.401 42.1553 11.8958 42.0303 11.4922C41.9079 11.0885 41.7334 10.7852 41.5068 10.582C41.2829 10.3789 41.0186 10.2773 40.7139 10.2773C40.2581 10.2773 39.8936 10.5052 39.6201 10.9609C39.3467 11.4167 39.2087 12.099 39.2061 13.0078C39.2061 13.6224 39.2673 14.1354 39.3896 14.5469C39.5146 14.9557 39.6904 15.263 39.917 15.4687C40.1436 15.6719 40.4092 15.7734 40.7139 15.7734ZM48.2871 17.1758C47.6152 17.1732 47.0371 17.0078 46.5527 16.6797C46.071 16.3516 45.6999 15.8763 45.4395 15.2539C45.1816 14.6315 45.054 13.8828 45.0566 13.0078C45.0566 12.1354 45.1855 11.3919 45.4434 10.7773C45.7038 10.1628 46.0749 9.69531 46.5566 9.375C47.041 9.05208 47.6178 8.89062 48.2871 8.89062C48.9564 8.89062 49.5319 9.05208 50.0137 9.375C50.498 9.69792 50.8704 10.1667 51.1309 10.7812C51.3913 11.3932 51.5202 12.1354 51.5176 13.0078C51.5176 13.8854 51.3874 14.6354 51.127 15.2578C50.8691 15.8802 50.4993 16.3555 50.0176 16.6836C49.5358 17.0117 48.959 17.1758 48.2871 17.1758ZM48.2871 15.7734C48.7454 15.7734 49.1113 15.543 49.3848 15.082C49.6582 14.6211 49.7936 13.9297 49.791 13.0078C49.791 12.401 49.7285 11.8958 49.6035 11.4922C49.4811 11.0885 49.3066 10.7852 49.0801 10.582C48.8561 10.3789 48.5918 10.2773 48.2871 10.2773C47.8314 10.2773 47.4668 10.5052 47.1934 10.9609C46.9199 11.4167 46.7819 12.099 46.7793 13.0078C46.7793 13.6224 46.8405 14.1354 46.9629 14.5469C47.0879 14.9557 47.2637 15.263 47.4902 15.4687C47.7168 15.6719 47.9824 15.7734 48.2871 15.7734Z" fill="white"/>
<defs>
<linearGradient id="paint0_linear_6608_300" x1="31" y1="0" x2="31" y2="26" gradientUnits="userSpaceOnUse">
<stop stop-color="#F9AC01"/>
<stop offset="0.37" stop-color="#FF730E"/>
<stop offset="0.665" stop-color="#C55301"/>
<stop offset="1" stop-color="#FFE600"/>
</linearGradient>
<linearGradient id="paint1_linear_6608_300" x1="31" y1="1.08333" x2="31" y2="24.9167" gradientUnits="userSpaceOnUse">
<stop stop-color="#B92C00"/>
<stop offset="0.305" stop-color="#FFE600"/>
<stop offset="0.645" stop-color="#FF730E"/>
<stop offset="1" stop-color="#FF730E"/>
</linearGradient>
<linearGradient id="paint2_linear_6608_300" x1="31" y1="3.25" x2="31" y2="22.75" gradientUnits="userSpaceOnUse">
<stop stop-color="#1DCC00"/>
<stop offset="0.71" stop-color="#0E6500"/>
<stop offset="1" stop-color="#064E00"/>
</linearGradient>
<linearGradient id="paint3_linear_6608_300" x1="31" y1="4.33333" x2="31" y2="17.3333" gradientUnits="userSpaceOnUse">
<stop stop-color="white"/>
<stop offset="1" stop-color="white" stop-opacity="0"/>
</linearGradient>
<linearGradient id="paint4_linear_6608_300" x1="17" y1="5" x2="17" y2="21" gradientUnits="userSpaceOnUse">
<stop stop-color="#DF8A20"/>
<stop offset="0.335" stop-color="#FF730E"/>
<stop offset="0.675" stop-color="#C55301"/>
<stop offset="1" stop-color="#FFB800"/>
</linearGradient>
<linearGradient id="paint5_linear_6608_300" x1="17" y1="5" x2="17" y2="21" gradientUnits="userSpaceOnUse">
<stop stop-color="#B04C05"/>
<stop offset="0.37" stop-color="#FFEB3C"/>
<stop offset="0.625" stop-color="#E46000"/>
<stop offset="1" stop-color="#903D00"/>
</linearGradient>
<linearGradient id="paint6_linear_6608_300" x1="17" y1="7" x2="17" y2="19" gradientUnits="userSpaceOnUse">
<stop stop-color="#843D09"/>
<stop offset="0.335" stop-color="#BF4A08"/>
<stop offset="0.69" stop-color="#FFCB11"/>
<stop offset="1" stop-color="#FF8024"/>
</linearGradient>
<linearGradient id="paint7_linear_6608_300" x1="17" y1="7.66667" x2="17" y2="18.3333" gradientUnits="userSpaceOnUse">
<stop stop-color="#BF4A08"/>
<stop offset="0.69" stop-color="#FFCB11"/>
<stop offset="1" stop-color="#FFE500"/>
</linearGradient>
<linearGradient id="paint8_linear_6608_300" x1="17" y1="9.66667" x2="17" y2="15.6667" gradientUnits="userSpaceOnUse">
<stop stop-color="#FFE600"/>
<stop offset="1" stop-color="#E46000"/>
</linearGradient>
</defs>
</svg>
