<svg width="62" height="26" viewBox="0 0 62 26" fill="none" xmlns="http://www.w3.org/2000/svg">
<rect width="62" height="26" rx="13" fill="url(#paint0_linear_6606_1707)"/>
<rect x="1.5" y="1.58333" width="59" height="22.8333" rx="11.4167" fill="#213500" stroke="url(#paint1_linear_6606_1707)"/>
<rect x="3" y="3.25" width="56" height="19.5" rx="9.75" fill="url(#paint2_linear_6606_1707)"/>
<g style="mix-blend-mode:overlay">
<rect x="5" y="4.33333" width="52" height="13" rx="6.5" fill="url(#paint3_linear_6606_1707)"/>
</g>
<circle cx="18" cy="13" r="7.66667" fill="url(#paint4_linear_6606_1707)" stroke="url(#paint5_linear_6606_1707)" stroke-width="0.666667"/>
<circle cx="18" cy="13" r="6" fill="url(#paint6_linear_6606_1707)"/>
<circle cx="18" cy="13" r="5.33333" fill="url(#paint7_linear_6606_1707)"/>
<path d="M16.5455 12.6667L18 9.66666L19.4545 12.6667L22 11.9167L20.9091 15.6667H18H15.0909L14 11.9167L16.5455 12.6667Z" fill="url(#paint8_linear_6606_1707)" stroke="#914107" stroke-width="0.666667" stroke-linejoin="round"/>
<circle cx="18" cy="13" r="7.66667" stroke="#260037" stroke-width="0.666667"/>
<path d="M31.6484 17V15.7812L34.4961 13.1445C34.7383 12.9102 34.9414 12.6992 35.1055 12.5117C35.2721 12.3242 35.3984 12.1406 35.4844 11.9609C35.5703 11.7786 35.6133 11.582 35.6133 11.3711C35.6133 11.1367 35.5599 10.9349 35.4531 10.7656C35.3464 10.5937 35.2005 10.4622 35.0156 10.3711C34.8307 10.2773 34.6211 10.2305 34.3867 10.2305C34.1419 10.2305 33.9284 10.2799 33.7461 10.3789C33.5638 10.4779 33.4232 10.6198 33.3242 10.8047C33.2253 10.9896 33.1758 11.2096 33.1758 11.4648H31.5703C31.5703 10.9414 31.6888 10.487 31.9258 10.1016C32.1628 9.71615 32.4948 9.41797 32.9219 9.20703C33.349 8.99609 33.8411 8.89062 34.3984 8.89062C34.9714 8.89062 35.4701 8.99219 35.8945 9.19531C36.3216 9.39583 36.6536 9.67448 36.8906 10.0312C37.1276 10.388 37.2461 10.7969 37.2461 11.2578C37.2461 11.5599 37.1862 11.8581 37.0664 12.1523C36.9492 12.4466 36.7396 12.7734 36.4375 13.1328C36.1354 13.4896 35.7096 13.918 35.1602 14.418L33.9922 15.5625V15.6172H37.3516V17H31.6484ZM41.499 17.1094C40.9469 17.1094 40.4548 17.0078 40.0225 16.8047C39.5928 16.6016 39.2516 16.3216 38.999 15.9648C38.7464 15.6081 38.6149 15.1992 38.6045 14.7383H40.2451C40.2633 15.0482 40.3936 15.2995 40.6357 15.4922C40.8779 15.6849 41.1657 15.7812 41.499 15.7812C41.7646 15.7812 41.999 15.7227 42.2021 15.6055C42.4079 15.4857 42.568 15.3203 42.6826 15.1094C42.7998 14.8958 42.8584 14.651 42.8584 14.375C42.8584 14.0937 42.7985 13.8464 42.6787 13.6328C42.5615 13.4193 42.3988 13.2526 42.1904 13.1328C41.9821 13.013 41.7438 12.9518 41.4756 12.9492C41.2412 12.9492 41.0133 12.9974 40.792 13.0937C40.5732 13.1901 40.4027 13.3216 40.2803 13.4883L38.7764 13.2188L39.1553 9H44.0459V10.3828H40.5498L40.3428 12.3867H40.3896C40.5303 12.1888 40.7425 12.0247 41.0264 11.8945C41.3102 11.7643 41.6279 11.6992 41.9795 11.6992C42.4613 11.6992 42.891 11.8125 43.2686 12.0391C43.6462 12.2656 43.9443 12.5768 44.1631 12.9727C44.3818 13.3659 44.4899 13.819 44.4873 14.332C44.4899 14.8711 44.3649 15.3503 44.1123 15.7695C43.8623 16.1862 43.512 16.5143 43.0615 16.7539C42.6136 16.9909 42.0928 17.1094 41.499 17.1094ZM48.8037 17.1758C48.1318 17.1732 47.5537 17.0078 47.0693 16.6797C46.5876 16.3516 46.2165 15.8763 45.9561 15.2539C45.6982 14.6315 45.5706 13.8828 45.5732 13.0078C45.5732 12.1354 45.7021 11.3919 45.96 10.7773C46.2204 10.1628 46.5915 9.69531 47.0732 9.375C47.5576 9.05208 48.1344 8.89062 48.8037 8.89062C49.473 8.89062 50.0485 9.05208 50.5303 9.375C51.0146 9.69792 51.387 10.1667 51.6475 10.7812C51.9079 11.3932 52.0368 12.1354 52.0342 13.0078C52.0342 13.8854 51.904 14.6354 51.6436 15.2578C51.3857 15.8802 51.016 16.3555 50.5342 16.6836C50.0524 17.0117 49.4756 17.1758 48.8037 17.1758ZM48.8037 15.7734C49.262 15.7734 49.6279 15.543 49.9014 15.082C50.1748 14.6211 50.3102 13.9297 50.3076 13.0078C50.3076 12.401 50.2451 11.8958 50.1201 11.4922C49.9977 11.0885 49.8232 10.7852 49.5967 10.582C49.3727 10.3789 49.1084 10.2773 48.8037 10.2773C48.348 10.2773 47.9834 10.5052 47.71 10.9609C47.4365 11.4167 47.2985 12.099 47.2959 13.0078C47.2959 13.6224 47.3571 14.1354 47.4795 14.5469C47.6045 14.9557 47.7803 15.263 48.0068 15.4687C48.2334 15.6719 48.499 15.7734 48.8037 15.7734Z" fill="white"/>
<defs>
<linearGradient id="paint0_linear_6606_1707" x1="31" y1="0" x2="31" y2="26" gradientUnits="userSpaceOnUse">
<stop stop-color="#F9AC01"/>
<stop offset="0.37" stop-color="#FF730E"/>
<stop offset="0.665" stop-color="#C55301"/>
<stop offset="1" stop-color="#FFE600"/>
</linearGradient>
<linearGradient id="paint1_linear_6606_1707" x1="31" y1="1.08333" x2="31" y2="24.9167" gradientUnits="userSpaceOnUse">
<stop stop-color="#B92C00"/>
<stop offset="0.305" stop-color="#FFE600"/>
<stop offset="0.645" stop-color="#FF730E"/>
<stop offset="1" stop-color="#FF730E"/>
</linearGradient>
<linearGradient id="paint2_linear_6606_1707" x1="31" y1="3.25" x2="31" y2="22.75" gradientUnits="userSpaceOnUse">
<stop stop-color="#1DCC00"/>
<stop offset="0.71" stop-color="#0E6500"/>
<stop offset="1" stop-color="#064E00"/>
</linearGradient>
<linearGradient id="paint3_linear_6606_1707" x1="31" y1="4.33333" x2="31" y2="17.3333" gradientUnits="userSpaceOnUse">
<stop stop-color="white"/>
<stop offset="1" stop-color="white" stop-opacity="0"/>
</linearGradient>
<linearGradient id="paint4_linear_6606_1707" x1="18" y1="5" x2="18" y2="21" gradientUnits="userSpaceOnUse">
<stop stop-color="#DF8A20"/>
<stop offset="0.335" stop-color="#FF730E"/>
<stop offset="0.675" stop-color="#C55301"/>
<stop offset="1" stop-color="#FFB800"/>
</linearGradient>
<linearGradient id="paint5_linear_6606_1707" x1="18" y1="5" x2="18" y2="21" gradientUnits="userSpaceOnUse">
<stop stop-color="#B04C05"/>
<stop offset="0.37" stop-color="#FFEB3C"/>
<stop offset="0.625" stop-color="#E46000"/>
<stop offset="1" stop-color="#903D00"/>
</linearGradient>
<linearGradient id="paint6_linear_6606_1707" x1="18" y1="7" x2="18" y2="19" gradientUnits="userSpaceOnUse">
<stop stop-color="#843D09"/>
<stop offset="0.335" stop-color="#BF4A08"/>
<stop offset="0.69" stop-color="#FFCB11"/>
<stop offset="1" stop-color="#FF8024"/>
</linearGradient>
<linearGradient id="paint7_linear_6606_1707" x1="18" y1="7.66666" x2="18" y2="18.3333" gradientUnits="userSpaceOnUse">
<stop stop-color="#BF4A08"/>
<stop offset="0.69" stop-color="#FFCB11"/>
<stop offset="1" stop-color="#FFE500"/>
</linearGradient>
<linearGradient id="paint8_linear_6606_1707" x1="18" y1="9.66666" x2="18" y2="15.6667" gradientUnits="userSpaceOnUse">
<stop stop-color="#FFE600"/>
<stop offset="1" stop-color="#E46000"/>
</linearGradient>
</defs>
</svg>
