<svg width="62" height="26" viewBox="0 0 62 26" fill="none" xmlns="http://www.w3.org/2000/svg">
<rect width="62" height="26" rx="13" fill="url(#paint0_linear_6606_1694)"/>
<rect x="1.5" y="1.58333" width="59" height="22.8333" rx="11.4167" fill="#213500" stroke="url(#paint1_linear_6606_1694)"/>
<rect x="3" y="3.25" width="56" height="19.5" rx="9.75" fill="url(#paint2_linear_6606_1694)"/>
<g style="mix-blend-mode:overlay">
<rect x="5" y="4.33333" width="52" height="13" rx="6.5" fill="url(#paint3_linear_6606_1694)"/>
</g>
<circle cx="18" cy="13" r="7.66667" fill="url(#paint4_linear_6606_1694)" stroke="url(#paint5_linear_6606_1694)" stroke-width="0.666667"/>
<circle cx="18" cy="13" r="6" fill="url(#paint6_linear_6606_1694)"/>
<circle cx="18" cy="13" r="5.33333" fill="url(#paint7_linear_6606_1694)"/>
<path d="M16.5455 12.6667L18 9.66666L19.4545 12.6667L22 11.9167L20.9091 15.6667H18H15.0909L14 11.9167L16.5455 12.6667Z" fill="url(#paint8_linear_6606_1694)" stroke="#914107" stroke-width="0.666667" stroke-linejoin="round"/>
<circle cx="18" cy="13" r="7.66667" stroke="#260037" stroke-width="0.666667"/>
<path d="M31.6484 17V15.7812L34.4961 13.1445C34.7383 12.9102 34.9414 12.6992 35.1055 12.5117C35.2721 12.3242 35.3984 12.1406 35.4844 11.9609C35.5703 11.7786 35.6133 11.582 35.6133 11.3711C35.6133 11.1367 35.5599 10.9349 35.4531 10.7656C35.3464 10.5937 35.2005 10.4622 35.0156 10.3711C34.8307 10.2773 34.6211 10.2305 34.3867 10.2305C34.1419 10.2305 33.9284 10.2799 33.7461 10.3789C33.5638 10.4779 33.4232 10.6198 33.3242 10.8047C33.2253 10.9896 33.1758 11.2096 33.1758 11.4648H31.5703C31.5703 10.9414 31.6888 10.487 31.9258 10.1016C32.1628 9.71615 32.4948 9.41797 32.9219 9.20703C33.349 8.99609 33.8411 8.89062 34.3984 8.89062C34.9714 8.89062 35.4701 8.99219 35.8945 9.19531C36.3216 9.39583 36.6536 9.67448 36.8906 10.0312C37.1276 10.388 37.2461 10.7969 37.2461 11.2578C37.2461 11.5599 37.1862 11.8581 37.0664 12.1523C36.9492 12.4466 36.7396 12.7734 36.4375 13.1328C36.1354 13.4896 35.7096 13.918 35.1602 14.418L33.9922 15.5625V15.6172H37.3516V17H31.6484ZM41.5615 17.1094C40.96 17.1094 40.4248 17.0117 39.9561 16.8164C39.4899 16.6185 39.124 16.349 38.8584 16.0078C38.5928 15.6667 38.46 15.2799 38.46 14.8477C38.46 14.5143 38.5355 14.2083 38.6865 13.9297C38.8402 13.6484 39.0485 13.4154 39.3115 13.2305C39.5745 13.043 39.8688 12.9232 40.1943 12.8711V12.8164C39.7673 12.7305 39.4209 12.5234 39.1553 12.1953C38.8896 11.8646 38.7568 11.4805 38.7568 11.043C38.7568 10.6289 38.8779 10.2604 39.1201 9.9375C39.3623 9.61198 39.6943 9.35677 40.1162 9.17187C40.5407 8.98437 41.0225 8.89062 41.5615 8.89062C42.1006 8.89062 42.5811 8.98437 43.0029 9.17187C43.4274 9.35937 43.7607 9.61589 44.0029 9.94141C44.2451 10.2643 44.3675 10.6315 44.3701 11.043C44.3675 11.4831 44.2321 11.8672 43.9639 12.1953C43.6956 12.5234 43.3519 12.7305 42.9326 12.8164V12.8711C43.2529 12.9232 43.5433 13.043 43.8037 13.2305C44.0667 13.4154 44.2751 13.6484 44.4287 13.9297C44.585 14.2083 44.6644 14.5143 44.667 14.8477C44.6644 15.2799 44.5303 15.6667 44.2646 16.0078C43.999 16.349 43.6318 16.6185 43.1631 16.8164C42.6969 17.0117 42.1631 17.1094 41.5615 17.1094ZM41.5615 15.8672C41.8298 15.8672 42.0641 15.819 42.2646 15.7227C42.4652 15.6237 42.6214 15.4883 42.7334 15.3164C42.848 15.1419 42.9053 14.9414 42.9053 14.7148C42.9053 14.4831 42.8467 14.2786 42.7295 14.1016C42.6123 13.9219 42.4535 13.7813 42.2529 13.6797C42.0524 13.5755 41.8219 13.5234 41.5615 13.5234C41.3037 13.5234 41.0732 13.5755 40.8701 13.6797C40.667 13.7813 40.5068 13.9219 40.3896 14.1016C40.2751 14.2786 40.2178 14.4831 40.2178 14.7148C40.2178 14.9414 40.2738 15.1419 40.3857 15.3164C40.4977 15.4883 40.6553 15.6237 40.8584 15.7227C41.0615 15.819 41.2959 15.8672 41.5615 15.8672ZM41.5615 12.293C41.7855 12.293 41.9847 12.2474 42.1592 12.1562C42.3337 12.0651 42.4704 11.9388 42.5693 11.7773C42.6683 11.6159 42.7178 11.4297 42.7178 11.2187C42.7178 11.0104 42.6683 10.8281 42.5693 10.6719C42.4704 10.513 42.335 10.3893 42.1631 10.3008C41.9912 10.2096 41.7907 10.1641 41.5615 10.1641C41.335 10.1641 41.1344 10.2096 40.96 10.3008C40.7855 10.3893 40.6488 10.513 40.5498 10.6719C40.4535 10.8281 40.4053 11.0104 40.4053 11.2187C40.4053 11.4297 40.4548 11.6159 40.5537 11.7773C40.6527 11.9388 40.7894 12.0651 40.9639 12.1562C41.1383 12.2474 41.3376 12.293 41.5615 12.293ZM48.9863 17.1758C48.3145 17.1732 47.7363 17.0078 47.252 16.6797C46.7702 16.3516 46.3991 15.8763 46.1387 15.2539C45.8809 14.6315 45.7533 13.8828 45.7559 13.0078C45.7559 12.1354 45.8848 11.3919 46.1426 10.7773C46.403 10.1628 46.7741 9.69531 47.2559 9.375C47.7402 9.05208 48.3171 8.89062 48.9863 8.89062C49.6556 8.89062 50.2311 9.05208 50.7129 9.375C51.1973 9.69792 51.5697 10.1667 51.8301 10.7812C52.0905 11.3932 52.2194 12.1354 52.2168 13.0078C52.2168 13.8854 52.0866 14.6354 51.8262 15.2578C51.5684 15.8802 51.1986 16.3555 50.7168 16.6836C50.235 17.0117 49.6582 17.1758 48.9863 17.1758ZM48.9863 15.7734C49.4447 15.7734 49.8105 15.543 50.084 15.082C50.3574 14.6211 50.4928 13.9297 50.4902 13.0078C50.4902 12.401 50.4277 11.8958 50.3027 11.4922C50.1803 11.0885 50.0059 10.7852 49.7793 10.582C49.5553 10.3789 49.291 10.2773 48.9863 10.2773C48.5306 10.2773 48.166 10.5052 47.8926 10.9609C47.6191 11.4167 47.4811 12.099 47.4785 13.0078C47.4785 13.6224 47.5397 14.1354 47.6621 14.5469C47.7871 14.9557 47.9629 15.263 48.1895 15.4687C48.416 15.6719 48.6816 15.7734 48.9863 15.7734Z" fill="white"/>
<defs>
<linearGradient id="paint0_linear_6606_1694" x1="31" y1="0" x2="31" y2="26" gradientUnits="userSpaceOnUse">
<stop stop-color="#F9AC01"/>
<stop offset="0.37" stop-color="#FF730E"/>
<stop offset="0.665" stop-color="#C55301"/>
<stop offset="1" stop-color="#FFE600"/>
</linearGradient>
<linearGradient id="paint1_linear_6606_1694" x1="31" y1="1.08333" x2="31" y2="24.9167" gradientUnits="userSpaceOnUse">
<stop stop-color="#B92C00"/>
<stop offset="0.305" stop-color="#FFE600"/>
<stop offset="0.645" stop-color="#FF730E"/>
<stop offset="1" stop-color="#FF730E"/>
</linearGradient>
<linearGradient id="paint2_linear_6606_1694" x1="31" y1="3.25" x2="31" y2="22.75" gradientUnits="userSpaceOnUse">
<stop stop-color="#1DCC00"/>
<stop offset="0.71" stop-color="#0E6500"/>
<stop offset="1" stop-color="#064E00"/>
</linearGradient>
<linearGradient id="paint3_linear_6606_1694" x1="31" y1="4.33333" x2="31" y2="17.3333" gradientUnits="userSpaceOnUse">
<stop stop-color="white"/>
<stop offset="1" stop-color="white" stop-opacity="0"/>
</linearGradient>
<linearGradient id="paint4_linear_6606_1694" x1="18" y1="5" x2="18" y2="21" gradientUnits="userSpaceOnUse">
<stop stop-color="#DF8A20"/>
<stop offset="0.335" stop-color="#FF730E"/>
<stop offset="0.675" stop-color="#C55301"/>
<stop offset="1" stop-color="#FFB800"/>
</linearGradient>
<linearGradient id="paint5_linear_6606_1694" x1="18" y1="5" x2="18" y2="21" gradientUnits="userSpaceOnUse">
<stop stop-color="#B04C05"/>
<stop offset="0.37" stop-color="#FFEB3C"/>
<stop offset="0.625" stop-color="#E46000"/>
<stop offset="1" stop-color="#903D00"/>
</linearGradient>
<linearGradient id="paint6_linear_6606_1694" x1="18" y1="7" x2="18" y2="19" gradientUnits="userSpaceOnUse">
<stop stop-color="#843D09"/>
<stop offset="0.335" stop-color="#BF4A08"/>
<stop offset="0.69" stop-color="#FFCB11"/>
<stop offset="1" stop-color="#FF8024"/>
</linearGradient>
<linearGradient id="paint7_linear_6606_1694" x1="18" y1="7.66666" x2="18" y2="18.3333" gradientUnits="userSpaceOnUse">
<stop stop-color="#BF4A08"/>
<stop offset="0.69" stop-color="#FFCB11"/>
<stop offset="1" stop-color="#FFE500"/>
</linearGradient>
<linearGradient id="paint8_linear_6606_1694" x1="18" y1="9.66666" x2="18" y2="15.6667" gradientUnits="userSpaceOnUse">
<stop stop-color="#FFE600"/>
<stop offset="1" stop-color="#E46000"/>
</linearGradient>
</defs>
</svg>
