<svg width="62" height="26" viewBox="0 0 62 26" fill="none" xmlns="http://www.w3.org/2000/svg">
<rect width="62" height="26" rx="13" fill="url(#paint0_linear_6606_1720)"/>
<rect x="1.5" y="1.58333" width="59" height="22.8333" rx="11.4167" fill="#213500" stroke="url(#paint1_linear_6606_1720)"/>
<rect x="3" y="3.25" width="56" height="19.5" rx="9.75" fill="url(#paint2_linear_6606_1720)"/>
<g style="mix-blend-mode:overlay">
<rect x="5" y="4.33333" width="52" height="13" rx="6.5" fill="url(#paint3_linear_6606_1720)"/>
</g>
<circle cx="17" cy="13" r="7.66667" fill="url(#paint4_linear_6606_1720)" stroke="url(#paint5_linear_6606_1720)" stroke-width="0.666667"/>
<circle cx="17" cy="13" r="6" fill="url(#paint6_linear_6606_1720)"/>
<circle cx="17" cy="13" r="5.33333" fill="url(#paint7_linear_6606_1720)"/>
<path d="M15.5455 12.6667L17 9.66666L18.4545 12.6667L21 11.9167L19.9091 15.6667H17H14.0909L13 11.9167L15.5455 12.6667Z" fill="url(#paint8_linear_6606_1720)" stroke="#914107" stroke-width="0.666667" stroke-linejoin="round"/>
<circle cx="17" cy="13" r="7.66667" stroke="#260037" stroke-width="0.666667"/>
<path d="M33.6055 17.1094C33.0221 17.1094 32.5026 17.0091 32.0469 16.8086C31.5938 16.6055 31.2357 16.3268 30.9727 15.9727C30.7122 15.6159 30.5781 15.2044 30.5703 14.7383H32.2734C32.2839 14.9336 32.3477 15.1055 32.4648 15.2539C32.5846 15.3997 32.7435 15.513 32.9414 15.5938C33.1393 15.6745 33.362 15.7148 33.6094 15.7148C33.8672 15.7148 34.0951 15.6693 34.293 15.5781C34.4909 15.487 34.6458 15.3607 34.7578 15.1992C34.8698 15.0378 34.9258 14.8516 34.9258 14.6406C34.9258 14.4271 34.8659 14.2383 34.7461 14.0742C34.6289 13.9076 34.4596 13.7773 34.2383 13.6836C34.0195 13.5898 33.7591 13.543 33.457 13.543H32.7109V12.3008H33.457C33.7122 12.3008 33.9375 12.2565 34.1328 12.168C34.3307 12.0794 34.4844 11.957 34.5938 11.8008C34.7031 11.6419 34.7578 11.457 34.7578 11.2461C34.7578 11.0456 34.7096 10.8698 34.6133 10.7187C34.5195 10.5651 34.3867 10.4453 34.2148 10.3594C34.0456 10.2734 33.8477 10.2305 33.6211 10.2305C33.3919 10.2305 33.1823 10.2721 32.9922 10.3555C32.8021 10.4362 32.6497 10.5521 32.5352 10.7031C32.4206 10.8542 32.3594 11.0312 32.3516 11.2344H30.7305C30.7383 10.7734 30.8698 10.3672 31.125 10.0156C31.3802 9.66406 31.724 9.38932 32.1563 9.19141C32.5911 8.99089 33.082 8.89062 33.6289 8.89062C34.181 8.89062 34.6641 8.99089 35.0781 9.19141C35.4922 9.39193 35.8138 9.66276 36.043 10.0039C36.2747 10.3424 36.3893 10.7227 36.3867 11.1445C36.3893 11.5924 36.25 11.9661 35.9687 12.2656C35.6901 12.5651 35.3268 12.7552 34.8789 12.8359V12.8984C35.4674 12.974 35.9154 13.1784 36.2227 13.5117C36.5326 13.8424 36.6862 14.2565 36.6836 14.7539C36.6862 15.2096 36.5547 15.6146 36.2891 15.9688C36.026 16.3229 35.6628 16.6016 35.1992 16.8047C34.7357 17.0078 34.2044 17.1094 33.6055 17.1094ZM41.0361 17.1758C40.3643 17.1732 39.7861 17.0078 39.3018 16.6797C38.82 16.3516 38.4489 15.8763 38.1885 15.2539C37.9307 14.6315 37.8031 13.8828 37.8057 13.0078C37.8057 12.1354 37.9346 11.3919 38.1924 10.7773C38.4528 10.1628 38.8239 9.69531 39.3057 9.375C39.79 9.05208 40.3669 8.89062 41.0361 8.89062C41.7054 8.89062 42.2809 9.05208 42.7627 9.375C43.2471 9.69792 43.6195 10.1667 43.8799 10.7812C44.1403 11.3932 44.2692 12.1354 44.2666 13.0078C44.2666 13.8854 44.1364 14.6354 43.876 15.2578C43.6182 15.8802 43.2484 16.3555 42.7666 16.6836C42.2848 17.0117 41.708 17.1758 41.0361 17.1758ZM41.0361 15.7734C41.4945 15.7734 41.8604 15.543 42.1338 15.082C42.4072 14.6211 42.5426 13.9297 42.54 13.0078C42.54 12.401 42.4775 11.8958 42.3525 11.4922C42.2301 11.0885 42.0557 10.7852 41.8291 10.582C41.6051 10.3789 41.3408 10.2773 41.0361 10.2773C40.5804 10.2773 40.2158 10.5052 39.9424 10.9609C39.6689 11.4167 39.5309 12.099 39.5283 13.0078C39.5283 13.6224 39.5895 14.1354 39.7119 14.5469C39.8369 14.9557 40.0127 15.263 40.2393 15.4687C40.4658 15.6719 40.7314 15.7734 41.0361 15.7734ZM48.6094 17.1758C47.9375 17.1732 47.3594 17.0078 46.875 16.6797C46.3932 16.3516 46.0221 15.8763 45.7617 15.2539C45.5039 14.6315 45.3763 13.8828 45.3789 13.0078C45.3789 12.1354 45.5078 11.3919 45.7656 10.7773C46.026 10.1628 46.3971 9.69531 46.8789 9.375C47.3633 9.05208 47.9401 8.89062 48.6094 8.89062C49.2786 8.89062 49.8542 9.05208 50.3359 9.375C50.8203 9.69792 51.1927 10.1667 51.4531 10.7812C51.7135 11.3932 51.8424 12.1354 51.8398 13.0078C51.8398 13.8854 51.7096 14.6354 51.4492 15.2578C51.1914 15.8802 50.8216 16.3555 50.3398 16.6836C49.8581 17.0117 49.2813 17.1758 48.6094 17.1758ZM48.6094 15.7734C49.0677 15.7734 49.4336 15.543 49.707 15.082C49.9805 14.6211 50.1159 13.9297 50.1133 13.0078C50.1133 12.401 50.0508 11.8958 49.9258 11.4922C49.8034 11.0885 49.6289 10.7852 49.4023 10.582C49.1784 10.3789 48.9141 10.2773 48.6094 10.2773C48.1536 10.2773 47.7891 10.5052 47.5156 10.9609C47.2422 11.4167 47.1042 12.099 47.1016 13.0078C47.1016 13.6224 47.1628 14.1354 47.2852 14.5469C47.4102 14.9557 47.5859 15.263 47.8125 15.4687C48.0391 15.6719 48.3047 15.7734 48.6094 15.7734Z" fill="white"/>
<defs>
<linearGradient id="paint0_linear_6606_1720" x1="31" y1="0" x2="31" y2="26" gradientUnits="userSpaceOnUse">
<stop stop-color="#F9AC01"/>
<stop offset="0.37" stop-color="#FF730E"/>
<stop offset="0.665" stop-color="#C55301"/>
<stop offset="1" stop-color="#FFE600"/>
</linearGradient>
<linearGradient id="paint1_linear_6606_1720" x1="31" y1="1.08333" x2="31" y2="24.9167" gradientUnits="userSpaceOnUse">
<stop stop-color="#B92C00"/>
<stop offset="0.305" stop-color="#FFE600"/>
<stop offset="0.645" stop-color="#FF730E"/>
<stop offset="1" stop-color="#FF730E"/>
</linearGradient>
<linearGradient id="paint2_linear_6606_1720" x1="31" y1="3.25" x2="31" y2="22.75" gradientUnits="userSpaceOnUse">
<stop stop-color="#1DCC00"/>
<stop offset="0.71" stop-color="#0E6500"/>
<stop offset="1" stop-color="#064E00"/>
</linearGradient>
<linearGradient id="paint3_linear_6606_1720" x1="31" y1="4.33333" x2="31" y2="17.3333" gradientUnits="userSpaceOnUse">
<stop stop-color="white"/>
<stop offset="1" stop-color="white" stop-opacity="0"/>
</linearGradient>
<linearGradient id="paint4_linear_6606_1720" x1="17" y1="5" x2="17" y2="21" gradientUnits="userSpaceOnUse">
<stop stop-color="#DF8A20"/>
<stop offset="0.335" stop-color="#FF730E"/>
<stop offset="0.675" stop-color="#C55301"/>
<stop offset="1" stop-color="#FFB800"/>
</linearGradient>
<linearGradient id="paint5_linear_6606_1720" x1="17" y1="5" x2="17" y2="21" gradientUnits="userSpaceOnUse">
<stop stop-color="#B04C05"/>
<stop offset="0.37" stop-color="#FFEB3C"/>
<stop offset="0.625" stop-color="#E46000"/>
<stop offset="1" stop-color="#903D00"/>
</linearGradient>
<linearGradient id="paint6_linear_6606_1720" x1="17" y1="7" x2="17" y2="19" gradientUnits="userSpaceOnUse">
<stop stop-color="#843D09"/>
<stop offset="0.335" stop-color="#BF4A08"/>
<stop offset="0.69" stop-color="#FFCB11"/>
<stop offset="1" stop-color="#FF8024"/>
</linearGradient>
<linearGradient id="paint7_linear_6606_1720" x1="17" y1="7.66666" x2="17" y2="18.3333" gradientUnits="userSpaceOnUse">
<stop stop-color="#BF4A08"/>
<stop offset="0.69" stop-color="#FFCB11"/>
<stop offset="1" stop-color="#FFE500"/>
</linearGradient>
<linearGradient id="paint8_linear_6606_1720" x1="17" y1="9.66666" x2="17" y2="15.6667" gradientUnits="userSpaceOnUse">
<stop stop-color="#FFE600"/>
<stop offset="1" stop-color="#E46000"/>
</linearGradient>
</defs>
</svg>
