<svg width="62" height="26" viewBox="0 0 62 26" fill="none" xmlns="http://www.w3.org/2000/svg">
<rect width="62" height="26" rx="13" fill="url(#paint0_linear_6606_1788)"/>
<rect x="1.5" y="1.58333" width="59" height="22.8333" rx="11.4167" fill="#213500" stroke="url(#paint1_linear_6606_1788)"/>
<rect x="3" y="3.25" width="56" height="19.5" rx="9.75" fill="url(#paint2_linear_6606_1788)"/>
<g style="mix-blend-mode:overlay">
<rect x="5" y="4.33333" width="52" height="13" rx="6.5" fill="url(#paint3_linear_6606_1788)"/>
</g>
<circle cx="18" cy="13" r="7.66667" fill="url(#paint4_linear_6606_1788)" stroke="url(#paint5_linear_6606_1788)" stroke-width="0.666667"/>
<circle cx="18" cy="13" r="6" fill="url(#paint6_linear_6606_1788)"/>
<circle cx="18" cy="13" r="5.33333" fill="url(#paint7_linear_6606_1788)"/>
<path d="M16.5455 12.6667L18 9.66667L19.4545 12.6667L22 11.9167L20.9091 15.6667H18H15.0909L14 11.9167L16.5455 12.6667Z" fill="url(#paint8_linear_6606_1788)" stroke="#914107" stroke-width="0.666667" stroke-linejoin="round"/>
<circle cx="18" cy="13" r="7.66667" stroke="#260037" stroke-width="0.666667"/>
<path d="M34.6055 17.1094C34.0221 17.1094 33.5026 17.0091 33.0469 16.8086C32.5938 16.6055 32.2357 16.3268 31.9727 15.9727C31.7122 15.6159 31.5781 15.2044 31.5703 14.7383H33.2734C33.2839 14.9336 33.3477 15.1055 33.4648 15.2539C33.5846 15.3997 33.7435 15.513 33.9414 15.5938C34.1393 15.6745 34.362 15.7148 34.6094 15.7148C34.8672 15.7148 35.0951 15.6693 35.293 15.5781C35.4909 15.487 35.6458 15.3607 35.7578 15.1992C35.8698 15.0378 35.9258 14.8516 35.9258 14.6406C35.9258 14.4271 35.8659 14.2383 35.7461 14.0742C35.6289 13.9076 35.4596 13.7773 35.2383 13.6836C35.0195 13.5898 34.7591 13.543 34.457 13.543H33.7109V12.3008H34.457C34.7122 12.3008 34.9375 12.2565 35.1328 12.168C35.3307 12.0794 35.4844 11.957 35.5938 11.8008C35.7031 11.6419 35.7578 11.457 35.7578 11.2461C35.7578 11.0456 35.7096 10.8698 35.6133 10.7187C35.5195 10.5651 35.3867 10.4453 35.2148 10.3594C35.0456 10.2734 34.8477 10.2305 34.6211 10.2305C34.3919 10.2305 34.1823 10.2721 33.9922 10.3555C33.8021 10.4362 33.6497 10.5521 33.5352 10.7031C33.4206 10.8542 33.3594 11.0312 33.3516 11.2344H31.7305C31.7383 10.7734 31.8698 10.3672 32.125 10.0156C32.3802 9.66406 32.724 9.38932 33.1563 9.19141C33.5911 8.99089 34.082 8.89062 34.6289 8.89062C35.181 8.89062 35.6641 8.99089 36.0781 9.19141C36.4922 9.39193 36.8138 9.66276 37.043 10.0039C37.2747 10.3424 37.3893 10.7227 37.3867 11.1445C37.3893 11.5924 37.25 11.9661 36.9687 12.2656C36.6901 12.5651 36.3268 12.7552 35.8789 12.8359V12.8984C36.4674 12.974 36.9154 13.1784 37.2227 13.5117C37.5326 13.8424 37.6862 14.2565 37.6836 14.7539C37.6862 15.2096 37.5547 15.6146 37.2891 15.9688C37.026 16.3229 36.6628 16.6016 36.1992 16.8047C35.7357 17.0078 35.2044 17.1094 34.6055 17.1094ZM41.8213 17.1094C41.2692 17.1094 40.777 17.0078 40.3447 16.8047C39.915 16.6016 39.5739 16.3216 39.3213 15.9648C39.0687 15.6081 38.9372 15.1992 38.9268 14.7383H40.5674C40.5856 15.0482 40.7158 15.2995 40.958 15.4922C41.2002 15.6849 41.488 15.7812 41.8213 15.7812C42.0869 15.7812 42.3213 15.7227 42.5244 15.6055C42.7301 15.4857 42.8903 15.3203 43.0049 15.1094C43.1221 14.8958 43.1807 14.651 43.1807 14.375C43.1807 14.0937 43.1208 13.8464 43.001 13.6328C42.8838 13.4193 42.721 13.2526 42.5127 13.1328C42.3044 13.013 42.0661 12.9518 41.7979 12.9492C41.5635 12.9492 41.3356 12.9974 41.1143 13.0937C40.8955 13.1901 40.7249 13.3216 40.6025 13.4883L39.0986 13.2188L39.4775 9H44.3682V10.3828H40.8721L40.665 12.3867H40.7119C40.8525 12.1888 41.0648 12.0247 41.3486 11.8945C41.6325 11.7643 41.9502 11.6992 42.3018 11.6992C42.7835 11.6992 43.2132 11.8125 43.5908 12.0391C43.9684 12.2656 44.2666 12.5768 44.4854 12.9727C44.7041 13.3659 44.8122 13.819 44.8096 14.332C44.8122 14.8711 44.6872 15.3503 44.4346 15.7695C44.1846 16.1862 43.8343 16.5143 43.3838 16.7539C42.9359 16.9909 42.415 17.1094 41.8213 17.1094ZM49.126 17.1758C48.4541 17.1732 47.876 17.0078 47.3916 16.6797C46.9098 16.3516 46.5387 15.8763 46.2783 15.2539C46.0205 14.6315 45.8929 13.8828 45.8955 13.0078C45.8955 12.1354 46.0244 11.3919 46.2822 10.7773C46.5426 10.1628 46.9137 9.69531 47.3955 9.375C47.8799 9.05208 48.4567 8.89062 49.126 8.89062C49.7952 8.89062 50.3708 9.05208 50.8525 9.375C51.3369 9.69792 51.7093 10.1667 51.9697 10.7812C52.2301 11.3932 52.359 12.1354 52.3564 13.0078C52.3564 13.8854 52.2262 14.6354 51.9658 15.2578C51.708 15.8802 51.3382 16.3555 50.8564 16.6836C50.3747 17.0117 49.7979 17.1758 49.126 17.1758ZM49.126 15.7734C49.5843 15.7734 49.9502 15.543 50.2236 15.082C50.4971 14.6211 50.6325 13.9297 50.6299 13.0078C50.6299 12.401 50.5674 11.8958 50.4424 11.4922C50.32 11.0885 50.1455 10.7852 49.9189 10.582C49.695 10.3789 49.4307 10.2773 49.126 10.2773C48.6702 10.2773 48.3057 10.5052 48.0322 10.9609C47.7588 11.4167 47.6208 12.099 47.6182 13.0078C47.6182 13.6224 47.6794 14.1354 47.8018 14.5469C47.9268 14.9557 48.1025 15.263 48.3291 15.4687C48.5557 15.6719 48.8213 15.7734 49.126 15.7734Z" fill="white"/>
<defs>
<linearGradient id="paint0_linear_6606_1788" x1="31" y1="0" x2="31" y2="26" gradientUnits="userSpaceOnUse">
<stop stop-color="#F9AC01"/>
<stop offset="0.37" stop-color="#FF730E"/>
<stop offset="0.665" stop-color="#C55301"/>
<stop offset="1" stop-color="#FFE600"/>
</linearGradient>
<linearGradient id="paint1_linear_6606_1788" x1="31" y1="1.08333" x2="31" y2="24.9167" gradientUnits="userSpaceOnUse">
<stop stop-color="#B92C00"/>
<stop offset="0.305" stop-color="#FFE600"/>
<stop offset="0.645" stop-color="#FF730E"/>
<stop offset="1" stop-color="#FF730E"/>
</linearGradient>
<linearGradient id="paint2_linear_6606_1788" x1="31" y1="3.25" x2="31" y2="22.75" gradientUnits="userSpaceOnUse">
<stop stop-color="#1DCC00"/>
<stop offset="0.71" stop-color="#0E6500"/>
<stop offset="1" stop-color="#064E00"/>
</linearGradient>
<linearGradient id="paint3_linear_6606_1788" x1="31" y1="4.33333" x2="31" y2="17.3333" gradientUnits="userSpaceOnUse">
<stop stop-color="white"/>
<stop offset="1" stop-color="white" stop-opacity="0"/>
</linearGradient>
<linearGradient id="paint4_linear_6606_1788" x1="18" y1="5" x2="18" y2="21" gradientUnits="userSpaceOnUse">
<stop stop-color="#DF8A20"/>
<stop offset="0.335" stop-color="#FF730E"/>
<stop offset="0.675" stop-color="#C55301"/>
<stop offset="1" stop-color="#FFB800"/>
</linearGradient>
<linearGradient id="paint5_linear_6606_1788" x1="18" y1="5" x2="18" y2="21" gradientUnits="userSpaceOnUse">
<stop stop-color="#B04C05"/>
<stop offset="0.37" stop-color="#FFEB3C"/>
<stop offset="0.625" stop-color="#E46000"/>
<stop offset="1" stop-color="#903D00"/>
</linearGradient>
<linearGradient id="paint6_linear_6606_1788" x1="18" y1="7" x2="18" y2="19" gradientUnits="userSpaceOnUse">
<stop stop-color="#843D09"/>
<stop offset="0.335" stop-color="#BF4A08"/>
<stop offset="0.69" stop-color="#FFCB11"/>
<stop offset="1" stop-color="#FF8024"/>
</linearGradient>
<linearGradient id="paint7_linear_6606_1788" x1="18" y1="7.66667" x2="18" y2="18.3333" gradientUnits="userSpaceOnUse">
<stop stop-color="#BF4A08"/>
<stop offset="0.69" stop-color="#FFCB11"/>
<stop offset="1" stop-color="#FFE500"/>
</linearGradient>
<linearGradient id="paint8_linear_6606_1788" x1="18" y1="9.66667" x2="18" y2="15.6667" gradientUnits="userSpaceOnUse">
<stop stop-color="#FFE600"/>
<stop offset="1" stop-color="#E46000"/>
</linearGradient>
</defs>
</svg>
