<svg width="62" height="26" viewBox="0 0 62 26" fill="none" xmlns="http://www.w3.org/2000/svg">
<rect width="62" height="26" rx="13" fill="url(#paint0_linear_6606_1801)"/>
<rect x="1.5" y="1.58333" width="59" height="22.8333" rx="11.4167" fill="#213500" stroke="url(#paint1_linear_6606_1801)"/>
<rect x="3" y="3.25" width="56" height="19.5" rx="9.75" fill="url(#paint2_linear_6606_1801)"/>
<g style="mix-blend-mode:overlay">
<rect x="5" y="4.33333" width="52" height="13" rx="6.5" fill="url(#paint3_linear_6606_1801)"/>
</g>
<circle cx="17" cy="13" r="7.66667" fill="url(#paint4_linear_6606_1801)" stroke="url(#paint5_linear_6606_1801)" stroke-width="0.666667"/>
<circle cx="17" cy="13" r="6" fill="url(#paint6_linear_6606_1801)"/>
<circle cx="17" cy="13" r="5.33333" fill="url(#paint7_linear_6606_1801)"/>
<path d="M15.5455 12.6667L17 9.66667L18.4545 12.6667L21 11.9167L19.9091 15.6667H17H14.0909L13 11.9167L15.5455 12.6667Z" fill="url(#paint8_linear_6606_1801)" stroke="#914107" stroke-width="0.666667" stroke-linejoin="round"/>
<circle cx="17" cy="13" r="7.66667" stroke="#260037" stroke-width="0.666667"/>
<path d="M33.5703 17.1094C33.0182 17.1094 32.526 17.0078 32.0938 16.8047C31.6641 16.6016 31.3229 16.3216 31.0703 15.9648C30.8177 15.6081 30.6862 15.1992 30.6758 14.7383H32.3164C32.3346 15.0482 32.4648 15.2995 32.707 15.4922C32.9492 15.6849 33.237 15.7812 33.5703 15.7812C33.8359 15.7812 34.0703 15.7227 34.2734 15.6055C34.4792 15.4857 34.6393 15.3203 34.7539 15.1094C34.8711 14.8958 34.9297 14.651 34.9297 14.375C34.9297 14.0937 34.8698 13.8464 34.75 13.6328C34.6328 13.4193 34.4701 13.2526 34.2617 13.1328C34.0534 13.013 33.8151 12.9518 33.5469 12.9492C33.3125 12.9492 33.0846 12.9974 32.8633 13.0937C32.6445 13.1901 32.474 13.3216 32.3516 13.4883L30.8477 13.2188L31.2266 9H36.1172V10.3828H32.6211L32.4141 12.3867H32.4609C32.6016 12.1888 32.8138 12.0247 33.0977 11.8945C33.3815 11.7643 33.6992 11.6992 34.0508 11.6992C34.5326 11.6992 34.9622 11.8125 35.3398 12.0391C35.7174 12.2656 36.0156 12.5768 36.2344 12.9727C36.4531 13.3659 36.5612 13.819 36.5586 14.332C36.5612 14.8711 36.4362 15.3503 36.1836 15.7695C35.9336 16.1862 35.5833 16.5143 35.1328 16.7539C34.6849 16.9909 34.1641 17.1094 33.5703 17.1094ZM40.875 17.1758C40.2031 17.1732 39.625 17.0078 39.1406 16.6797C38.6589 16.3516 38.2878 15.8763 38.0273 15.2539C37.7695 14.6315 37.6419 13.8828 37.6445 13.0078C37.6445 12.1354 37.7734 11.3919 38.0313 10.7773C38.2917 10.1628 38.6628 9.69531 39.1445 9.375C39.6289 9.05208 40.2057 8.89062 40.875 8.89062C41.5443 8.89062 42.1198 9.05208 42.6016 9.375C43.0859 9.69792 43.4583 10.1667 43.7188 10.7812C43.9792 11.3932 44.1081 12.1354 44.1055 13.0078C44.1055 13.8854 43.9753 14.6354 43.7148 15.2578C43.457 15.8802 43.0872 16.3555 42.6055 16.6836C42.1237 17.0117 41.5469 17.1758 40.875 17.1758ZM40.875 15.7734C41.3333 15.7734 41.6992 15.543 41.9727 15.082C42.2461 14.6211 42.3815 13.9297 42.3789 13.0078C42.3789 12.401 42.3164 11.8958 42.1914 11.4922C42.069 11.0885 41.8945 10.7852 41.668 10.582C41.444 10.3789 41.1797 10.2773 40.875 10.2773C40.4193 10.2773 40.0547 10.5052 39.7813 10.9609C39.5078 11.4167 39.3698 12.099 39.3672 13.0078C39.3672 13.6224 39.4284 14.1354 39.5508 14.5469C39.6758 14.9557 39.8516 15.263 40.0781 15.4687C40.3047 15.6719 40.5703 15.7734 40.875 15.7734ZM48.4482 17.1758C47.7764 17.1732 47.1982 17.0078 46.7139 16.6797C46.2321 16.3516 45.861 15.8763 45.6006 15.2539C45.3428 14.6315 45.2152 13.8828 45.2178 13.0078C45.2178 12.1354 45.3467 11.3919 45.6045 10.7773C45.8649 10.1628 46.236 9.69531 46.7178 9.375C47.2021 9.05208 47.779 8.89062 48.4482 8.89062C49.1175 8.89062 49.693 9.05208 50.1748 9.375C50.6592 9.69792 51.0316 10.1667 51.292 10.7812C51.5524 11.3932 51.6813 12.1354 51.6787 13.0078C51.6787 13.8854 51.5485 14.6354 51.2881 15.2578C51.0303 15.8802 50.6605 16.3555 50.1787 16.6836C49.6969 17.0117 49.1201 17.1758 48.4482 17.1758ZM48.4482 15.7734C48.9066 15.7734 49.2725 15.543 49.5459 15.082C49.8193 14.6211 49.9548 13.9297 49.9521 13.0078C49.9521 12.401 49.8896 11.8958 49.7646 11.4922C49.6423 11.0885 49.4678 10.7852 49.2412 10.582C49.0173 10.3789 48.7529 10.2773 48.4482 10.2773C47.9925 10.2773 47.6279 10.5052 47.3545 10.9609C47.0811 11.4167 46.943 12.099 46.9404 13.0078C46.9404 13.6224 47.0016 14.1354 47.124 14.5469C47.249 14.9557 47.4248 15.263 47.6514 15.4687C47.8779 15.6719 48.1436 15.7734 48.4482 15.7734Z" fill="white"/>
<defs>
<linearGradient id="paint0_linear_6606_1801" x1="31" y1="0" x2="31" y2="26" gradientUnits="userSpaceOnUse">
<stop stop-color="#F9AC01"/>
<stop offset="0.37" stop-color="#FF730E"/>
<stop offset="0.665" stop-color="#C55301"/>
<stop offset="1" stop-color="#FFE600"/>
</linearGradient>
<linearGradient id="paint1_linear_6606_1801" x1="31" y1="1.08333" x2="31" y2="24.9167" gradientUnits="userSpaceOnUse">
<stop stop-color="#B92C00"/>
<stop offset="0.305" stop-color="#FFE600"/>
<stop offset="0.645" stop-color="#FF730E"/>
<stop offset="1" stop-color="#FF730E"/>
</linearGradient>
<linearGradient id="paint2_linear_6606_1801" x1="31" y1="3.25" x2="31" y2="22.75" gradientUnits="userSpaceOnUse">
<stop stop-color="#1DCC00"/>
<stop offset="0.71" stop-color="#0E6500"/>
<stop offset="1" stop-color="#064E00"/>
</linearGradient>
<linearGradient id="paint3_linear_6606_1801" x1="31" y1="4.33333" x2="31" y2="17.3333" gradientUnits="userSpaceOnUse">
<stop stop-color="white"/>
<stop offset="1" stop-color="white" stop-opacity="0"/>
</linearGradient>
<linearGradient id="paint4_linear_6606_1801" x1="17" y1="5" x2="17" y2="21" gradientUnits="userSpaceOnUse">
<stop stop-color="#DF8A20"/>
<stop offset="0.335" stop-color="#FF730E"/>
<stop offset="0.675" stop-color="#C55301"/>
<stop offset="1" stop-color="#FFB800"/>
</linearGradient>
<linearGradient id="paint5_linear_6606_1801" x1="17" y1="5" x2="17" y2="21" gradientUnits="userSpaceOnUse">
<stop stop-color="#B04C05"/>
<stop offset="0.37" stop-color="#FFEB3C"/>
<stop offset="0.625" stop-color="#E46000"/>
<stop offset="1" stop-color="#903D00"/>
</linearGradient>
<linearGradient id="paint6_linear_6606_1801" x1="17" y1="7" x2="17" y2="19" gradientUnits="userSpaceOnUse">
<stop stop-color="#843D09"/>
<stop offset="0.335" stop-color="#BF4A08"/>
<stop offset="0.69" stop-color="#FFCB11"/>
<stop offset="1" stop-color="#FF8024"/>
</linearGradient>
<linearGradient id="paint7_linear_6606_1801" x1="17" y1="7.66667" x2="17" y2="18.3333" gradientUnits="userSpaceOnUse">
<stop stop-color="#BF4A08"/>
<stop offset="0.69" stop-color="#FFCB11"/>
<stop offset="1" stop-color="#FFE500"/>
</linearGradient>
<linearGradient id="paint8_linear_6606_1801" x1="17" y1="9.66667" x2="17" y2="15.6667" gradientUnits="userSpaceOnUse">
<stop stop-color="#FFE600"/>
<stop offset="1" stop-color="#E46000"/>
</linearGradient>
</defs>
</svg>
