<svg width="62" height="26" viewBox="0 0 62 26" fill="none" xmlns="http://www.w3.org/2000/svg">
<rect width="62" height="26" rx="13" fill="url(#paint0_linear_6606_1640)"/>
<rect x="1.5" y="1.58333" width="59" height="22.8333" rx="11.4167" fill="#213500" stroke="url(#paint1_linear_6606_1640)"/>
<rect x="3" y="3.25" width="56" height="19.5" rx="9.75" fill="url(#paint2_linear_6606_1640)"/>
<g style="mix-blend-mode:overlay">
<rect x="5" y="4.33333" width="52" height="13" rx="6.5" fill="url(#paint3_linear_6606_1640)"/>
</g>
<circle cx="21" cy="13" r="7.66667" fill="url(#paint4_linear_6606_1640)" stroke="url(#paint5_linear_6606_1640)" stroke-width="0.666667"/>
<circle cx="21" cy="13" r="6" fill="url(#paint6_linear_6606_1640)"/>
<circle cx="21" cy="13" r="5.33333" fill="url(#paint7_linear_6606_1640)"/>
<path d="M19.5455 12.6667L21 9.66666L22.4545 12.6667L25 11.9167L23.9091 15.6667H21H18.0909L17 11.9167L19.5455 12.6667Z" fill="url(#paint8_linear_6606_1640)" stroke="#914107" stroke-width="0.666667" stroke-linejoin="round"/>
<circle cx="21" cy="13" r="7.66667" stroke="#260037" stroke-width="0.666667"/>
<path d="M37.5703 17.1094C37.0182 17.1094 36.526 17.0078 36.0938 16.8047C35.6641 16.6016 35.3229 16.3216 35.0703 15.9648C34.8177 15.6081 34.6862 15.1992 34.6758 14.7383H36.3164C36.3346 15.0482 36.4648 15.2995 36.707 15.4922C36.9492 15.6849 37.237 15.7812 37.5703 15.7812C37.8359 15.7812 38.0703 15.7227 38.2734 15.6055C38.4792 15.4857 38.6393 15.3203 38.7539 15.1094C38.8711 14.8958 38.9297 14.651 38.9297 14.375C38.9297 14.0937 38.8698 13.8464 38.75 13.6328C38.6328 13.4193 38.4701 13.2526 38.2617 13.1328C38.0534 13.013 37.8151 12.9518 37.5469 12.9492C37.3125 12.9492 37.0846 12.9974 36.8633 13.0937C36.6445 13.1901 36.474 13.3216 36.3516 13.4883L34.8477 13.2188L35.2266 9H40.1172V10.3828H36.6211L36.4141 12.3867H36.4609C36.6016 12.1888 36.8138 12.0247 37.0977 11.8945C37.3815 11.7643 37.6992 11.6992 38.0508 11.6992C38.5326 11.6992 38.9622 11.8125 39.3398 12.0391C39.7174 12.2656 40.0156 12.5768 40.2344 12.9727C40.4531 13.3659 40.5612 13.819 40.5586 14.332C40.5612 14.8711 40.4362 15.3503 40.1836 15.7695C39.9336 16.1862 39.5833 16.5143 39.1328 16.7539C38.6849 16.9909 38.1641 17.1094 37.5703 17.1094ZM44.875 17.1758C44.2031 17.1732 43.625 17.0078 43.1406 16.6797C42.6589 16.3516 42.2878 15.8763 42.0273 15.2539C41.7695 14.6315 41.6419 13.8828 41.6445 13.0078C41.6445 12.1354 41.7734 11.3919 42.0313 10.7773C42.2917 10.1628 42.6628 9.69531 43.1445 9.375C43.6289 9.05208 44.2057 8.89062 44.875 8.89062C45.5443 8.89062 46.1198 9.05208 46.6016 9.375C47.0859 9.69792 47.4583 10.1667 47.7188 10.7812C47.9792 11.3932 48.1081 12.1354 48.1055 13.0078C48.1055 13.8854 47.9753 14.6354 47.7148 15.2578C47.457 15.8802 47.0872 16.3555 46.6055 16.6836C46.1237 17.0117 45.5469 17.1758 44.875 17.1758ZM44.875 15.7734C45.3333 15.7734 45.6992 15.543 45.9727 15.082C46.2461 14.6211 46.3815 13.9297 46.3789 13.0078C46.3789 12.401 46.3164 11.8958 46.1914 11.4922C46.069 11.0885 45.8945 10.7852 45.668 10.582C45.444 10.3789 45.1797 10.2773 44.875 10.2773C44.4193 10.2773 44.0547 10.5052 43.7813 10.9609C43.5078 11.4167 43.3698 12.099 43.3672 13.0078C43.3672 13.6224 43.4284 14.1354 43.5508 14.5469C43.6758 14.9557 43.8516 15.263 44.0781 15.4687C44.3047 15.6719 44.5703 15.7734 44.875 15.7734Z" fill="white"/>
<defs>
<linearGradient id="paint0_linear_6606_1640" x1="31" y1="0" x2="31" y2="26" gradientUnits="userSpaceOnUse">
<stop stop-color="#F9AC01"/>
<stop offset="0.37" stop-color="#FF730E"/>
<stop offset="0.665" stop-color="#C55301"/>
<stop offset="1" stop-color="#FFE600"/>
</linearGradient>
<linearGradient id="paint1_linear_6606_1640" x1="31" y1="1.08333" x2="31" y2="24.9167" gradientUnits="userSpaceOnUse">
<stop stop-color="#B92C00"/>
<stop offset="0.305" stop-color="#FFE600"/>
<stop offset="0.645" stop-color="#FF730E"/>
<stop offset="1" stop-color="#FF730E"/>
</linearGradient>
<linearGradient id="paint2_linear_6606_1640" x1="31" y1="3.25" x2="31" y2="22.75" gradientUnits="userSpaceOnUse">
<stop stop-color="#1DCC00"/>
<stop offset="0.71" stop-color="#0E6500"/>
<stop offset="1" stop-color="#064E00"/>
</linearGradient>
<linearGradient id="paint3_linear_6606_1640" x1="31" y1="4.33333" x2="31" y2="17.3333" gradientUnits="userSpaceOnUse">
<stop stop-color="white"/>
<stop offset="1" stop-color="white" stop-opacity="0"/>
</linearGradient>
<linearGradient id="paint4_linear_6606_1640" x1="21" y1="5" x2="21" y2="21" gradientUnits="userSpaceOnUse">
<stop stop-color="#DF8A20"/>
<stop offset="0.335" stop-color="#FF730E"/>
<stop offset="0.675" stop-color="#C55301"/>
<stop offset="1" stop-color="#FFB800"/>
</linearGradient>
<linearGradient id="paint5_linear_6606_1640" x1="21" y1="5" x2="21" y2="21" gradientUnits="userSpaceOnUse">
<stop stop-color="#B04C05"/>
<stop offset="0.37" stop-color="#FFEB3C"/>
<stop offset="0.625" stop-color="#E46000"/>
<stop offset="1" stop-color="#903D00"/>
</linearGradient>
<linearGradient id="paint6_linear_6606_1640" x1="21" y1="7" x2="21" y2="19" gradientUnits="userSpaceOnUse">
<stop stop-color="#843D09"/>
<stop offset="0.335" stop-color="#BF4A08"/>
<stop offset="0.69" stop-color="#FFCB11"/>
<stop offset="1" stop-color="#FF8024"/>
</linearGradient>
<linearGradient id="paint7_linear_6606_1640" x1="21" y1="7.66666" x2="21" y2="18.3333" gradientUnits="userSpaceOnUse">
<stop stop-color="#BF4A08"/>
<stop offset="0.69" stop-color="#FFCB11"/>
<stop offset="1" stop-color="#FFE500"/>
</linearGradient>
<linearGradient id="paint8_linear_6606_1640" x1="21" y1="9.66666" x2="21" y2="15.6667" gradientUnits="userSpaceOnUse">
<stop stop-color="#FFE600"/>
<stop offset="1" stop-color="#E46000"/>
</linearGradient>
</defs>
</svg>
