<svg xmlns="http://www.w3.org/2000/svg" width="220" height="56" fill="none" xmlns:v="https://vecta.io/nano"><rect width="220" height="56" rx="28" fill="url(#A)"/><rect x="1" y="1" width="218" height="54" rx="27" stroke="url(#B)" stroke-width="2"/><rect x="4.5" y="4.5" width="211" height="47" rx="23.5" fill="url(#C)" stroke="#073300"/><rect x="15" y="7" width="190" height="28" rx="14" fill="url(#D)" style="mix-blend-mode:overlay"/><path d="M84.912 26.58h-2.841c-.038-.292-.115-.555-.233-.79s-.273-.436-.466-.602a1.99 1.99 0 0 0-.687-.381c-.261-.091-.551-.136-.869-.136-.564 0-1.051.138-1.46.415s-.718.676-.937 1.199-.324 1.155-.324 1.898c0 .773.11 1.421.329 1.943s.536.911.938 1.176.885.392 1.438.392c.311 0 .593-.04.847-.119s.483-.195.676-.347.358-.343.483-.562.218-.475.267-.756l2.841.017c-.049.515-.199 1.023-.449 1.523s-.585.956-1.017 1.369-.958.735-1.579.977-1.326.364-2.125.364c-1.053 0-1.996-.231-2.83-.693s-1.485-1.144-1.966-2.034-.722-1.973-.722-3.25.244-2.366.733-3.256 1.15-1.566 1.983-2.028 1.767-.693 2.801-.693c.704 0 1.356.099 1.954.296s1.125.477 1.58.852a4.36 4.36 0 0 1 1.108 1.369c.284.542.46 1.161.528 1.858zm5.683 7.585c-.917 0-1.705-.187-2.364-.562a3.88 3.88 0 0 1-1.517-1.58c-.352-.678-.528-1.464-.528-2.358s.176-1.684.528-2.358.862-1.204 1.517-1.579 1.447-.568 2.364-.568 1.703.189 2.358.568a3.79 3.79 0 0 1 1.517 1.579c.356.674.534 1.46.534 2.358s-.178 1.68-.534 2.358-.858 1.201-1.517 1.58-1.441.563-2.358.563zm.017-2.097c.333 0 .615-.102.847-.307s.407-.489.528-.852.188-.784.188-1.261c0-.485-.062-.909-.187-1.273s-.297-.648-.528-.852-.513-.307-.847-.307c-.345 0-.636.102-.875.307s-.415.489-.54.852-.182.788-.182 1.273c0 .477.061.898.182 1.261s.305.648.54.852.53.307.875.307zm8.594-3.045V34h-2.778v-8.727h2.642v1.602h.097a2.45 2.45 0 0 1 .989-1.256c.466-.307 1.021-.46 1.665-.46.613 0 1.145.138 1.596.415s.807.655 1.057 1.148.379 1.061.375 1.716V34h-2.778v-5.017c.003-.485-.12-.864-.37-1.136s-.589-.409-1.028-.409a1.52 1.52 0 0 0-.773.193 1.28 1.28 0 0 0-.511.54c-.117.235-.178.519-.182.852zm12.288-3.75v2.046h-5.505v-2.046h5.505zm-4.352-2.091h2.778v8.074a.93.93 0 0 0 .08.415c.057.102.138.176.244.221a1.04 1.04 0 0 0 .381.063c.106 0 .218-.009.335-.028l.273-.057.42 2.006-.562.142c-.239.057-.525.093-.858.108-.652.03-1.21-.045-1.676-.227s-.816-.474-1.063-.864-.36-.881-.352-1.472v-8.381zM112.912 34v-8.727h2.778V34h-2.778zm1.392-9.744c-.39 0-.725-.129-1.006-.386s-.42-.576-.42-.943a1.22 1.22 0 0 1 .42-.932c.281-.261.616-.392 1.006-.392a1.41 1.41 0 0 1 1.006.392 1.22 1.22 0 0 1 .42.932c0 .367-.14.682-.42.943s-.612.386-1.006.386zm5.933 4.767V34h-2.778v-8.727h2.642v1.602h.096c.194-.534.523-.953.989-1.256s1.021-.46 1.665-.46c.613 0 1.146.138 1.596.415s.807.655 1.057 1.148.379 1.061.375 1.716V34h-2.778v-5.017c.004-.485-.119-.864-.369-1.136s-.589-.409-1.029-.409a1.52 1.52 0 0 0-.773.193c-.219.125-.39.305-.511.54s-.178.519-.182.852zm12.993 1.21v-4.96h2.773V34h-2.648v-1.625h-.091a2.54 2.54 0 0 1-.988 1.273c-.463.311-1.021.466-1.677.466-.594 0-1.117-.136-1.568-.409s-.801-.653-1.051-1.142-.377-1.068-.381-1.727v-5.562h2.779v5.017c.004.474.129.847.375 1.119s.581.409 1.006.409c.276 0 .524-.061.744-.182s.399-.305.528-.54.199-.526.199-.864zm8.621 3.932c-.913 0-1.701-.18-2.364-.54a3.74 3.74 0 0 1-1.523-1.551c-.352-.674-.528-1.475-.528-2.403 0-.902.178-1.689.534-2.364s.858-1.204 1.506-1.579 1.411-.568 2.29-.568c.621 0 1.189.097 1.704.29s.96.479 1.335.858.667.847.875 1.403.313 1.188.313 1.903v.693h-7.585v-1.614h5a1.56 1.56 0 0 0-.211-.79 1.42 1.42 0 0 0-.562-.54c-.235-.133-.506-.199-.813-.199s-.589.07-.835.21a1.55 1.55 0 0 0-.585.563c-.144.235-.22.502-.227.801v1.642c0 .356.07.668.21.938s.339.472.597.619.564.222.92.222a2.07 2.07 0 0 0 .67-.102 1.42 1.42 0 0 0 .517-.301c.144-.133.252-.296.324-.489l2.551.074a3.16 3.16 0 0 1-.698 1.494c-.356.42-.824.748-1.404.983s-1.25.347-2.011.347z" fill="#fff"/><defs><linearGradient id="A" x1="110" y1="0" x2="110" y2="56" gradientUnits="userSpaceOnUse"><stop stop-color="#ffeb3c"/><stop offset=".135" stop-color="#ff730e"/><stop offset=".425" stop-color="#b3330a"/><stop offset=".66" stop-color="#ffe600"/><stop offset="1" stop-color="#ff730e"/></linearGradient><linearGradient id="B" x1="110" y1="0" x2="110" y2="56" gradientUnits="userSpaceOnUse"><stop stop-color="#ff730e"/><stop offset=".295" stop-color="#c03900"/><stop offset=".525" stop-color="#dbff00"/><stop offset=".97" stop-color="#ce7c00"/></linearGradient><linearGradient id="C" x1="110" y1="4" x2="110" y2="52" gradientUnits="userSpaceOnUse"><stop stop-color="#baff27"/><stop offset=".395" stop-color="#3fb715"/><stop offset=".78" stop-color="#0e7206"/><stop offset="1" stop-color="#468a02"/></linearGradient><linearGradient id="D" x1="110" y1="7" x2="110" y2="35" gradientUnits="userSpaceOnUse"><stop stop-color="#fff"/><stop offset="1" stop-color="#fff" stop-opacity="0"/></linearGradient></defs></svg>