<svg width="187" height="163" viewBox="0 0 187 163" fill="none" xmlns="http://www.w3.org/2000/svg">
<rect x="0.5" width="186" height="131" rx="10.8054" fill="black"/>
<path d="M27.8718 35L24.793 24.0909H26.9183L28.8839 32.1076H28.9851L31.0838 24.0909H33.0174L35.1214 32.1129H35.2173L37.1829 24.0909H39.3082L36.2294 35H34.2798L32.0959 27.3455H32.0107L29.8214 35H27.8718ZM42.5216 30.206V35H40.5933V24.0909H42.479V28.2085H42.5748C42.7666 27.7468 43.0631 27.3828 43.4644 27.1165C43.8692 26.8466 44.3841 26.7116 45.0091 26.7116C45.5773 26.7116 46.0727 26.8306 46.4953 27.0685C46.9179 27.3065 47.2446 27.6545 47.4754 28.1126C47.7098 28.5707 47.827 29.13 47.827 29.7905V35H45.8987V30.0888C45.8987 29.5384 45.7567 29.1104 45.4726 28.805C45.192 28.4961 44.7979 28.3416 44.29 28.3416C43.9491 28.3416 43.6437 28.4162 43.3738 28.5653C43.1075 28.7109 42.898 28.9222 42.7453 29.1992C42.5961 29.4762 42.5216 29.8118 42.5216 30.206ZM53.4147 35.1598C52.5944 35.1598 51.8859 34.9893 51.2893 34.6484C50.6963 34.304 50.24 33.8175 49.9204 33.1889C49.6008 32.5568 49.441 31.8129 49.441 30.957C49.441 30.1154 49.6008 29.3768 49.9204 28.7411C50.2435 28.1019 50.6945 27.6048 51.2733 27.2496C51.8522 26.891 52.5322 26.7116 53.3135 26.7116C53.8177 26.7116 54.2936 26.7933 54.741 26.9567C55.192 27.1165 55.5898 27.3651 55.9342 27.7024C56.2822 28.0398 56.5557 28.4695 56.7545 28.9915C56.9534 29.5099 57.0528 30.1278 57.0528 30.8452V31.4364H50.3465V30.1367H55.2045C55.2009 29.7674 55.121 29.4389 54.9648 29.1513C54.8085 28.8601 54.5901 28.631 54.3096 28.4641C54.0326 28.2972 53.7094 28.2138 53.3401 28.2138C52.9459 28.2138 52.5997 28.3097 52.3014 28.5014C52.0031 28.6896 51.7705 28.9382 51.6036 29.2472C51.4403 29.5526 51.3568 29.8881 51.3532 30.2539V31.3885C51.3532 31.8643 51.4403 32.2727 51.6143 32.6136C51.7883 32.951 52.0315 33.2102 52.344 33.3913C52.6565 33.5689 53.0223 33.6577 53.4413 33.6577C53.7219 33.6577 53.9758 33.6186 54.203 33.5405C54.4303 33.4588 54.6274 33.3398 54.7943 33.1836C54.9612 33.0273 55.0873 32.8338 55.1725 32.603L56.9729 32.8054C56.8593 33.2812 56.6427 33.6967 56.3231 34.0518C56.007 34.4034 55.6022 34.6768 55.1086 34.8722C54.615 35.0639 54.0503 35.1598 53.4147 35.1598ZM60.6124 30.206V35H58.6841V26.8182H60.5272V28.2085H60.623C60.8113 27.7504 61.1113 27.3864 61.5233 27.1165C61.9387 26.8466 62.4519 26.7116 63.0627 26.7116C63.6273 26.7116 64.1191 26.8324 64.5382 27.0739C64.9608 27.3153 65.2875 27.6651 65.5183 28.1232C65.7527 28.5813 65.8681 29.1371 65.8645 29.7905V35H63.9363V30.0888C63.9363 29.5419 63.7942 29.114 63.5101 28.805C63.2296 28.4961 62.8407 28.3416 62.3436 28.3416C62.0062 28.3416 61.7061 28.4162 61.4434 28.5653C61.1841 28.7109 60.9799 28.9222 60.8308 29.1992C60.6852 29.4762 60.6124 29.8118 60.6124 30.206ZM75.631 26.8182V28.3097H70.9276V26.8182H75.631ZM72.0888 24.858H74.017V32.5391C74.017 32.7983 74.0561 32.9972 74.1342 33.1357C74.2159 33.2706 74.3224 33.3629 74.4538 33.4126C74.5852 33.4624 74.7308 33.4872 74.8906 33.4872C75.0114 33.4872 75.1214 33.4783 75.2209 33.4606C75.3239 33.4428 75.402 33.4268 75.4553 33.4126L75.7802 34.9201C75.6772 34.9556 75.5298 34.9947 75.3381 35.0373C75.1499 35.0799 74.919 35.1048 74.6456 35.1119C74.1626 35.1261 73.7276 35.0533 73.3406 34.8935C72.9535 34.7301 72.6463 34.478 72.419 34.1371C72.1953 33.7962 72.0852 33.37 72.0888 32.8587V24.858ZM79.3477 30.206V35H77.4195V24.0909H79.3051V28.2085H79.401C79.5928 27.7468 79.8893 27.3828 80.2906 27.1165C80.6954 26.8466 81.2103 26.7116 81.8353 26.7116C82.4035 26.7116 82.8989 26.8306 83.3215 27.0685C83.7441 27.3065 84.0708 27.6545 84.3016 28.1126C84.536 28.5707 84.6531 29.13 84.6531 29.7905V35H82.7249V30.0888C82.7249 29.5384 82.5828 29.1104 82.2987 28.805C82.0182 28.4961 81.624 28.3416 81.1162 28.3416C80.7753 28.3416 80.4699 28.4162 80.2 28.5653C79.9337 28.7109 79.7242 28.9222 79.5715 29.1992C79.4223 29.4762 79.3477 29.8118 79.3477 30.206ZM90.2409 35.1598C89.4205 35.1598 88.7121 34.9893 88.1155 34.6484C87.5225 34.304 87.0661 33.8175 86.7465 33.1889C86.4269 32.5568 86.2671 31.8129 86.2671 30.957C86.2671 30.1154 86.4269 29.3768 86.7465 28.7411C87.0697 28.1019 87.5207 27.6048 88.0995 27.2496C88.6784 26.891 89.3584 26.7116 90.1396 26.7116C90.6439 26.7116 91.1198 26.7933 91.5672 26.9567C92.0182 27.1165 92.4159 27.3651 92.7604 27.7024C93.1084 28.0398 93.3818 28.4695 93.5807 28.9915C93.7796 29.5099 93.879 30.1278 93.879 30.8452V31.4364H87.1727V30.1367H92.0306C92.0271 29.7674 91.9472 29.4389 91.7909 29.1513C91.6347 28.8601 91.4163 28.631 91.1357 28.4641C90.8588 28.2972 90.5356 28.2138 90.1663 28.2138C89.7721 28.2138 89.4259 28.3097 89.1276 28.5014C88.8293 28.6896 88.5967 28.9382 88.4298 29.2472C88.2664 29.5526 88.183 29.8881 88.1794 30.2539V31.3885C88.1794 31.8643 88.2664 32.2727 88.4404 32.6136C88.6144 32.951 88.8577 33.2102 89.1702 33.3913C89.4827 33.5689 89.8485 33.6577 90.2675 33.6577C90.548 33.6577 90.8019 33.6186 91.0292 33.5405C91.2565 33.4588 91.4536 33.3398 91.6205 33.1836C91.7874 33.0273 91.9134 32.8338 91.9987 32.603L93.7991 32.8054C93.6855 33.2812 93.4688 33.6967 93.1492 34.0518C92.8332 34.4034 92.4284 34.6768 91.9347 34.8722C91.4411 35.0639 90.8765 35.1598 90.2409 35.1598ZM103.317 26.8182V28.3097H98.6131V26.8182H103.317ZM99.7743 24.858H101.703V32.5391C101.703 32.7983 101.742 32.9972 101.82 33.1357C101.901 33.2706 102.008 33.3629 102.139 33.4126C102.271 33.4624 102.416 33.4872 102.576 33.4872C102.697 33.4872 102.807 33.4783 102.906 33.4606C103.009 33.4428 103.088 33.4268 103.141 33.4126L103.466 34.9201C103.363 34.9556 103.215 34.9947 103.024 35.0373C102.835 35.0799 102.605 35.1048 102.331 35.1119C101.848 35.1261 101.413 35.0533 101.026 34.8935C100.639 34.7301 100.332 34.478 100.105 34.1371C99.8809 33.7962 99.7708 33.37 99.7743 32.8587V24.858ZM104.929 35V26.8182H106.858V35H104.929ZM105.899 25.657C105.593 25.657 105.331 25.5558 105.11 25.3533C104.89 25.1474 104.78 24.9006 104.78 24.6129C104.78 24.3217 104.89 24.0749 105.11 23.8725C105.331 23.6665 105.593 23.5636 105.899 23.5636C106.208 23.5636 106.47 23.6665 106.687 23.8725C106.907 24.0749 107.017 24.3217 107.017 24.6129C107.017 24.9006 106.907 25.1474 106.687 25.3533C106.47 25.5558 106.208 25.657 105.899 25.657ZM108.84 35V26.8182H110.683V28.2085H110.779C110.95 27.7397 111.232 27.3739 111.626 27.1112C112.02 26.8448 112.491 26.7116 113.038 26.7116C113.592 26.7116 114.059 26.8466 114.439 27.1165C114.822 27.3828 115.092 27.7468 115.248 28.2085H115.334C115.515 27.7539 115.82 27.3917 116.25 27.1218C116.683 26.8484 117.196 26.7116 117.789 26.7116C118.542 26.7116 119.156 26.9496 119.632 27.4254C120.108 27.9013 120.346 28.5955 120.346 29.5082V35H118.412V29.8065C118.412 29.2987 118.278 28.9276 118.008 28.6932C117.738 28.4553 117.407 28.3363 117.017 28.3363C116.552 28.3363 116.188 28.4819 115.925 28.7731C115.666 29.0607 115.536 29.4354 115.536 29.897V35H113.645V29.7266C113.645 29.304 113.517 28.9666 113.262 28.7145C113.009 28.4624 112.679 28.3363 112.271 28.3363C111.994 28.3363 111.742 28.4073 111.514 28.5494C111.287 28.6879 111.106 28.8849 110.971 29.1406C110.836 29.3928 110.769 29.6875 110.769 30.0249V35H108.84ZM125.924 35.1598C125.104 35.1598 124.396 34.9893 123.799 34.6484C123.206 34.304 122.75 33.8175 122.43 33.1889C122.111 32.5568 121.951 31.8129 121.951 30.957C121.951 30.1154 122.111 29.3768 122.43 28.7411C122.753 28.1019 123.204 27.6048 123.783 27.2496C124.362 26.891 125.042 26.7116 125.823 26.7116C126.328 26.7116 126.803 26.7933 127.251 26.9567C127.702 27.1165 128.1 27.3651 128.444 27.7024C128.792 28.0398 129.065 28.4695 129.264 28.9915C129.463 29.5099 129.563 30.1278 129.563 30.8452V31.4364H122.856V30.1367H127.714C127.711 29.7674 127.631 29.4389 127.475 29.1513C127.318 28.8601 127.1 28.631 126.819 28.4641C126.542 28.2972 126.219 28.2138 125.85 28.2138C125.456 28.2138 125.109 28.3097 124.811 28.5014C124.513 28.6896 124.28 28.9382 124.113 29.2472C123.95 29.5526 123.867 29.8881 123.863 30.2539V31.3885C123.863 31.8643 123.95 32.2727 124.124 32.6136C124.298 32.951 124.541 33.2102 124.854 33.3913C125.166 33.5689 125.532 33.6577 125.951 33.6577C126.232 33.6577 126.486 33.6186 126.713 33.5405C126.94 33.4588 127.137 33.3398 127.304 33.1836C127.471 33.0273 127.597 32.8338 127.682 32.603L129.483 32.8054C129.369 33.2812 129.152 33.6967 128.833 34.0518C128.517 34.4034 128.112 34.6768 127.618 34.8722C127.125 35.0639 126.56 35.1598 125.924 35.1598ZM25.4908 53V44.8182H27.3604V46.1818H27.4457C27.5948 45.7095 27.8505 45.3455 28.2127 45.0898C28.5785 44.8306 28.9957 44.701 29.4645 44.701C29.571 44.701 29.69 44.7063 29.8214 44.717C29.9563 44.7241 30.0682 44.7365 30.157 44.7543V46.5281C30.0753 46.4996 29.9457 46.4748 29.7681 46.4535C29.5941 46.4286 29.4254 46.4162 29.2621 46.4162C28.9105 46.4162 28.5945 46.4925 28.3139 46.6452C28.0369 46.7944 27.8185 47.0021 27.6587 47.2685C27.4989 47.5348 27.419 47.842 27.419 48.19V53H25.4908ZM36.6529 49.5589V44.8182H38.5811V53H36.7115V51.5458H36.6262C36.4416 52.0039 36.138 52.3786 35.7154 52.6697C35.2963 52.9609 34.7797 53.1065 34.1653 53.1065C33.6291 53.1065 33.155 52.9876 32.7431 52.7496C32.3347 52.5082 32.0151 52.1584 31.7843 51.7003C31.5534 51.2386 31.438 50.6811 31.438 50.0277V44.8182H33.3663V49.7294C33.3663 50.2479 33.5083 50.6598 33.7924 50.9652C34.0765 51.2706 34.4494 51.4233 34.911 51.4233C35.1951 51.4233 35.4703 51.354 35.7367 51.2156C36.003 51.0771 36.2214 50.8711 36.3919 50.5977C36.5659 50.3207 36.6529 49.9744 36.6529 49.5589ZM42.4923 48.206V53H40.564V44.8182H42.407V46.2085H42.5029C42.6911 45.7504 42.9912 45.3864 43.4031 45.1165C43.8186 44.8466 44.3318 44.7116 44.9426 44.7116C45.5072 44.7116 45.999 44.8324 46.4181 45.0739C46.8406 45.3153 47.1673 45.6651 47.3982 46.1232C47.6325 46.5813 47.748 47.1371 47.7444 47.7905V53H45.8161V48.0888C45.8161 47.5419 45.6741 47.114 45.39 46.805C45.1095 46.4961 44.7206 46.3416 44.2235 46.3416C43.8861 46.3416 43.586 46.4162 43.3232 46.5653C43.064 46.7109 42.8598 46.9222 42.7107 47.1992C42.5651 47.4762 42.4923 47.8118 42.4923 48.206ZM56.1713 46.9808L54.4134 47.1726C54.3637 46.995 54.2767 46.8281 54.1524 46.6719C54.0317 46.5156 53.8683 46.3896 53.6624 46.2937C53.4564 46.1978 53.2043 46.1499 52.906 46.1499C52.5047 46.1499 52.1673 46.2369 51.8939 46.4109C51.624 46.5849 51.4909 46.8104 51.4944 47.0874C51.4909 47.3253 51.5779 47.5188 51.7554 47.668C51.9365 47.8171 52.2348 47.9396 52.6503 48.0355L54.0459 48.3338C54.82 48.5007 55.3953 48.7653 55.7718 49.1275C56.1517 49.4897 56.3435 49.9638 56.347 50.5497C56.3435 51.0646 56.1926 51.5192 55.8943 51.9134C55.5995 52.304 55.1894 52.6094 54.6638 52.8295C54.1382 53.0497 53.5345 53.1598 52.8527 53.1598C51.8513 53.1598 51.0452 52.9503 50.4344 52.5312C49.8236 52.1087 49.4596 51.521 49.3424 50.7681L51.2227 50.587C51.308 50.9563 51.4891 51.2351 51.7661 51.4233C52.0431 51.6115 52.4035 51.7056 52.8474 51.7056C53.3055 51.7056 53.673 51.6115 53.95 51.4233C54.2306 51.2351 54.3708 51.0025 54.3708 50.7255C54.3708 50.4911 54.2803 50.2976 54.0992 50.1449C53.9216 49.9922 53.6446 49.875 53.2682 49.7933L51.8726 49.5004C51.0878 49.337 50.5072 49.0618 50.1308 48.6747C49.7544 48.2841 49.5679 47.7905 49.5715 47.1939C49.5679 46.6896 49.7046 46.2528 49.9816 45.8835C50.2622 45.5107 50.651 45.223 51.1482 45.0206C51.6489 44.8146 52.2259 44.7116 52.8794 44.7116C53.8382 44.7116 54.5928 44.9158 55.1432 45.3242C55.6972 45.7326 56.0399 46.2848 56.1713 46.9808ZM65.2267 53.1598C64.4276 53.1598 63.7352 52.984 63.1492 52.6325C62.5633 52.2809 62.1088 51.7891 61.7856 51.157C61.466 50.5249 61.3062 49.7862 61.3062 48.9411C61.3062 48.0959 61.466 47.3555 61.7856 46.7198C62.1088 46.0842 62.5633 45.5906 63.1492 45.239C63.7352 44.8874 64.4276 44.7116 65.2267 44.7116C66.0257 44.7116 66.7181 44.8874 67.3041 45.239C67.89 45.5906 68.3428 46.0842 68.6624 46.7198C68.9855 47.3555 69.1471 48.0959 69.1471 48.9411C69.1471 49.7862 68.9855 50.5249 68.6624 51.157C68.3428 51.7891 67.89 52.2809 67.3041 52.6325C66.7181 52.984 66.0257 53.1598 65.2267 53.1598ZM65.2373 51.6151C65.6705 51.6151 66.0328 51.4961 66.324 51.2582C66.6151 51.0167 66.8318 50.6935 66.9738 50.2887C67.1194 49.8839 67.1922 49.4329 67.1922 48.9357C67.1922 48.435 67.1194 47.9822 66.9738 47.5774C66.8318 47.169 66.6151 46.8441 66.324 46.6026C66.0328 46.3612 65.6705 46.2404 65.2373 46.2404C64.7934 46.2404 64.4241 46.3612 64.1294 46.6026C63.8382 46.8441 63.6198 47.169 63.4742 47.5774C63.3321 47.9822 63.2611 48.435 63.2611 48.9357C63.2611 49.4329 63.3321 49.8839 63.4742 50.2887C63.6198 50.6935 63.8382 51.0167 64.1294 51.2582C64.4241 51.4961 64.7934 51.6151 65.2373 51.6151ZM75.9986 49.5589V44.8182H77.9268V53H76.0572V51.5458H75.9719C75.7873 52.0039 75.4837 52.3786 75.0611 52.6697C74.642 52.9609 74.1254 53.1065 73.511 53.1065C72.9748 53.1065 72.5007 52.9876 72.0888 52.7496C71.6804 52.5082 71.3608 52.1584 71.13 51.7003C70.8991 51.2386 70.7837 50.6811 70.7837 50.0277V44.8182H72.712V49.7294C72.712 50.2479 72.854 50.6598 73.1381 50.9652C73.4222 51.2706 73.7951 51.4233 74.2567 51.4233C74.5408 51.4233 74.8161 51.354 75.0824 51.2156C75.3487 51.0771 75.5671 50.8711 75.7376 50.5977C75.9116 50.3207 75.9986 49.9744 75.9986 49.5589ZM83.9953 44.8182V46.3097H79.2918V44.8182H83.9953ZM80.453 42.858H82.3813V50.5391C82.3813 50.7983 82.4204 50.9972 82.4985 51.1357C82.5802 51.2706 82.6867 51.3629 82.8181 51.4126C82.9495 51.4624 83.0951 51.4872 83.2549 51.4872C83.3756 51.4872 83.4857 51.4783 83.5851 51.4606C83.6881 51.4428 83.7662 51.4268 83.8195 51.4126L84.1444 52.9201C84.0415 52.9556 83.8941 52.9947 83.7023 53.0373C83.5141 53.0799 83.2833 53.1048 83.0099 53.1119C82.5269 53.1261 82.0919 53.0533 81.7048 52.8935C81.3177 52.7301 81.0106 52.478 80.7833 52.1371C80.5596 51.7962 80.4495 51.37 80.453 50.8587V42.858ZM87.8718 51.5085L87.8026 52.0945C87.7528 52.5419 87.6641 52.9964 87.5362 53.4581C87.4119 53.9233 87.2805 54.3512 87.142 54.7418C87.0036 55.1325 86.8917 55.4396 86.8065 55.6634H85.5067C85.5565 55.4467 85.6239 55.152 85.7092 54.7791C85.7979 54.4063 85.8832 53.9872 85.9648 53.522C86.0465 53.0568 86.1016 52.5845 86.13 52.1051L86.1673 51.5085H87.8718ZM94.6141 56.0682C94.3513 56.0682 94.108 56.0469 93.8843 56.0043C93.6642 55.9652 93.4884 55.919 93.357 55.8658L93.8044 54.3636C94.085 54.4453 94.3353 54.4844 94.5555 54.4808C94.7757 54.4773 94.9692 54.408 95.1361 54.2731C95.3066 54.1417 95.4504 53.9215 95.5676 53.6126L95.7327 53.1705L92.7657 44.8182H94.8112L96.6968 50.9972H96.782L98.673 44.8182H100.724L97.4479 53.9908C97.2952 54.424 97.0928 54.7951 96.8406 55.104C96.5885 55.4165 96.2796 55.6545 95.9138 55.8178C95.5516 55.9847 95.1183 56.0682 94.6141 56.0682ZM105.349 53.1598C104.55 53.1598 103.857 52.984 103.271 52.6325C102.685 52.2809 102.231 51.7891 101.908 51.157C101.588 50.5249 101.428 49.7862 101.428 48.9411C101.428 48.0959 101.588 47.3555 101.908 46.7198C102.231 46.0842 102.685 45.5906 103.271 45.239C103.857 44.8874 104.55 44.7116 105.349 44.7116C106.148 44.7116 106.84 44.8874 107.426 45.239C108.012 45.5906 108.465 46.0842 108.784 46.7198C109.108 47.3555 109.269 48.0959 109.269 48.9411C109.269 49.7862 109.108 50.5249 108.784 51.157C108.465 51.7891 108.012 52.2809 107.426 52.6325C106.84 52.984 106.148 53.1598 105.349 53.1598ZM105.359 51.6151C105.793 51.6151 106.155 51.4961 106.446 51.2582C106.737 51.0167 106.954 50.6935 107.096 50.2887C107.241 49.8839 107.314 49.4329 107.314 48.9357C107.314 48.435 107.241 47.9822 107.096 47.5774C106.954 47.169 106.737 46.8441 106.446 46.6026C106.155 46.3612 105.793 46.2404 105.359 46.2404C104.915 46.2404 104.546 46.3612 104.251 46.6026C103.96 46.8441 103.742 47.169 103.596 47.5774C103.454 47.9822 103.383 48.435 103.383 48.9357C103.383 49.4329 103.454 49.8839 103.596 50.2887C103.742 50.6935 103.96 51.0167 104.251 51.2582C104.546 51.4961 104.915 51.6151 105.359 51.6151ZM116.121 49.5589V44.8182H118.049V53H116.179V51.5458H116.094C115.909 52.0039 115.606 52.3786 115.183 52.6697C114.764 52.9609 114.247 53.1065 113.633 53.1065C113.097 53.1065 112.623 52.9876 112.211 52.7496C111.802 52.5082 111.483 52.1584 111.252 51.7003C111.021 51.2386 110.906 50.6811 110.906 50.0277V44.8182H112.834V49.7294C112.834 50.2479 112.976 50.6598 113.26 50.9652C113.544 51.2706 113.917 51.4233 114.379 51.4233C114.663 51.4233 114.938 51.354 115.204 51.2156C115.471 51.0771 115.689 50.8711 115.86 50.5977C116.034 50.3207 116.121 49.9744 116.121 49.5589ZM125.441 53L123.129 44.8182H125.095L126.533 50.571H126.608L128.078 44.8182H130.022L131.492 50.5391H131.572L132.989 44.8182H134.96L132.643 53H130.635L129.1 47.4709H128.989L127.455 53H125.441ZM136.306 53V44.8182H138.234V53H136.306ZM137.276 43.657C136.97 43.657 136.707 43.5558 136.487 43.3533C136.267 43.1474 136.157 42.9006 136.157 42.6129C136.157 42.3217 136.267 42.0749 136.487 41.8725C136.707 41.6665 136.97 41.5636 137.276 41.5636C137.585 41.5636 137.847 41.6665 138.064 41.8725C138.284 42.0749 138.394 42.3217 138.394 42.6129C138.394 42.9006 138.284 43.1474 138.064 43.3533C137.847 43.5558 137.585 43.657 137.276 43.657ZM142.146 42.0909V53H140.217V42.0909H142.146ZM146.057 42.0909V53H144.128V42.0909H146.057ZM27.419 60.0909V71H25.4908V60.0909H27.419ZM32.9708 71.1598C32.1718 71.1598 31.4793 70.984 30.8934 70.6325C30.3074 70.2809 29.8529 69.7891 29.5297 69.157C29.2101 68.5249 29.0503 67.7862 29.0503 66.9411C29.0503 66.0959 29.2101 65.3555 29.5297 64.7198C29.8529 64.0842 30.3074 63.5906 30.8934 63.239C31.4793 62.8874 32.1718 62.7116 32.9708 62.7116C33.7698 62.7116 34.4623 62.8874 35.0482 63.239C35.6341 63.5906 36.0869 64.0842 36.4065 64.7198C36.7297 65.3555 36.8912 66.0959 36.8912 66.9411C36.8912 67.7862 36.7297 68.5249 36.4065 69.157C36.0869 69.7891 35.6341 70.2809 35.0482 70.6325C34.4623 70.984 33.7698 71.1598 32.9708 71.1598ZM32.9814 69.6151C33.4147 69.6151 33.7769 69.4961 34.0681 69.2582C34.3593 69.0167 34.5759 68.6935 34.718 68.2887C34.8635 67.8839 34.9363 67.4329 34.9363 66.9357C34.9363 66.435 34.8635 65.9822 34.718 65.5774C34.5759 65.169 34.3593 64.8441 34.0681 64.6026C33.7769 64.3612 33.4147 64.2404 32.9814 64.2404C32.5376 64.2404 32.1682 64.3612 31.8735 64.6026C31.5823 64.8441 31.3639 65.169 31.2183 65.5774C31.0763 65.9822 31.0052 66.435 31.0052 66.9357C31.0052 67.4329 31.0763 67.8839 31.2183 68.2887C31.3639 68.6935 31.5823 69.0167 31.8735 69.2582C32.1682 69.4961 32.5376 69.6151 32.9814 69.6151ZM44.9945 64.9808L43.2367 65.1726C43.187 64.995 43.1 64.8281 42.9757 64.6719C42.8549 64.5156 42.6916 64.3896 42.4856 64.2937C42.2797 64.1978 42.0275 64.1499 41.7292 64.1499C41.3279 64.1499 40.9906 64.2369 40.7172 64.4109C40.4473 64.5849 40.3141 64.8104 40.3176 65.0874C40.3141 65.3253 40.4011 65.5188 40.5787 65.668C40.7598 65.8171 41.0581 65.9396 41.4735 66.0355L42.8691 66.3338C43.6433 66.5007 44.2186 66.7653 44.595 67.1275C44.975 67.4897 45.1667 67.9638 45.1703 68.5497C45.1667 69.0646 45.0158 69.5192 44.7175 69.9134C44.4228 70.304 44.0126 70.6094 43.487 70.8295C42.9615 71.0497 42.3578 71.1598 41.676 71.1598C40.6745 71.1598 39.8684 70.9503 39.2576 70.5312C38.6468 70.1087 38.2828 69.521 38.1657 68.7681L40.046 68.587C40.1312 68.9563 40.3123 69.2351 40.5893 69.4233C40.8663 69.6115 41.2267 69.7056 41.6706 69.7056C42.1287 69.7056 42.4963 69.6115 42.7733 69.4233C43.0538 69.2351 43.1941 69.0025 43.1941 68.7255C43.1941 68.4911 43.1035 68.2976 42.9224 68.1449C42.7449 67.9922 42.4679 67.875 42.0914 67.7933L40.6958 67.5004C39.911 67.337 39.3304 67.0618 38.954 66.6747C38.5776 66.2841 38.3912 65.7905 38.3947 65.1939C38.3912 64.6896 38.5279 64.2528 38.8049 63.8835C39.0854 63.5107 39.4743 63.223 39.9714 63.0206C40.4721 62.8146 41.0492 62.7116 41.7026 62.7116C42.6614 62.7116 43.416 62.9158 43.9664 63.3242C44.5204 63.7326 44.8631 64.2848 44.9945 64.9808ZM50.3825 71.1598C49.5621 71.1598 48.8537 70.9893 48.2571 70.6484C47.6641 70.304 47.2077 69.8175 46.8881 69.1889C46.5685 68.5568 46.4087 67.8129 46.4087 66.957C46.4087 66.1154 46.5685 65.3768 46.8881 64.7411C47.2113 64.1019 47.6623 63.6048 48.2411 63.2496C48.82 62.891 49.5 62.7116 50.2812 62.7116C50.7855 62.7116 51.2614 62.7933 51.7088 62.9567C52.1598 63.1165 52.5575 63.3651 52.902 63.7024C53.25 64.0398 53.5234 64.4695 53.7223 64.9915C53.9212 65.5099 54.0206 66.1278 54.0206 66.8452V67.4364H47.3143V66.1367H52.1722C52.1687 65.7674 52.0888 65.4389 51.9325 65.1513C51.7763 64.8601 51.5579 64.631 51.2773 64.4641C51.0004 64.2972 50.6772 64.2138 50.3079 64.2138C49.9137 64.2138 49.5675 64.3097 49.2692 64.5014C48.9709 64.6896 48.7383 64.9382 48.5714 65.2472C48.408 65.5526 48.3246 65.8881 48.321 66.2539V67.3885C48.321 67.8643 48.408 68.2727 48.582 68.6136C48.756 68.951 48.9993 69.2102 49.3118 69.3913C49.6243 69.5689 49.9901 69.6577 50.4091 69.6577C50.6896 69.6577 50.9435 69.6186 51.1708 69.5405C51.3981 69.4588 51.5952 69.3398 51.7621 69.1836C51.929 69.0273 52.055 68.8338 52.1403 68.603L53.9407 68.8054C53.8271 69.2812 53.6104 69.6967 53.2908 70.0518C52.9748 70.4034 52.57 70.6768 52.0763 70.8722C51.5827 71.0639 51.0181 71.1598 50.3825 71.1598ZM56.8398 71.1172C56.5166 71.1172 56.2396 71.0036 56.0088 70.7763C55.778 70.549 55.6643 70.272 55.6679 69.9453C55.6643 69.6257 55.778 69.3523 56.0088 69.125C56.2396 68.8977 56.5166 68.7841 56.8398 68.7841C57.1523 68.7841 57.4239 68.8977 57.6547 69.125C57.8891 69.3523 58.0081 69.6257 58.0116 69.9453C58.0081 70.1619 57.9513 70.359 57.8412 70.5366C57.7346 70.7141 57.5926 70.8562 57.415 70.9627C57.241 71.0657 57.0493 71.1172 56.8398 71.1172ZM65.4477 60.0909V71H63.4715V60.0909H65.4477ZM71.6467 62.8182V64.3097H66.81V62.8182H71.6467ZM68.0192 71V62.0458C68.0192 61.4954 68.1328 61.0373 68.3601 60.6715C68.5909 60.3058 68.8999 60.0323 69.2869 59.8512C69.674 59.6701 70.1037 59.5795 70.576 59.5795C70.9098 59.5795 71.2063 59.6062 71.4656 59.6594C71.7248 59.7127 71.9165 59.7607 72.0408 59.8033L71.6573 61.2947C71.5756 61.2699 71.4727 61.245 71.3484 61.2202C71.2241 61.1918 71.0856 61.1776 70.9329 61.1776C70.5742 61.1776 70.3203 61.2646 70.1712 61.4386C70.0256 61.609 69.9528 61.854 69.9528 62.1737V71H68.0192ZM78.076 74.0682C77.8132 74.0682 77.57 74.0469 77.3462 74.0043C77.1261 73.9652 76.9503 73.919 76.8189 73.8658L77.2663 72.3636C77.5469 72.4453 77.7972 72.4844 78.0174 72.4808C78.2376 72.4773 78.4311 72.408 78.598 72.2731C78.7685 72.1417 78.9123 71.9215 79.0295 71.6126L79.1946 71.1705L76.2276 62.8182H78.2731L80.1587 68.9972H80.244L82.1349 62.8182H84.1857L80.9098 71.9908C80.7571 72.424 80.5547 72.7951 80.3026 73.104C80.0504 73.4165 79.7415 73.6545 79.3757 73.8178C79.0135 73.9847 78.5803 74.0682 78.076 74.0682ZM88.8106 71.1598C88.0116 71.1598 87.3192 70.984 86.7332 70.6325C86.1473 70.2809 85.6927 69.7891 85.3696 69.157C85.05 68.5249 84.8902 67.7862 84.8902 66.9411C84.8902 66.0959 85.05 65.3555 85.3696 64.7198C85.6927 64.0842 86.1473 63.5906 86.7332 63.239C87.3192 62.8874 88.0116 62.7116 88.8106 62.7116C89.6096 62.7116 90.3021 62.8874 90.8881 63.239C91.474 63.5906 91.9268 64.0842 92.2464 64.7198C92.5695 65.3555 92.7311 66.0959 92.7311 66.9411C92.7311 67.7862 92.5695 68.5249 92.2464 69.157C91.9268 69.7891 91.474 70.2809 90.8881 70.6325C90.3021 70.984 89.6096 71.1598 88.8106 71.1598ZM88.8213 69.6151C89.2545 69.6151 89.6167 69.4961 89.9079 69.2582C90.1991 69.0167 90.4157 68.6935 90.5578 68.2887C90.7034 67.8839 90.7762 67.4329 90.7762 66.9357C90.7762 66.435 90.7034 65.9822 90.5578 65.5774C90.4157 65.169 90.1991 64.8441 89.9079 64.6026C89.6167 64.3612 89.2545 64.2404 88.8213 64.2404C88.3774 64.2404 88.0081 64.3612 87.7133 64.6026C87.4221 64.8441 87.2037 65.169 87.0581 65.5774C86.9161 65.9822 86.8451 66.435 86.8451 66.9357C86.8451 67.4329 86.9161 67.8839 87.0581 68.2887C87.2037 68.6935 87.4221 69.0167 87.7133 69.2582C88.0081 69.4961 88.3774 69.6151 88.8213 69.6151ZM99.5826 67.5589V62.8182H101.511V71H99.6412V69.5458H99.5559C99.3713 70.0039 99.0676 70.3786 98.6451 70.6697C98.226 70.9609 97.7093 71.1065 97.095 71.1065C96.5588 71.1065 96.0847 70.9876 95.6728 70.7496C95.2644 70.5082 94.9448 70.1584 94.714 69.7003C94.4831 69.2386 94.3677 68.6811 94.3677 68.0277V62.8182H96.296V67.7294C96.296 68.2479 96.438 68.6598 96.7221 68.9652C97.0062 69.2706 97.3791 69.4233 97.8407 69.4233C98.1248 69.4233 98.4 69.354 98.6664 69.2156C98.9327 69.0771 99.1511 68.8711 99.3216 68.5977C99.4956 68.3207 99.5826 67.9744 99.5826 67.5589ZM109.569 71.1651C109.05 71.1651 108.583 71.0728 108.168 70.8881C107.756 70.6999 107.429 70.4229 107.188 70.0572C106.95 69.6914 106.831 69.2404 106.831 68.7042C106.831 68.2425 106.916 67.8608 107.087 67.5589C107.257 67.2571 107.49 67.0156 107.784 66.8345C108.079 66.6534 108.411 66.5167 108.78 66.4244C109.153 66.3285 109.539 66.2592 109.936 66.2166C110.416 66.1669 110.805 66.1225 111.103 66.0835C111.401 66.0408 111.618 65.9769 111.753 65.8917C111.891 65.8029 111.96 65.6662 111.96 65.4815V65.4496C111.96 65.0483 111.842 64.7376 111.604 64.5174C111.366 64.2972 111.023 64.1871 110.576 64.1871C110.103 64.1871 109.729 64.2901 109.452 64.4961C109.178 64.7021 108.994 64.9453 108.898 65.2259L107.097 64.9702C107.239 64.473 107.474 64.0575 107.8 63.7237C108.127 63.3864 108.527 63.1342 108.999 62.9673C109.471 62.7969 109.993 62.7116 110.565 62.7116C110.959 62.7116 111.351 62.7578 111.742 62.8501C112.133 62.9425 112.49 63.0952 112.813 63.3082C113.136 63.5178 113.395 63.8036 113.59 64.1658C113.789 64.5281 113.889 64.9808 113.889 65.5241V71H112.035V69.8761H111.971C111.854 70.1033 111.689 70.3164 111.476 70.5153C111.266 70.7106 111.002 70.8686 110.682 70.9893C110.366 71.1065 109.995 71.1651 109.569 71.1651ZM110.07 69.7482C110.457 69.7482 110.792 69.6719 111.076 69.5192C111.36 69.3629 111.579 69.157 111.731 68.9013C111.888 68.6456 111.966 68.3668 111.966 68.065V67.1009C111.905 67.1506 111.802 67.1967 111.657 67.2393C111.515 67.282 111.355 67.3192 111.177 67.3512C111 67.3832 110.824 67.4116 110.65 67.4364C110.476 67.4613 110.325 67.4826 110.197 67.5004C109.91 67.5394 109.652 67.6033 109.425 67.6921C109.198 67.7809 109.018 67.9052 108.887 68.065C108.756 68.2212 108.69 68.4237 108.69 68.6722C108.69 69.0273 108.82 69.2955 109.079 69.4766C109.338 69.6577 109.668 69.7482 110.07 69.7482ZM117.756 66.206V71H115.828V62.8182H117.671V64.2085H117.767C117.955 63.7504 118.255 63.3864 118.667 63.1165C119.082 62.8466 119.595 62.7116 120.206 62.7116C120.771 62.7116 121.263 62.8324 121.682 63.0739C122.104 63.3153 122.431 63.6651 122.662 64.1232C122.896 64.5813 123.012 65.1371 123.008 65.7905V71H121.08V66.0888C121.08 65.5419 120.938 65.114 120.654 64.805C120.373 64.4961 119.984 64.3416 119.487 64.3416C119.15 64.3416 118.85 64.4162 118.587 64.5653C118.328 64.7109 118.123 64.9222 117.974 65.1992C117.829 65.4762 117.756 65.8118 117.756 66.206ZM131.435 64.9808L129.677 65.1726C129.627 64.995 129.54 64.8281 129.416 64.6719C129.295 64.5156 129.132 64.3896 128.926 64.2937C128.72 64.1978 128.468 64.1499 128.17 64.1499C127.768 64.1499 127.431 64.2369 127.158 64.4109C126.888 64.5849 126.755 64.8104 126.758 65.0874C126.755 65.3253 126.842 65.5188 127.019 65.668C127.2 65.8171 127.498 65.9396 127.914 66.0355L129.31 66.3338C130.084 66.5007 130.659 66.7653 131.035 67.1275C131.415 67.4897 131.607 67.9638 131.611 68.5497C131.607 69.0646 131.456 69.5192 131.158 69.9134C130.863 70.304 130.453 70.6094 129.927 70.8295C129.402 71.0497 128.798 71.1598 128.116 71.1598C127.115 71.1598 126.309 70.9503 125.698 70.5312C125.087 70.1087 124.723 69.521 124.606 68.7681L126.486 68.587C126.572 68.9563 126.753 69.2351 127.03 69.4233C127.307 69.6115 127.667 69.7056 128.111 69.7056C128.569 69.7056 128.937 69.6115 129.214 69.4233C129.494 69.2351 129.634 69.0025 129.634 68.7255C129.634 68.4911 129.544 68.2976 129.363 68.1449C129.185 67.9922 128.908 67.875 128.532 67.7933L127.136 67.5004C126.351 67.337 125.771 67.0618 125.394 66.6747C125.018 66.2841 124.832 65.7905 124.835 65.1939C124.832 64.6896 124.968 64.2528 125.245 63.8835C125.526 63.5107 125.915 63.223 126.412 63.0206C126.913 62.8146 127.49 62.7116 128.143 62.7116C129.102 62.7116 129.856 62.9158 130.407 63.3242C130.961 63.7326 131.304 64.2848 131.435 64.9808ZM134.889 71L132.578 62.8182H134.543L135.981 68.571H136.056L137.526 62.8182H139.47L140.94 68.5391H141.02L142.437 62.8182H144.408L142.091 71H140.083L138.549 65.4709H138.437L136.903 71H134.889ZM149.142 71.1598C148.322 71.1598 147.613 70.9893 147.017 70.6484C146.424 70.304 145.968 69.8175 145.648 69.1889C145.328 68.5568 145.169 67.8129 145.169 66.957C145.169 66.1154 145.328 65.3768 145.648 64.7411C145.971 64.1019 146.422 63.6048 147.001 63.2496C147.58 62.891 148.26 62.7116 149.041 62.7116C149.545 62.7116 150.021 62.7933 150.469 62.9567C150.92 63.1165 151.317 63.3651 151.662 63.7024C152.01 64.0398 152.283 64.4695 152.482 64.9915C152.681 65.5099 152.78 66.1278 152.78 66.8452V67.4364H146.074V66.1367H150.932C150.928 65.7674 150.849 65.4389 150.692 65.1513C150.536 64.8601 150.318 64.631 150.037 64.4641C149.76 64.2972 149.437 64.2138 149.068 64.2138C148.673 64.2138 148.327 64.3097 148.029 64.5014C147.731 64.6896 147.498 64.9382 147.331 65.2472C147.168 65.5526 147.084 65.8881 147.081 66.2539V67.3885C147.081 67.8643 147.168 68.2727 147.342 68.6136C147.516 68.951 147.759 69.2102 148.072 69.3913C148.384 69.5689 148.75 69.6577 149.169 69.6577C149.449 69.6577 149.703 69.6186 149.931 69.5405C150.158 69.4588 150.355 69.3398 150.522 69.1836C150.689 69.0273 150.815 68.8338 150.9 68.603L152.7 68.8054C152.587 69.2812 152.37 69.6967 152.051 70.0518C151.735 70.4034 151.33 70.6768 150.836 70.8722C150.343 71.0639 149.778 71.1598 149.142 71.1598ZM154.412 71V62.8182H156.281V64.1818H156.367C156.516 63.7095 156.771 63.3455 157.134 63.0898C157.499 62.8306 157.917 62.701 158.385 62.701C158.492 62.701 158.611 62.7063 158.742 62.717C158.877 62.7241 158.989 62.7365 159.078 62.7543V64.5281C158.996 64.4996 158.867 64.4748 158.689 64.4535C158.515 64.4286 158.346 64.4162 158.183 64.4162C157.831 64.4162 157.515 64.4925 157.235 64.6452C156.958 64.7944 156.739 65.0021 156.58 65.2685C156.42 65.5348 156.34 65.842 156.34 66.19V71H154.412ZM25.4908 89V80.8182H27.419V89H25.4908ZM26.4602 79.657C26.1548 79.657 25.892 79.5558 25.6719 79.3533C25.4517 79.1474 25.3416 78.9006 25.3416 78.6129C25.3416 78.3217 25.4517 78.0749 25.6719 77.8725C25.892 77.6665 26.1548 77.5636 26.4602 77.5636C26.7692 77.5636 27.032 77.6665 27.2486 77.8725C27.4688 78.0749 27.5788 78.3217 27.5788 78.6129C27.5788 78.9006 27.4688 79.1474 27.2486 79.3533C27.032 79.5558 26.7692 79.657 26.4602 79.657ZM31.3302 84.206V89H29.4019V80.8182H31.2449V82.2085H31.3408C31.529 81.7504 31.8291 81.3864 32.241 81.1165C32.6565 80.8466 33.1697 80.7116 33.7805 80.7116C34.3451 80.7116 34.8369 80.8324 35.2559 81.0739C35.6785 81.3153 36.0052 81.6651 36.2361 82.1232C36.4704 82.5813 36.5858 83.1371 36.5823 83.7905V89H34.654V84.0888C34.654 83.5419 34.512 83.114 34.2279 82.805C33.9474 82.4961 33.5585 82.3416 33.0613 82.3416C32.724 82.3416 32.4239 82.4162 32.1611 82.5653C31.9019 82.7109 31.6977 82.9222 31.5486 83.1992C31.403 83.4762 31.3302 83.8118 31.3302 84.206ZM42.1114 89.1598C41.2947 89.1598 40.5933 88.9805 40.0074 88.6218C39.425 88.2631 38.9758 87.7678 38.6597 87.1357C38.3472 86.5 38.191 85.7685 38.191 84.9411C38.191 84.1101 38.3508 83.3768 38.6704 82.7411C38.99 82.1019 39.441 81.6048 40.0233 81.2496C40.6093 80.891 41.3018 80.7116 42.1008 80.7116C42.7648 80.7116 43.3525 80.8342 43.8639 81.0792C44.3788 81.3207 44.789 81.6634 45.0944 82.1072C45.3998 82.5476 45.5738 83.0625 45.6164 83.652H43.7733C43.6988 83.2578 43.5212 82.9293 43.2407 82.6665C42.9637 82.4002 42.5926 82.267 42.1274 82.267C41.7332 82.267 41.387 82.3736 41.0887 82.5866C40.7904 82.7962 40.5578 83.098 40.3909 83.4922C40.2275 83.8864 40.1459 84.3587 40.1459 84.9091C40.1459 85.4666 40.2275 85.946 40.3909 86.3473C40.5542 86.745 40.7833 87.0522 41.078 87.2688C41.3763 87.4819 41.7261 87.5884 42.1274 87.5884C42.4115 87.5884 42.6654 87.5352 42.8891 87.4286C43.1164 87.3185 43.3064 87.1605 43.4591 86.9545C43.6118 86.7486 43.7165 86.4982 43.7733 86.2035H45.6164C45.5702 86.7823 45.3998 87.2955 45.105 87.7429C44.8103 88.1868 44.409 88.5348 43.9012 88.7869C43.3934 89.0355 42.7968 89.1598 42.1114 89.1598ZM50.7686 89.1598C49.9696 89.1598 49.2772 88.984 48.6912 88.6325C48.1053 88.2809 47.6507 87.7891 47.3276 87.157C47.008 86.5249 46.8482 85.7862 46.8482 84.9411C46.8482 84.0959 47.008 83.3555 47.3276 82.7198C47.6507 82.0842 48.1053 81.5906 48.6912 81.239C49.2772 80.8874 49.9696 80.7116 50.7686 80.7116C51.5676 80.7116 52.2601 80.8874 52.8461 81.239C53.432 81.5906 53.8848 82.0842 54.2044 82.7198C54.5275 83.3555 54.6891 84.0959 54.6891 84.9411C54.6891 85.7862 54.5275 86.5249 54.2044 87.157C53.8848 87.7891 53.432 88.2809 52.8461 88.6325C52.2601 88.984 51.5676 89.1598 50.7686 89.1598ZM50.7793 87.6151C51.2125 87.6151 51.5748 87.4961 51.8659 87.2582C52.1571 87.0167 52.3738 86.6935 52.5158 86.2887C52.6614 85.8839 52.7342 85.4329 52.7342 84.9357C52.7342 84.435 52.6614 83.9822 52.5158 83.5774C52.3738 83.169 52.1571 82.8441 51.8659 82.6026C51.5748 82.3612 51.2125 82.2404 50.7793 82.2404C50.3354 82.2404 49.9661 82.3612 49.6713 82.6026C49.3801 82.8441 49.1618 83.169 49.0162 83.5774C48.8741 83.9822 48.8031 84.435 48.8031 84.9357C48.8031 85.4329 48.8741 85.8839 49.0162 86.2887C49.1618 86.6935 49.3801 87.0167 49.6713 87.2582C49.9661 87.4961 50.3354 87.6151 50.7793 87.6151ZM56.3257 89V80.8182H58.1954V82.1818H58.2806C58.4298 81.7095 58.6855 81.3455 59.0477 81.0898C59.4134 80.8306 59.8307 80.701 60.2994 80.701C60.406 80.701 60.5249 80.7063 60.6563 80.717C60.7913 80.7241 60.9031 80.7365 60.9919 80.7543V82.5281C60.9102 82.4996 60.7806 82.4748 60.6031 82.4535C60.4291 82.4286 60.2604 82.4162 60.097 82.4162C59.7455 82.4162 59.4294 82.4925 59.1489 82.6452C58.8719 82.7944 58.6535 83.0021 58.4937 83.2685C58.3339 83.5348 58.254 83.842 58.254 84.19V89H56.3257ZM62.273 89V80.8182H64.1427V82.1818H64.2279C64.377 81.7095 64.6327 81.3455 64.9949 81.0898C65.3607 80.8306 65.778 80.701 66.2467 80.701C66.3532 80.701 66.4722 80.7063 66.6036 80.717C66.7385 80.7241 66.8504 80.7365 66.9392 80.7543V82.5281C66.8575 82.4996 66.7279 82.4748 66.5503 82.4535C66.3763 82.4286 66.2077 82.4162 66.0443 82.4162C65.6927 82.4162 65.3767 82.4925 65.0961 82.6452C64.8192 82.7944 64.6008 83.0021 64.441 83.2685C64.2812 83.5348 64.2013 83.842 64.2013 84.19V89H62.273ZM71.5055 89.1598C70.6852 89.1598 69.9767 88.9893 69.3801 88.6484C68.7871 88.304 68.3308 87.8175 68.0112 87.1889C67.6916 86.5568 67.5318 85.8129 67.5318 84.957C67.5318 84.1154 67.6916 83.3768 68.0112 82.7411C68.3343 82.1019 68.7853 81.6048 69.3642 81.2496C69.943 80.891 70.623 80.7116 71.4043 80.7116C71.9086 80.7116 72.3844 80.7933 72.8319 80.9567C73.2828 81.1165 73.6806 81.3651 74.025 81.7024C74.373 82.0398 74.6465 82.4695 74.8453 82.9915C75.0442 83.5099 75.1436 84.1278 75.1436 84.8452V85.4364H68.4373V84.1367H73.2953C73.2917 83.7674 73.2118 83.4389 73.0556 83.1513C72.8993 82.8601 72.6809 82.631 72.4004 82.4641C72.1234 82.2972 71.8002 82.2138 71.4309 82.2138C71.0368 82.2138 70.6905 82.3097 70.3922 82.5014C70.0939 82.6896 69.8613 82.9382 69.6944 83.2472C69.5311 83.5526 69.4476 83.8881 69.4441 84.2539V85.3885C69.4441 85.8643 69.5311 86.2727 69.7051 86.6136C69.8791 86.951 70.1223 87.2102 70.4348 87.3913C70.7473 87.5689 71.1131 87.6577 71.5321 87.6577C71.8127 87.6577 72.0666 87.6186 72.2939 87.5405C72.5211 87.4588 72.7182 87.3398 72.8851 87.1836C73.052 87.0273 73.1781 86.8338 73.2633 86.603L75.0637 86.8054C74.9501 87.2812 74.7335 87.6967 74.4139 88.0518C74.0978 88.4034 73.693 88.6768 73.1994 88.8722C72.7058 89.0639 72.1412 89.1598 71.5055 89.1598ZM80.3438 89.1598C79.5271 89.1598 78.8257 88.9805 78.2398 88.6218C77.6574 88.2631 77.2082 87.7678 76.8921 87.1357C76.5796 86.5 76.4234 85.7685 76.4234 84.9411C76.4234 84.1101 76.5832 83.3768 76.9028 82.7411C77.2224 82.1019 77.6734 81.6048 78.2558 81.2496C78.8417 80.891 79.5342 80.7116 80.3332 80.7116C80.9972 80.7116 81.585 80.8342 82.0963 81.0792C82.6112 81.3207 83.0214 81.6634 83.3268 82.1072C83.6322 82.5476 83.8062 83.0625 83.8488 83.652H82.0058C81.9312 83.2578 81.7536 82.9293 81.4731 82.6665C81.1961 82.4002 80.825 82.267 80.3598 82.267C79.9656 82.267 79.6194 82.3736 79.3211 82.5866C79.0228 82.7962 78.7902 83.098 78.6233 83.4922C78.46 83.8864 78.3783 84.3587 78.3783 84.9091C78.3783 85.4666 78.46 85.946 78.6233 86.3473C78.7867 86.745 79.0157 87.0522 79.3105 87.2688C79.6088 87.4819 79.9585 87.5884 80.3598 87.5884C80.6439 87.5884 80.8978 87.5352 81.1215 87.4286C81.3488 87.3185 81.5388 87.1605 81.6915 86.9545C81.8442 86.7486 81.949 86.4982 82.0058 86.2035H83.8488C83.8026 86.7823 83.6322 87.2955 83.3374 87.7429C83.0427 88.1868 82.6414 88.5348 82.1336 88.7869C81.6258 89.0355 81.0292 89.1598 80.3438 89.1598ZM89.5178 80.8182V82.3097H84.8143V80.8182H89.5178ZM85.9755 78.858H87.9038V86.5391C87.9038 86.7983 87.9428 86.9972 88.021 87.1357C88.1026 87.2706 88.2092 87.3629 88.3406 87.4126C88.4719 87.4624 88.6175 87.4872 88.7773 87.4872C88.8981 87.4872 89.0082 87.4783 89.1076 87.4606C89.2106 87.4428 89.2887 87.4268 89.342 87.4126L89.6669 88.9201C89.5639 88.9556 89.4165 88.9947 89.2248 89.0373C89.0366 89.0799 88.8058 89.1048 88.5323 89.1119C88.0494 89.1261 87.6143 89.0533 87.2273 88.8935C86.8402 88.7301 86.533 88.478 86.3058 88.1371C86.082 87.7962 85.9719 87.37 85.9755 86.8587V78.858ZM93.2345 78.0909V89H91.3062V78.0909H93.2345ZM96.4158 92.0682C96.1531 92.0682 95.9098 92.0469 95.6861 92.0043C95.4659 91.9652 95.2901 91.919 95.1587 91.8658L95.6062 90.3636C95.8867 90.4453 96.1371 90.4844 96.3572 90.4808C96.5774 90.4773 96.771 90.408 96.9379 90.2731C97.1083 90.1417 97.2521 89.9215 97.3693 89.6126L97.5344 89.1705L94.5675 80.8182H96.6129L98.4986 86.9972H98.5838L100.475 80.8182H102.526L99.2496 89.9908C99.0969 90.424 98.8945 90.7951 98.6424 91.104C98.3903 91.4165 98.0813 91.6545 97.7156 91.8178C97.3533 91.9847 96.9201 92.0682 96.4158 92.0682ZM105.611 87.5085L105.542 88.0945C105.492 88.5419 105.403 88.9964 105.275 89.4581C105.151 89.9233 105.02 90.3512 104.881 90.7418C104.743 91.1325 104.631 91.4396 104.546 91.6634H103.246C103.296 91.4467 103.363 91.152 103.448 90.7791C103.537 90.4063 103.622 89.9872 103.704 89.522C103.786 89.0568 103.841 88.5845 103.869 88.1051L103.907 87.5085H105.611ZM112.353 92.0682C112.091 92.0682 111.847 92.0469 111.624 92.0043C111.403 91.9652 111.228 91.919 111.096 91.8658L111.544 90.3636C111.824 90.4453 112.075 90.4844 112.295 90.4808C112.515 90.4773 112.708 90.408 112.875 90.2731C113.046 90.1417 113.19 89.9215 113.307 89.6126L113.472 89.1705L110.505 80.8182H112.55L114.436 86.9972H114.521L116.412 80.8182H118.463L115.187 89.9908C115.034 90.424 114.832 90.7951 114.58 91.104C114.328 91.4165 114.019 91.6545 113.653 91.8178C113.291 91.9847 112.858 92.0682 112.353 92.0682ZM123.088 89.1598C122.289 89.1598 121.597 88.984 121.011 88.6325C120.425 88.2809 119.97 87.7891 119.647 87.157C119.327 86.5249 119.168 85.7862 119.168 84.9411C119.168 84.0959 119.327 83.3555 119.647 82.7198C119.97 82.0842 120.425 81.5906 121.011 81.239C121.597 80.8874 122.289 80.7116 123.088 80.7116C123.887 80.7116 124.579 80.8874 125.165 81.239C125.751 81.5906 126.204 82.0842 126.524 82.7198C126.847 83.3555 127.008 84.0959 127.008 84.9411C127.008 85.7862 126.847 86.5249 126.524 87.157C126.204 87.7891 125.751 88.2809 125.165 88.6325C124.579 88.984 123.887 89.1598 123.088 89.1598ZM123.099 87.6151C123.532 87.6151 123.894 87.4961 124.185 87.2582C124.476 87.0167 124.693 86.6935 124.835 86.2887C124.981 85.8839 125.054 85.4329 125.054 84.9357C125.054 84.435 124.981 83.9822 124.835 83.5774C124.693 83.169 124.476 82.8441 124.185 82.6026C123.894 82.3612 123.532 82.2404 123.099 82.2404C122.655 82.2404 122.285 82.3612 121.991 82.6026C121.699 82.8441 121.481 83.169 121.335 83.5774C121.193 83.9822 121.122 84.435 121.122 84.9357C121.122 85.4329 121.193 85.8839 121.335 86.2887C121.481 86.6935 121.699 87.0167 121.991 87.2582C122.285 87.4961 122.655 87.6151 123.099 87.6151ZM133.86 85.5589V80.8182H135.788V89H133.919V87.5458H133.833C133.649 88.0039 133.345 88.3786 132.922 88.6697C132.503 88.9609 131.987 89.1065 131.372 89.1065C130.836 89.1065 130.362 88.9876 129.95 88.7496C129.542 88.5082 129.222 88.1584 128.991 87.7003C128.76 87.2386 128.645 86.6811 128.645 86.0277V80.8182H130.573V85.7294C130.573 86.2479 130.715 86.6598 130.999 86.9652C131.284 87.2706 131.656 87.4233 132.118 87.4233C132.402 87.4233 132.677 87.354 132.944 87.2156C133.21 87.0771 133.428 86.8711 133.599 86.5977C133.773 86.3207 133.86 85.9744 133.86 85.5589ZM27.1793 107L24.8675 98.8182H26.8331L28.2713 104.571H28.3459L29.8161 98.8182H31.7603L33.2305 104.539H33.3104L34.7273 98.8182H36.6982L34.381 107H32.3729L30.8388 101.471H30.7269L29.1928 107H27.1793ZM38.0445 107V98.8182H39.9727V107H38.0445ZM39.0139 97.657C38.7085 97.657 38.4458 97.5558 38.2256 97.3533C38.0054 97.1474 37.8953 96.9006 37.8953 96.6129C37.8953 96.3217 38.0054 96.0749 38.2256 95.8725C38.4458 95.6665 38.7085 95.5636 39.0139 95.5636C39.3229 95.5636 39.5857 95.6665 39.8023 95.8725C40.0225 96.0749 40.1325 96.3217 40.1325 96.6129C40.1325 96.9006 40.0225 97.1474 39.8023 97.3533C39.5857 97.5558 39.3229 97.657 39.0139 97.657ZM43.8839 96.0909V107H41.9556V96.0909H43.8839ZM47.795 96.0909V107H45.8667V96.0909H47.795ZM55.853 107.165C55.3345 107.165 54.8675 107.073 54.4521 106.888C54.0401 106.7 53.7134 106.423 53.4719 106.057C53.234 105.691 53.1151 105.24 53.1151 104.704C53.1151 104.243 53.2003 103.861 53.3707 103.559C53.5412 103.257 53.7738 103.016 54.0685 102.835C54.3633 102.653 54.6953 102.517 55.0646 102.424C55.4375 102.328 55.8228 102.259 56.2205 102.217C56.6999 102.167 57.0888 102.123 57.3871 102.083C57.6854 102.041 57.902 101.977 58.0369 101.892C58.1754 101.803 58.2447 101.666 58.2447 101.482V101.45C58.2447 101.048 58.1257 100.738 57.8878 100.517C57.6499 100.297 57.3072 100.187 56.8597 100.187C56.3874 100.187 56.0128 100.29 55.7358 100.496C55.4624 100.702 55.2777 100.945 55.1818 101.226L53.3814 100.97C53.5234 100.473 53.7578 100.058 54.0845 99.7237C54.4112 99.3864 54.8107 99.1342 55.283 98.9673C55.7553 98.7969 56.2773 98.7116 56.8491 98.7116C57.2433 98.7116 57.6357 98.7578 58.0263 98.8501C58.4169 98.9425 58.7738 99.0952 59.0969 99.3082C59.4201 99.5178 59.6793 99.8036 59.8746 100.166C60.0735 100.528 60.1729 100.981 60.1729 101.524V107H58.3192V105.876H58.2553C58.1381 106.103 57.973 106.316 57.7599 106.515C57.5504 106.711 57.2859 106.869 56.9663 106.989C56.6502 107.107 56.2791 107.165 55.853 107.165ZM56.3537 105.748C56.7408 105.748 57.0763 105.672 57.3604 105.519C57.6445 105.363 57.8629 105.157 58.0156 104.901C58.1719 104.646 58.25 104.367 58.25 104.065V103.101C58.1896 103.151 58.0866 103.197 57.9411 103.239C57.799 103.282 57.6392 103.319 57.4616 103.351C57.2841 103.383 57.1083 103.412 56.9343 103.436C56.7603 103.461 56.6094 103.483 56.4815 103.5C56.1939 103.539 55.9364 103.603 55.7092 103.692C55.4819 103.781 55.3026 103.905 55.1712 104.065C55.0398 104.221 54.9741 104.424 54.9741 104.672C54.9741 105.027 55.1037 105.295 55.3629 105.477C55.6222 105.658 55.9524 105.748 56.3537 105.748ZM64.0401 96.0909V107H62.1119V96.0909H64.0401ZM72.4896 100.981L70.7318 101.173C70.6821 100.995 70.5951 100.828 70.4708 100.672C70.3501 100.516 70.1867 100.39 69.9807 100.294C69.7748 100.198 69.5226 100.15 69.2243 100.15C68.8231 100.15 68.4857 100.237 68.2123 100.411C67.9424 100.585 67.8092 100.81 67.8128 101.087C67.8092 101.325 67.8962 101.519 68.0738 101.668C68.2549 101.817 68.5532 101.94 68.9687 102.036L70.3643 102.334C71.1384 102.501 71.7137 102.765 72.0901 103.127C72.4701 103.49 72.6618 103.964 72.6654 104.55C72.6618 105.065 72.5109 105.519 72.2126 105.913C71.9179 106.304 71.5077 106.609 70.9822 106.83C70.4566 107.05 69.8529 107.16 69.1711 107.16C68.1697 107.16 67.3635 106.95 66.7528 106.531C66.142 106.109 65.778 105.521 65.6608 104.768L67.5411 104.587C67.6263 104.956 67.8074 105.235 68.0844 105.423C68.3614 105.612 68.7219 105.706 69.1657 105.706C69.6238 105.706 69.9914 105.612 70.2684 105.423C70.5489 105.235 70.6892 105.002 70.6892 104.725C70.6892 104.491 70.5986 104.298 70.4175 104.145C70.24 103.992 69.963 103.875 69.5866 103.793L68.191 103.5C67.4062 103.337 66.8256 103.062 66.4491 102.675C66.0727 102.284 65.8863 101.79 65.8898 101.194C65.8863 100.69 66.023 100.253 66.3 99.8835C66.5805 99.5107 66.9694 99.223 67.4665 99.0206C67.9672 98.8146 68.5443 98.7116 69.1977 98.7116C70.1565 98.7116 70.9111 98.9158 71.4616 99.3242C72.0155 99.7326 72.3582 100.285 72.4896 100.981ZM77.8243 107.16C77.0253 107.16 76.3328 106.984 75.7469 106.632C75.161 106.281 74.7064 105.789 74.3833 105.157C74.0637 104.525 73.9039 103.786 73.9039 102.941C73.9039 102.096 74.0637 101.355 74.3833 100.72C74.7064 100.084 75.161 99.5906 75.7469 99.239C76.3328 98.8874 77.0253 98.7116 77.8243 98.7116C78.6233 98.7116 79.3158 98.8874 79.9017 99.239C80.4877 99.5906 80.9404 100.084 81.26 100.72C81.5832 101.355 81.7448 102.096 81.7448 102.941C81.7448 103.786 81.5832 104.525 81.26 105.157C80.9404 105.789 80.4877 106.281 79.9017 106.632C79.3158 106.984 78.6233 107.16 77.8243 107.16ZM77.835 105.615C78.2682 105.615 78.6304 105.496 78.9216 105.258C79.2128 105.017 79.4294 104.694 79.5715 104.289C79.7171 103.884 79.7899 103.433 79.7899 102.936C79.7899 102.435 79.7171 101.982 79.5715 101.577C79.4294 101.169 79.2128 100.844 78.9216 100.603C78.6304 100.361 78.2682 100.24 77.835 100.24C77.3911 100.24 77.0218 100.361 76.727 100.603C76.4358 100.844 76.2174 101.169 76.0718 101.577C75.9298 101.982 75.8588 102.435 75.8588 102.936C75.8588 103.433 75.9298 103.884 76.0718 104.289C76.2174 104.694 76.4358 105.017 76.727 105.258C77.0218 105.496 77.3911 105.615 77.835 105.615ZM89.0304 96.0909V107H87.1021V96.0909H89.0304ZM94.5821 107.16C93.7831 107.16 93.0906 106.984 92.5047 106.632C91.9188 106.281 91.4642 105.789 91.1411 105.157C90.8215 104.525 90.6617 103.786 90.6617 102.941C90.6617 102.096 90.8215 101.355 91.1411 100.72C91.4642 100.084 91.9188 99.5906 92.5047 99.239C93.0906 98.8874 93.7831 98.7116 94.5821 98.7116C95.3811 98.7116 96.0736 98.8874 96.6595 99.239C97.2455 99.5906 97.6982 100.084 98.0178 100.72C98.341 101.355 98.5026 102.096 98.5026 102.941C98.5026 103.786 98.341 104.525 98.0178 105.157C97.6982 105.789 97.2455 106.281 96.6595 106.632C96.0736 106.984 95.3811 107.16 94.5821 107.16ZM94.5928 105.615C95.026 105.615 95.3882 105.496 95.6794 105.258C95.9706 105.017 96.1872 104.694 96.3293 104.289C96.4749 103.884 96.5477 103.433 96.5477 102.936C96.5477 102.435 96.4749 101.982 96.3293 101.577C96.1872 101.169 95.9706 100.844 95.6794 100.603C95.3882 100.361 95.026 100.24 94.5928 100.24C94.1489 100.24 93.7796 100.361 93.4848 100.603C93.1936 100.844 92.9752 101.169 92.8296 101.577C92.6876 101.982 92.6166 102.435 92.6166 102.936C92.6166 103.433 92.6876 103.884 92.8296 104.289C92.9752 104.694 93.1936 105.017 93.4848 105.258C93.7796 105.496 94.1489 105.615 94.5928 105.615ZM106.606 100.981L104.848 101.173C104.798 100.995 104.711 100.828 104.587 100.672C104.466 100.516 104.303 100.39 104.097 100.294C103.891 100.198 103.639 100.15 103.341 100.15C102.939 100.15 102.602 100.237 102.328 100.411C102.059 100.585 101.925 100.81 101.929 101.087C101.925 101.325 102.012 101.519 102.19 101.668C102.371 101.817 102.669 101.94 103.085 102.036L104.48 102.334C105.255 102.501 105.83 102.765 106.206 103.127C106.586 103.49 106.778 103.964 106.782 104.55C106.778 105.065 106.627 105.519 106.329 105.913C106.034 106.304 105.624 106.609 105.098 106.83C104.573 107.05 103.969 107.16 103.287 107.16C102.286 107.16 101.48 106.95 100.869 106.531C100.258 106.109 99.8942 105.521 99.777 104.768L101.657 104.587C101.743 104.956 101.924 105.235 102.201 105.423C102.478 105.612 102.838 105.706 103.282 105.706C103.74 105.706 104.108 105.612 104.385 105.423C104.665 105.235 104.805 105.002 104.805 104.725C104.805 104.491 104.715 104.298 104.534 104.145C104.356 103.992 104.079 103.875 103.703 103.793L102.307 103.5C101.522 103.337 100.942 103.062 100.565 102.675C100.189 102.284 100.002 101.79 100.006 101.194C100.002 100.69 100.139 100.253 100.416 99.8835C100.697 99.5107 101.086 99.223 101.583 99.0206C102.083 98.8146 102.661 98.7116 103.314 98.7116C104.273 98.7116 105.027 98.9158 105.578 99.3242C106.132 99.7326 106.474 100.285 106.606 100.981ZM111.994 107.16C111.173 107.16 110.465 106.989 109.868 106.648C109.275 106.304 108.819 105.817 108.499 105.189C108.18 104.557 108.02 103.813 108.02 102.957C108.02 102.115 108.18 101.377 108.499 100.741C108.823 100.102 109.274 99.6048 109.852 99.2496C110.431 98.891 111.111 98.7116 111.893 98.7116C112.397 98.7116 112.873 98.7933 113.32 98.9567C113.771 99.1165 114.169 99.3651 114.513 99.7024C114.861 100.04 115.135 100.469 115.334 100.991C115.532 101.51 115.632 102.128 115.632 102.845V103.436H108.926V102.137H113.784C113.78 101.767 113.7 101.439 113.544 101.151C113.388 100.86 113.169 100.631 112.889 100.464C112.612 100.297 112.289 100.214 111.919 100.214C111.525 100.214 111.179 100.31 110.881 100.501C110.582 100.69 110.35 100.938 110.183 101.247C110.019 101.553 109.936 101.888 109.932 102.254V103.388C109.932 103.864 110.019 104.273 110.193 104.614C110.367 104.951 110.611 105.21 110.923 105.391C111.236 105.569 111.601 105.658 112.02 105.658C112.301 105.658 112.555 105.619 112.782 105.54C113.009 105.459 113.206 105.34 113.373 105.184C113.54 105.027 113.666 104.834 113.752 104.603L115.552 104.805C115.438 105.281 115.222 105.697 114.902 106.052C114.586 106.403 114.181 106.677 113.688 106.872C113.194 107.064 112.629 107.16 111.994 107.16ZM118.451 107.117C118.128 107.117 117.851 107.004 117.62 106.776C117.389 106.549 117.276 106.272 117.279 105.945C117.276 105.626 117.389 105.352 117.62 105.125C117.851 104.898 118.128 104.784 118.451 104.784C118.764 104.784 119.035 104.898 119.266 105.125C119.5 105.352 119.619 105.626 119.623 105.945C119.619 106.162 119.563 106.359 119.453 106.537C119.346 106.714 119.204 106.856 119.026 106.963C118.852 107.066 118.661 107.117 118.451 107.117Z" fill="white"/>
<path d="M36 163C42.4 144.2 34 133.833 29 131L44 131C50.4 145.8 41.3333 158.5 36 163Z" fill="black"/>
</svg>
