<svg width="187" height="181" viewBox="0 0 187 181" fill="none" xmlns="http://www.w3.org/2000/svg">
<rect x="0.5" width="186" height="149" rx="10.8054" fill="black"/>
<path d="M26.9769 35H24.8675L28.7081 24.0909H31.1477L34.9936 35H32.8842L29.9705 26.3281H29.8853L26.9769 35ZM27.0462 30.7227H32.799V32.31H27.0462V30.7227ZM40.3869 26.8182V28.3097H35.5502V26.8182H40.3869ZM36.7594 35V26.0458C36.7594 25.4954 36.873 25.0373 37.1003 24.6715C37.3311 24.3058 37.6401 24.0323 38.0272 23.8512C38.4142 23.6701 38.8439 23.5795 39.3162 23.5795C39.65 23.5795 39.9466 23.6062 40.2058 23.6594C40.465 23.7127 40.6568 23.7607 40.7811 23.8033L40.3975 25.2947C40.3159 25.2699 40.2129 25.245 40.0886 25.2202C39.9643 25.1918 39.8258 25.1776 39.6731 25.1776C39.3145 25.1776 39.0605 25.2646 38.9114 25.4386C38.7658 25.609 38.693 25.854 38.693 26.1737V35H36.7594ZM45.9826 26.8182V28.3097H41.2791V26.8182H45.9826ZM42.4403 24.858H44.3686V32.5391C44.3686 32.7983 44.4077 32.9972 44.4858 33.1357C44.5675 33.2706 44.674 33.3629 44.8054 33.4126C44.9368 33.4624 45.0824 33.4872 45.2422 33.4872C45.3629 33.4872 45.473 33.4783 45.5724 33.4606C45.6754 33.4428 45.7536 33.4268 45.8068 33.4126L46.1317 34.9201C46.0288 34.9556 45.8814 34.9947 45.6896 35.0373C45.5014 35.0799 45.2706 35.1048 44.9972 35.1119C44.5142 35.1261 44.0792 35.0533 43.6921 34.8935C43.305 34.7301 42.9979 34.478 42.7706 34.1371C42.5469 33.7962 42.4368 33.37 42.4403 32.8587V24.858ZM51.1295 35.1598C50.3092 35.1598 49.6008 34.9893 49.0042 34.6484C48.4111 34.304 47.9548 33.8175 47.6352 33.1889C47.3156 32.5568 47.1558 31.8129 47.1558 30.957C47.1558 30.1154 47.3156 29.3768 47.6352 28.7411C47.9584 28.1019 48.4094 27.6048 48.9882 27.2496C49.567 26.891 50.2471 26.7116 51.0283 26.7116C51.5326 26.7116 52.0084 26.7933 52.4559 26.9567C52.9069 27.1165 53.3046 27.3651 53.6491 27.7024C53.9971 28.0398 54.2705 28.4695 54.4694 28.9915C54.6682 29.5099 54.7677 30.1278 54.7677 30.8452V31.4364H48.0613V30.1367H52.9193C52.9157 29.7674 52.8358 29.4389 52.6796 29.1513C52.5233 28.8601 52.305 28.631 52.0244 28.4641C51.7474 28.2972 51.4243 28.2138 51.055 28.2138C50.6608 28.2138 50.3145 28.3097 50.0162 28.5014C49.718 28.6896 49.4854 28.9382 49.3184 29.2472C49.1551 29.5526 49.0716 29.8881 49.0681 30.2539V31.3885C49.0681 31.8643 49.1551 32.2727 49.3291 32.6136C49.5031 32.951 49.7464 33.2102 50.0589 33.3913C50.3714 33.5689 50.7371 33.6577 51.1562 33.6577C51.4367 33.6577 51.6906 33.6186 51.9179 33.5405C52.1452 33.4588 52.3422 33.3398 52.5091 33.1836C52.676 33.0273 52.8021 32.8338 52.8873 32.603L54.6878 32.8054C54.5741 33.2812 54.3575 33.6967 54.0379 34.0518C53.7219 34.4034 53.317 34.6768 52.8234 34.8722C52.3298 35.0639 51.7652 35.1598 51.1295 35.1598ZM56.399 35V26.8182H58.2686V28.1818H58.3539C58.503 27.7095 58.7587 27.3455 59.1209 27.0898C59.4867 26.8306 59.9039 26.701 60.3727 26.701C60.4792 26.701 60.5982 26.7063 60.7296 26.717C60.8645 26.7241 60.9764 26.7365 61.0652 26.7543V28.5281C60.9835 28.4996 60.8539 28.4748 60.6763 28.4535C60.5023 28.4286 60.3336 28.4162 60.1703 28.4162C59.8187 28.4162 59.5027 28.4925 59.2221 28.6452C58.9451 28.7944 58.7267 29.0021 58.5669 29.2685C58.4071 29.5348 58.3272 29.842 58.3272 30.19V35H56.399ZM68.4213 35.1651C67.9029 35.1651 67.4359 35.0728 67.0204 34.8881C66.6085 34.6999 66.2818 34.4229 66.0403 34.0572C65.8024 33.6914 65.6834 33.2404 65.6834 32.7042C65.6834 32.2425 65.7686 31.8608 65.9391 31.5589C66.1096 31.2571 66.3422 31.0156 66.6369 30.8345C66.9316 30.6534 67.2637 30.5167 67.633 30.4244C68.0059 30.3285 68.3912 30.2592 68.7889 30.2166C69.2683 30.1669 69.6571 30.1225 69.9554 30.0835C70.2537 30.0408 70.4703 29.9769 70.6053 29.8917C70.7438 29.8029 70.813 29.6662 70.813 29.4815V29.4496C70.813 29.0483 70.6941 28.7376 70.4561 28.5174C70.2182 28.2972 69.8755 28.1871 69.4281 28.1871C68.9558 28.1871 68.5811 28.2901 68.3042 28.4961C68.0307 28.7021 67.8461 28.9453 67.7502 29.2259L65.9498 28.9702C66.0918 28.473 66.3262 28.0575 66.6529 27.7237C66.9796 27.3864 67.3791 27.1342 67.8514 26.9673C68.3237 26.7969 68.8457 26.7116 69.4174 26.7116C69.8116 26.7116 70.204 26.7578 70.5946 26.8501C70.9853 26.9425 71.3422 27.0952 71.6653 27.3082C71.9885 27.5178 72.2477 27.8036 72.443 28.1658C72.6419 28.5281 72.7413 28.9808 72.7413 29.5241V35H70.8876V33.8761H70.8237C70.7065 34.1033 70.5414 34.3164 70.3283 34.5153C70.1188 34.7106 69.8542 34.8686 69.5346 34.9893C69.2186 35.1065 68.8475 35.1651 68.4213 35.1651ZM68.9221 33.7482C69.3091 33.7482 69.6447 33.6719 69.9288 33.5192C70.2129 33.3629 70.4313 33.157 70.584 32.9013C70.7402 32.6456 70.8184 32.3668 70.8184 32.065V31.1009C70.758 31.1506 70.655 31.1967 70.5094 31.2393C70.3674 31.282 70.2076 31.3192 70.03 31.3512C69.8525 31.3832 69.6767 31.4116 69.5027 31.4364C69.3287 31.4613 69.1777 31.4826 69.0499 31.5004C68.7623 31.5394 68.5048 31.6033 68.2775 31.6921C68.0502 31.7809 67.8709 31.9052 67.7395 32.065C67.6081 32.2212 67.5424 32.4237 67.5424 32.6722C67.5424 33.0273 67.6721 33.2955 67.9313 33.4766C68.1905 33.6577 68.5208 33.7482 68.9221 33.7482ZM84.8675 28.9808L83.1097 29.1726C83.06 28.995 82.973 28.8281 82.8487 28.6719C82.728 28.5156 82.5646 28.3896 82.3587 28.2937C82.1527 28.1978 81.9006 28.1499 81.6023 28.1499C81.201 28.1499 80.8636 28.2369 80.5902 28.4109C80.3203 28.5849 80.1871 28.8104 80.1907 29.0874C80.1871 29.3253 80.2741 29.5188 80.4517 29.668C80.6328 29.8171 80.9311 29.9396 81.3466 30.0355L82.7422 30.3338C83.5163 30.5007 84.0916 30.7653 84.468 31.1275C84.848 31.4897 85.0398 31.9638 85.0433 32.5497C85.0398 33.0646 84.8888 33.5192 84.5906 33.9134C84.2958 34.304 83.8857 34.6094 83.3601 34.8295C82.8345 35.0497 82.2308 35.1598 81.549 35.1598C80.5476 35.1598 79.7415 34.9503 79.1307 34.5312C78.5199 34.1087 78.1559 33.521 78.0387 32.7681L79.919 32.587C80.0043 32.9563 80.1854 33.2351 80.4624 33.4233C80.7393 33.6115 81.0998 33.7056 81.5437 33.7056C82.0018 33.7056 82.3693 33.6115 82.6463 33.4233C82.9268 33.2351 83.0671 33.0025 83.0671 32.7255C83.0671 32.4911 82.9766 32.2976 82.7955 32.1449C82.6179 31.9922 82.3409 31.875 81.9645 31.7933L80.5689 31.5004C79.7841 31.337 79.2035 31.0618 78.8271 30.6747C78.4506 30.2841 78.2642 29.7905 78.2678 29.1939C78.2642 28.6896 78.4009 28.2528 78.6779 27.8835C78.9585 27.5107 79.3473 27.223 79.8445 27.0206C80.3452 26.8146 80.9222 26.7116 81.5756 26.7116C82.5344 26.7116 83.2891 26.9158 83.8395 27.3242C84.3935 27.7326 84.7362 28.2848 84.8675 28.9808ZM91.8482 31.5589V26.8182H93.7765V35H91.9068V33.5458H91.8216C91.6369 34.0039 91.3333 34.3786 90.9107 34.6697C90.4917 34.9609 89.975 35.1065 89.3606 35.1065C88.8244 35.1065 88.3503 34.9876 87.9384 34.7496C87.53 34.5082 87.2104 34.1584 86.9796 33.7003C86.7488 33.2386 86.6333 32.6811 86.6333 32.0277V26.8182H88.5616V31.7294C88.5616 32.2479 88.7037 32.6598 88.9877 32.9652C89.2718 33.2706 89.6447 33.4233 90.1064 33.4233C90.3904 33.4233 90.6657 33.354 90.932 33.2156C91.1983 33.0771 91.4167 32.8711 91.5872 32.5977C91.7612 32.3207 91.8482 31.9744 91.8482 31.5589ZM99.3282 35.1598C98.5115 35.1598 97.8101 34.9805 97.2242 34.6218C96.6418 34.2631 96.1926 33.7678 95.8765 33.1357C95.564 32.5 95.4078 31.7685 95.4078 30.9411C95.4078 30.1101 95.5676 29.3768 95.8872 28.7411C96.2068 28.1019 96.6578 27.6048 97.2401 27.2496C97.8261 26.891 98.5186 26.7116 99.3176 26.7116C99.9816 26.7116 100.569 26.8342 101.081 27.0792C101.596 27.3207 102.006 27.6634 102.311 28.1072C102.617 28.5476 102.791 29.0625 102.833 29.652H100.99C100.916 29.2578 100.738 28.9293 100.457 28.6665C100.18 28.4002 99.8094 28.267 99.3442 28.267C98.95 28.267 98.6038 28.3736 98.3055 28.5866C98.0072 28.7962 97.7746 29.098 97.6077 29.4922C97.4443 29.8864 97.3627 30.3587 97.3627 30.9091C97.3627 31.4666 97.4443 31.946 97.6077 32.3473C97.771 32.745 98.0001 33.0522 98.2948 33.2688C98.5931 33.4819 98.9429 33.5884 99.3442 33.5884C99.6283 33.5884 99.8822 33.5352 100.106 33.4286C100.333 33.3185 100.523 33.1605 100.676 32.9545C100.829 32.7486 100.933 32.4982 100.99 32.2035H102.833C102.787 32.7823 102.617 33.2955 102.322 33.7429C102.027 34.1868 101.626 34.5348 101.118 34.7869C100.61 35.0355 100.014 35.1598 99.3282 35.1598ZM107.985 35.1598C107.169 35.1598 106.467 34.9805 105.881 34.6218C105.299 34.2631 104.85 33.7678 104.534 33.1357C104.221 32.5 104.065 31.7685 104.065 30.9411C104.065 30.1101 104.225 29.3768 104.544 28.7411C104.864 28.1019 105.315 27.6048 105.897 27.2496C106.483 26.891 107.176 26.7116 107.975 26.7116C108.639 26.7116 109.227 26.8342 109.738 27.0792C110.253 27.3207 110.663 27.6634 110.968 28.1072C111.274 28.5476 111.448 29.0625 111.49 29.652H109.647C109.573 29.2578 109.395 28.9293 109.115 28.6665C108.838 28.4002 108.467 28.267 108.001 28.267C107.607 28.267 107.261 28.3736 106.963 28.5866C106.664 28.7962 106.432 29.098 106.265 29.4922C106.102 29.8864 106.02 30.3587 106.02 30.9091C106.02 31.4666 106.102 31.946 106.265 32.3473C106.428 32.745 106.657 33.0522 106.952 33.2688C107.25 33.4819 107.6 33.5884 108.001 33.5884C108.286 33.5884 108.539 33.5352 108.763 33.4286C108.99 33.3185 109.18 33.1605 109.333 32.9545C109.486 32.7486 109.591 32.4982 109.647 32.2035H111.49C111.444 32.7823 111.274 33.2955 110.979 33.7429C110.684 34.1868 110.283 34.5348 109.775 34.7869C109.267 35.0355 108.671 35.1598 107.985 35.1598ZM116.696 35.1598C115.876 35.1598 115.167 34.9893 114.571 34.6484C113.978 34.304 113.521 33.8175 113.202 33.1889C112.882 32.5568 112.722 31.8129 112.722 30.957C112.722 30.1154 112.882 29.3768 113.202 28.7411C113.525 28.1019 113.976 27.6048 114.555 27.2496C115.133 26.891 115.813 26.7116 116.595 26.7116C117.099 26.7116 117.575 26.7933 118.022 26.9567C118.473 27.1165 118.871 27.3651 119.215 27.7024C119.563 28.0398 119.837 28.4695 120.036 28.9915C120.235 29.5099 120.334 30.1278 120.334 30.8452V31.4364H113.628V30.1367H118.486C118.482 29.7674 118.402 29.4389 118.246 29.1513C118.09 28.8601 117.871 28.631 117.591 28.4641C117.314 28.2972 116.991 28.2138 116.621 28.2138C116.227 28.2138 115.881 28.3097 115.583 28.5014C115.284 28.6896 115.052 28.9382 114.885 29.2472C114.722 29.5526 114.638 29.8881 114.634 30.2539V31.3885C114.634 31.8643 114.722 32.2727 114.896 32.6136C115.07 32.951 115.313 33.2102 115.625 33.3913C115.938 33.5689 116.304 33.6577 116.723 33.6577C117.003 33.6577 117.257 33.6186 117.484 33.5405C117.712 33.4588 117.909 33.3398 118.076 33.1836C118.242 33.0273 118.369 32.8338 118.454 32.603L120.254 32.8054C120.141 33.2812 119.924 33.6967 119.604 34.0518C119.288 34.4034 118.883 34.6768 118.39 34.8722C117.896 35.0639 117.332 35.1598 116.696 35.1598ZM128.432 28.9808L126.674 29.1726C126.624 28.995 126.537 28.8281 126.413 28.6719C126.292 28.5156 126.129 28.3896 125.923 28.2937C125.717 28.1978 125.465 28.1499 125.167 28.1499C124.765 28.1499 124.428 28.2369 124.155 28.4109C123.885 28.5849 123.752 28.8104 123.755 29.0874C123.752 29.3253 123.839 29.5188 124.016 29.668C124.197 29.8171 124.496 29.9396 124.911 30.0355L126.307 30.3338C127.081 30.5007 127.656 30.7653 128.032 31.1275C128.412 31.4897 128.604 31.9638 128.608 32.5497C128.604 33.0646 128.453 33.5192 128.155 33.9134C127.86 34.304 127.45 34.6094 126.925 34.8295C126.399 35.0497 125.795 35.1598 125.113 35.1598C124.112 35.1598 123.306 34.9503 122.695 34.5312C122.084 34.1087 121.72 33.521 121.603 32.7681L123.483 32.587C123.569 32.9563 123.75 33.2351 124.027 33.4233C124.304 33.6115 124.664 33.7056 125.108 33.7056C125.566 33.7056 125.934 33.6115 126.211 33.4233C126.491 33.2351 126.632 33.0025 126.632 32.7255C126.632 32.4911 126.541 32.2976 126.36 32.1449C126.182 31.9922 125.905 31.875 125.529 31.7933L124.133 31.5004C123.349 31.337 122.768 31.0618 122.392 30.6747C122.015 30.2841 121.829 29.7905 121.832 29.1939C121.829 28.6896 121.965 28.2528 122.242 27.8835C122.523 27.5107 122.912 27.223 123.409 27.0206C123.91 26.8146 124.487 26.7116 125.14 26.7116C126.099 26.7116 126.854 26.9158 127.404 27.3242C127.958 27.7326 128.301 28.2848 128.432 28.9808ZM136.664 28.9808L134.907 29.1726C134.857 28.995 134.77 28.8281 134.646 28.6719C134.525 28.5156 134.362 28.3896 134.156 28.2937C133.95 28.1978 133.697 28.1499 133.399 28.1499C132.998 28.1499 132.661 28.2369 132.387 28.4109C132.117 28.5849 131.984 28.8104 131.988 29.0874C131.984 29.3253 132.071 29.5188 132.249 29.668C132.43 29.8171 132.728 29.9396 133.143 30.0355L134.539 30.3338C135.313 30.5007 135.888 30.7653 136.265 31.1275C136.645 31.4897 136.837 31.9638 136.84 32.5497C136.837 33.0646 136.686 33.5192 136.387 33.9134C136.093 34.304 135.683 34.6094 135.157 34.8295C134.631 35.0497 134.028 35.1598 133.346 35.1598C132.344 35.1598 131.538 34.9503 130.928 34.5312C130.317 34.1087 129.953 33.521 129.836 32.7681L131.716 32.587C131.801 32.9563 131.982 33.2351 132.259 33.4233C132.536 33.6115 132.897 33.7056 133.341 33.7056C133.799 33.7056 134.166 33.6115 134.443 33.4233C134.724 33.2351 134.864 33.0025 134.864 32.7255C134.864 32.4911 134.773 32.2976 134.592 32.1449C134.415 31.9922 134.138 31.875 133.761 31.7933L132.366 31.5004C131.581 31.337 131 31.0618 130.624 30.6747C130.248 30.2841 130.061 29.7905 130.065 29.1939C130.061 28.6896 130.198 28.2528 130.475 27.8835C130.755 27.5107 131.144 27.223 131.641 27.0206C132.142 26.8146 132.719 26.7116 133.373 26.7116C134.331 26.7116 135.086 26.9158 135.636 27.3242C136.19 27.7326 136.533 28.2848 136.664 28.9808ZM142.574 26.8182V28.3097H137.738V26.8182H142.574ZM138.947 35V26.0458C138.947 25.4954 139.061 25.0373 139.288 24.6715C139.519 24.3058 139.828 24.0323 140.215 23.8512C140.602 23.6701 141.031 23.5795 141.504 23.5795C141.838 23.5795 142.134 23.6062 142.393 23.6594C142.653 23.7127 142.844 23.7607 142.969 23.8033L142.585 25.2947C142.503 25.2699 142.4 25.245 142.276 25.2202C142.152 25.1918 142.013 25.1776 141.861 25.1776C141.502 25.1776 141.248 25.2646 141.099 25.4386C140.953 25.609 140.881 25.854 140.881 26.1737V35H138.947ZM149.299 31.5589V26.8182H151.228V35H149.358V33.5458H149.273C149.088 34.0039 148.784 34.3786 148.362 34.6697C147.943 34.9609 147.426 35.1065 146.812 35.1065C146.276 35.1065 145.801 34.9876 145.39 34.7496C144.981 34.5082 144.662 34.1584 144.431 33.7003C144.2 33.2386 144.085 32.6811 144.085 32.0277V26.8182H146.013V31.7294C146.013 32.2479 146.155 32.6598 146.439 32.9652C146.723 33.2706 147.096 33.4233 147.558 33.4233C147.842 33.4233 148.117 33.354 148.383 33.2156C148.65 33.0771 148.868 32.8711 149.038 32.5977C149.212 32.3207 149.299 31.9744 149.299 31.5589ZM155.139 24.0909V35H153.21V24.0909H155.139ZM27.8452 53.1651C27.3267 53.1651 26.8597 53.0728 26.4442 52.8881C26.0323 52.6999 25.7056 52.4229 25.4641 52.0572C25.2262 51.6914 25.1072 51.2404 25.1072 50.7042C25.1072 50.2425 25.1925 49.8608 25.3629 49.5589C25.5334 49.2571 25.766 49.0156 26.0607 48.8345C26.3555 48.6534 26.6875 48.5167 27.0568 48.4244C27.4297 48.3285 27.815 48.2592 28.2127 48.2166C28.6921 48.1669 29.081 48.1225 29.3793 48.0835C29.6776 48.0408 29.8942 47.9769 30.0291 47.8917C30.1676 47.8029 30.2369 47.6662 30.2369 47.4815V47.4496C30.2369 47.0483 30.1179 46.7376 29.88 46.5174C29.642 46.2972 29.2994 46.1871 28.8519 46.1871C28.3796 46.1871 28.005 46.2901 27.728 46.4961C27.4545 46.7021 27.2699 46.9453 27.174 47.2259L25.3736 46.9702C25.5156 46.473 25.75 46.0575 26.0767 45.7237C26.4034 45.3864 26.8029 45.1342 27.2752 44.9673C27.7475 44.7969 28.2695 44.7116 28.8413 44.7116C29.2354 44.7116 29.6278 44.7578 30.0185 44.8501C30.4091 44.9425 30.766 45.0952 31.0891 45.3082C31.4123 45.5178 31.6715 45.8036 31.8668 46.1658C32.0657 46.5281 32.1651 46.9808 32.1651 47.5241V53H30.3114V51.8761H30.2475C30.1303 52.1033 29.9652 52.3164 29.7521 52.5153C29.5426 52.7106 29.2781 52.8686 28.9585 52.9893C28.6424 53.1065 28.2713 53.1651 27.8452 53.1651ZM28.3459 51.7482C28.733 51.7482 29.0685 51.6719 29.3526 51.5192C29.6367 51.3629 29.8551 51.157 30.0078 50.9013C30.1641 50.6456 30.2422 50.3668 30.2422 50.065V49.1009C30.1818 49.1506 30.0788 49.1967 29.9332 49.2393C29.7912 49.282 29.6314 49.3192 29.4538 49.3512C29.2763 49.3832 29.1005 49.4116 28.9265 49.4364C28.7525 49.4613 28.6016 49.4826 28.4737 49.5004C28.1861 49.5394 27.9286 49.6033 27.7013 49.6921C27.4741 49.7809 27.2947 49.9052 27.1634 50.065C27.032 50.2212 26.9663 50.4237 26.9663 50.6722C26.9663 51.0273 27.0959 51.2955 27.3551 51.4766C27.6143 51.6577 27.9446 51.7482 28.3459 51.7482ZM36.0323 48.206V53H34.104V44.8182H35.9471V46.2085H36.043C36.2312 45.7504 36.5313 45.3864 36.9432 45.1165C37.3587 44.8466 37.8718 44.7116 38.4826 44.7116C39.0472 44.7116 39.5391 44.8324 39.9581 45.0739C40.3807 45.3153 40.7074 45.6651 40.9382 46.1232C41.1726 46.5813 41.288 47.1371 41.2844 47.7905V53H39.3562V48.0888C39.3562 47.5419 39.2141 47.114 38.93 46.805C38.6495 46.4961 38.2607 46.3416 37.7635 46.3416C37.4261 46.3416 37.1261 46.4162 36.8633 46.5653C36.604 46.7109 36.3999 46.9222 36.2507 47.1992C36.1051 47.4762 36.0323 47.8118 36.0323 48.206ZM49.7113 46.9808L47.9535 47.1726C47.9038 46.995 47.8168 46.8281 47.6925 46.6719C47.5717 46.5156 47.4084 46.3896 47.2024 46.2937C46.9964 46.1978 46.7443 46.1499 46.446 46.1499C46.0447 46.1499 45.7074 46.2369 45.4339 46.4109C45.1641 46.5849 45.0309 46.8104 45.0344 47.0874C45.0309 47.3253 45.1179 47.5188 45.2955 47.668C45.4766 47.8171 45.7749 47.9396 46.1903 48.0355L47.5859 48.3338C48.3601 48.5007 48.9354 48.7653 49.3118 49.1275C49.6918 49.4897 49.8835 49.9638 49.8871 50.5497C49.8835 51.0646 49.7326 51.5192 49.4343 51.9134C49.1396 52.304 48.7294 52.6094 48.2038 52.8295C47.6783 53.0497 47.0746 53.1598 46.3928 53.1598C45.3913 53.1598 44.5852 52.9503 43.9744 52.5312C43.3636 52.1087 42.9996 51.521 42.8825 50.7681L44.7628 50.587C44.848 50.9563 45.0291 51.2351 45.3061 51.4233C45.5831 51.6115 45.9435 51.7056 46.3874 51.7056C46.8455 51.7056 47.2131 51.6115 47.4901 51.4233C47.7706 51.2351 47.9109 51.0025 47.9109 50.7255C47.9109 50.4911 47.8203 50.2976 47.6392 50.1449C47.4616 49.9922 47.1847 49.875 46.8082 49.7933L45.4126 49.5004C44.6278 49.337 44.0472 49.0618 43.6708 48.6747C43.2944 48.2841 43.108 47.7905 43.1115 47.1939C43.108 46.6896 43.2447 46.2528 43.5217 45.8835C43.8022 45.5107 44.1911 45.223 44.6882 45.0206C45.1889 44.8146 45.766 44.7116 46.4194 44.7116C47.3782 44.7116 48.1328 44.9158 48.6832 45.3242C49.2372 45.7326 49.5799 46.2848 49.7113 46.9808ZM53.1657 53L50.8539 44.8182H52.8194L54.2576 50.571H54.3322L55.8024 44.8182H57.7466L59.2168 50.5391H59.2967L60.7136 44.8182H62.6845L60.3674 53H58.3592L56.8251 47.4709H56.7132L55.1792 53H53.1657ZM67.4186 53.1598C66.5983 53.1598 65.8898 52.9893 65.2932 52.6484C64.7002 52.304 64.2439 51.8175 63.9243 51.1889C63.6047 50.5568 63.4449 49.8129 63.4449 48.957C63.4449 48.1154 63.6047 47.3768 63.9243 46.7411C64.2474 46.1019 64.6984 45.6048 65.2773 45.2496C65.8561 44.891 66.5361 44.7116 67.3174 44.7116C67.8216 44.7116 68.2975 44.7933 68.7449 44.9567C69.1959 45.1165 69.5937 45.3651 69.9381 45.7024C70.2861 46.0398 70.5596 46.4695 70.7584 46.9915C70.9573 47.5099 71.0567 48.1278 71.0567 48.8452V49.4364H64.3504V48.1367H69.2084C69.2048 47.7674 69.1249 47.4389 68.9687 47.1513C68.8124 46.8601 68.594 46.631 68.3135 46.4641C68.0365 46.2972 67.7133 46.2138 67.344 46.2138C66.9498 46.2138 66.6036 46.3097 66.3053 46.5014C66.007 46.6896 65.7744 46.9382 65.6075 47.2472C65.4442 47.5526 65.3607 47.8881 65.3572 48.2539V49.3885C65.3572 49.8643 65.4442 50.2727 65.6182 50.6136C65.7922 50.951 66.0354 51.2102 66.3479 51.3913C66.6604 51.5689 67.0262 51.6577 67.4452 51.6577C67.7258 51.6577 67.9797 51.6186 68.2069 51.5405C68.4342 51.4588 68.6313 51.3398 68.7982 51.1836C68.9651 51.0273 69.0912 50.8338 69.1764 50.603L70.9768 50.8054C70.8632 51.2812 70.6466 51.6967 70.327 52.0518C70.0109 52.4034 69.6061 52.6768 69.1125 52.8722C68.6189 53.0639 68.0542 53.1598 67.4186 53.1598ZM72.688 53V44.8182H74.5577V46.1818H74.6429C74.7921 45.7095 75.0478 45.3455 75.41 45.0898C75.7757 44.8306 76.193 44.701 76.6618 44.701C76.7683 44.701 76.8873 44.7063 77.0186 44.717C77.1536 44.7241 77.2654 44.7365 77.3542 44.7543V46.5281C77.2725 46.4996 77.1429 46.4748 76.9654 46.4535C76.7914 46.4286 76.6227 46.4162 76.4593 46.4162C76.1078 46.4162 75.7917 46.4925 75.5112 46.6452C75.2342 46.7944 75.0158 47.0021 74.856 47.2685C74.6962 47.5348 74.6163 47.842 74.6163 48.19V53H72.688ZM79.9616 51.5085L79.8924 52.0945C79.8427 52.5419 79.7539 52.9964 79.6261 53.4581C79.5018 53.9233 79.3704 54.3512 79.2319 54.7418C79.0934 55.1325 78.9815 55.4396 78.8963 55.6634H77.5966C77.6463 55.4467 77.7138 55.152 77.799 54.7791C77.8878 54.4063 77.973 53.9872 78.0547 53.522C78.1364 53.0568 78.1914 52.5845 78.2198 52.1051L78.2571 51.5085H79.9616ZM86.7039 56.0682C86.4411 56.0682 86.1979 56.0469 85.9742 56.0043C85.754 55.9652 85.5782 55.919 85.4468 55.8658L85.8943 54.3636C86.1748 54.4453 86.4252 54.4844 86.6453 54.4808C86.8655 54.4773 87.059 54.408 87.2259 54.2731C87.3964 54.1417 87.5402 53.9215 87.6574 53.6126L87.8225 53.1705L84.8556 44.8182H86.901L88.7867 50.9972H88.8719L90.7629 44.8182H92.8137L89.5377 53.9908C89.385 54.424 89.1826 54.7951 88.9305 55.104C88.6784 55.4165 88.3694 55.6545 88.0036 55.8178C87.6414 55.9847 87.2082 56.0682 86.7039 56.0682ZM97.4386 53.1598C96.6396 53.1598 95.9471 52.984 95.3612 52.6325C94.7752 52.2809 94.3207 51.7891 93.9975 51.157C93.6779 50.5249 93.5181 49.7862 93.5181 48.9411C93.5181 48.0959 93.6779 47.3555 93.9975 46.7198C94.3207 46.0842 94.7752 45.5906 95.3612 45.239C95.9471 44.8874 96.6396 44.7116 97.4386 44.7116C98.2376 44.7116 98.93 44.8874 99.516 45.239C100.102 45.5906 100.555 46.0842 100.874 46.7198C101.197 47.3555 101.359 48.0959 101.359 48.9411C101.359 49.7862 101.197 50.5249 100.874 51.157C100.555 51.7891 100.102 52.2809 99.516 52.6325C98.93 52.984 98.2376 53.1598 97.4386 53.1598ZM97.4492 51.6151C97.8825 51.6151 98.2447 51.4961 98.5359 51.2582C98.8271 51.0167 99.0437 50.6935 99.1857 50.2887C99.3313 49.8839 99.4041 49.4329 99.4041 48.9357C99.4041 48.435 99.3313 47.9822 99.1857 47.5774C99.0437 47.169 98.8271 46.8441 98.5359 46.6026C98.2447 46.3612 97.8825 46.2404 97.4492 46.2404C97.0053 46.2404 96.636 46.3612 96.3413 46.6026C96.0501 46.8441 95.8317 47.169 95.6861 47.5774C95.544 47.9822 95.473 48.435 95.473 48.9357C95.473 49.4329 95.544 49.8839 95.6861 50.2887C95.8317 50.6935 96.0501 51.0167 96.3413 51.2582C96.636 51.4961 97.0053 51.6151 97.4492 51.6151ZM108.21 49.5589V44.8182H110.139V53H108.269V51.5458H108.184C107.999 52.0039 107.696 52.3786 107.273 52.6697C106.854 52.9609 106.337 53.1065 105.723 53.1065C105.187 53.1065 104.713 52.9876 104.301 52.7496C103.892 52.5082 103.573 52.1584 103.342 51.7003C103.111 51.2386 102.996 50.6811 102.996 50.0277V44.8182H104.924V49.7294C104.924 50.2479 105.066 50.6598 105.35 50.9652C105.634 51.2706 106.007 51.4233 106.469 51.4233C106.753 51.4233 107.028 51.354 107.294 51.2156C107.561 51.0771 107.779 50.8711 107.949 50.5977C108.123 50.3207 108.21 49.9744 108.21 49.5589ZM117.771 48.206V53H115.842V42.0909H117.728V46.2085H117.824C118.016 45.7468 118.312 45.3828 118.713 45.1165C119.118 44.8466 119.633 44.7116 120.258 44.7116C120.826 44.7116 121.322 44.8306 121.744 45.0685C122.167 45.3065 122.494 45.6545 122.724 46.1126C122.959 46.5707 123.076 47.13 123.076 47.7905V53H121.148V48.0888C121.148 47.5384 121.006 47.1104 120.722 46.805C120.441 46.4961 120.047 46.3416 119.539 46.3416C119.198 46.3416 118.893 46.4162 118.623 46.5653C118.357 46.7109 118.147 46.9222 117.994 47.1992C117.845 47.4762 117.771 47.8118 117.771 48.206ZM127.396 53.1651C126.877 53.1651 126.411 53.0728 125.995 52.8881C125.583 52.6999 125.256 52.4229 125.015 52.0572C124.777 51.6914 124.658 51.2404 124.658 50.7042C124.658 50.2425 124.743 49.8608 124.914 49.5589C125.084 49.2571 125.317 49.0156 125.612 48.8345C125.906 48.6534 126.238 48.5167 126.608 48.4244C126.98 48.3285 127.366 48.2592 127.763 48.2166C128.243 48.1669 128.632 48.1225 128.93 48.0835C129.228 48.0408 129.445 47.9769 129.58 47.8917C129.718 47.8029 129.788 47.6662 129.788 47.4815V47.4496C129.788 47.0483 129.669 46.7376 129.431 46.5174C129.193 46.2972 128.85 46.1871 128.403 46.1871C127.93 46.1871 127.556 46.2901 127.279 46.4961C127.005 46.7021 126.821 46.9453 126.725 47.2259L124.924 46.9702C125.066 46.473 125.301 46.0575 125.627 45.7237C125.954 45.3864 126.354 45.1342 126.826 44.9673C127.298 44.7969 127.82 44.7116 128.392 44.7116C128.786 44.7116 129.179 44.7578 129.569 44.8501C129.96 44.9425 130.317 45.0952 130.64 45.3082C130.963 45.5178 131.222 45.8036 131.418 46.1658C131.616 46.5281 131.716 46.9808 131.716 47.5241V53H129.862V51.8761H129.798C129.681 52.1033 129.516 52.3164 129.303 52.5153C129.093 52.7106 128.829 52.8686 128.509 52.9893C128.193 53.1065 127.822 53.1651 127.396 53.1651ZM127.897 51.7482C128.284 51.7482 128.619 51.6719 128.903 51.5192C129.188 51.3629 129.406 51.157 129.559 50.9013C129.715 50.6456 129.793 50.3668 129.793 50.065V49.1009C129.733 49.1506 129.63 49.1967 129.484 49.2393C129.342 49.282 129.182 49.3192 129.005 49.3512C128.827 49.3832 128.651 49.4116 128.477 49.4364C128.303 49.4613 128.152 49.4826 128.025 49.5004C127.737 49.5394 127.479 49.6033 127.252 49.6921C127.025 49.7809 126.846 49.9052 126.714 50.065C126.583 50.2212 126.517 50.4237 126.517 50.6722C126.517 51.0273 126.647 51.2955 126.906 51.4766C127.165 51.6577 127.495 51.7482 127.897 51.7482ZM140.67 44.8182L137.756 53H135.626L132.712 44.8182H134.768L136.648 50.896H136.734L138.619 44.8182H140.67ZM145.348 53.1598C144.528 53.1598 143.82 52.9893 143.223 52.6484C142.63 52.304 142.174 51.8175 141.854 51.1889C141.534 50.5568 141.375 49.8129 141.375 48.957C141.375 48.1154 141.534 47.3768 141.854 46.7411C142.177 46.1019 142.628 45.6048 143.207 45.2496C143.786 44.891 144.466 44.7116 145.247 44.7116C145.751 44.7116 146.227 44.7933 146.675 44.9567C147.126 45.1165 147.523 45.3651 147.868 45.7024C148.216 46.0398 148.489 46.4695 148.688 46.9915C148.887 47.5099 148.986 48.1278 148.986 48.8452V49.4364H142.28V48.1367H147.138C147.134 47.7674 147.055 47.4389 146.898 47.1513C146.742 46.8601 146.524 46.631 146.243 46.4641C145.966 46.2972 145.643 46.2138 145.274 46.2138C144.88 46.2138 144.533 46.3097 144.235 46.5014C143.937 46.6896 143.704 46.9382 143.537 47.2472C143.374 47.5526 143.29 47.8881 143.287 48.2539V49.3885C143.287 49.8643 143.374 50.2727 143.548 50.6136C143.722 50.951 143.965 51.2102 144.278 51.3913C144.59 51.5689 144.956 51.6577 145.375 51.6577C145.655 51.6577 145.909 51.6186 146.137 51.5405C146.364 51.4588 146.561 51.3398 146.728 51.1836C146.895 51.0273 147.021 50.8338 147.106 50.603L148.907 50.8054C148.793 51.2812 148.576 51.6967 148.257 52.0518C147.941 52.4034 147.536 52.6768 147.042 52.8722C146.549 53.0639 145.984 53.1598 145.348 53.1598ZM29.5763 62.8182V64.3097H24.8729V62.8182H29.5763ZM26.0341 60.858H27.9624V68.5391C27.9624 68.7983 28.0014 68.9972 28.0795 69.1357C28.1612 69.2706 28.2678 69.3629 28.3991 69.4126C28.5305 69.4624 28.6761 69.4872 28.8359 69.4872C28.9567 69.4872 29.0668 69.4783 29.1662 69.4606C29.2692 69.4428 29.3473 69.4268 29.4006 69.4126L29.7255 70.9201C29.6225 70.9556 29.4751 70.9947 29.2834 71.0373C29.0952 71.0799 28.8643 71.1048 28.5909 71.1119C28.108 71.1261 27.6729 71.0533 27.2859 70.8935C26.8988 70.7301 26.5916 70.478 26.3643 70.1371C26.1406 69.7962 26.0305 69.37 26.0341 68.8587V60.858ZM33.2931 66.206V71H31.3648V60.0909H33.2504V64.2085H33.3463C33.5381 63.7468 33.8346 63.3828 34.2359 63.1165C34.6407 62.8466 35.1556 62.7116 35.7806 62.7116C36.3488 62.7116 36.8442 62.8306 37.2668 63.0685C37.6894 63.3065 38.0161 63.6545 38.2469 64.1126C38.4813 64.5707 38.5985 65.13 38.5985 65.7905V71H36.6702V66.0888C36.6702 65.5384 36.5281 65.1104 36.2441 64.805C35.9635 64.4961 35.5693 64.3416 35.0615 64.3416C34.7206 64.3416 34.4152 64.4162 34.1453 64.5653C33.879 64.7109 33.6695 64.9222 33.5168 65.1992C33.3676 65.4762 33.2931 65.8118 33.2931 66.206ZM44.1862 71.1598C43.3659 71.1598 42.6574 70.9893 42.0608 70.6484C41.4678 70.304 41.0115 69.8175 40.6919 69.1889C40.3722 68.5568 40.2124 67.8129 40.2124 66.957C40.2124 66.1154 40.3722 65.3768 40.6919 64.7411C41.015 64.1019 41.466 63.6048 42.0448 63.2496C42.6237 62.891 43.3037 62.7116 44.085 62.7116C44.5892 62.7116 45.0651 62.7933 45.5125 62.9567C45.9635 63.1165 46.3612 63.3651 46.7057 63.7024C47.0537 64.0398 47.3271 64.4695 47.526 64.9915C47.7249 65.5099 47.8243 66.1278 47.8243 66.8452V67.4364H41.118V66.1367H45.9759C45.9724 65.7674 45.8925 65.4389 45.7362 65.1513C45.58 64.8601 45.3616 64.631 45.0811 64.4641C44.8041 64.2972 44.4809 64.2138 44.1116 64.2138C43.7174 64.2138 43.3712 64.3097 43.0729 64.5014C42.7746 64.6896 42.542 64.9382 42.3751 65.2472C42.2117 65.5526 42.1283 65.8881 42.1247 66.2539V67.3885C42.1247 67.8643 42.2117 68.2727 42.3857 68.6136C42.5597 68.951 42.803 69.2102 43.1155 69.3913C43.428 69.5689 43.7938 69.6577 44.2128 69.6577C44.4933 69.6577 44.7472 69.6186 44.9745 69.5405C45.2018 69.4588 45.3989 69.3398 45.5658 69.1836C45.7327 69.0273 45.8588 68.8338 45.944 68.603L47.7444 68.8054C47.6308 69.2812 47.4142 69.6967 47.0945 70.0518C46.7785 70.4034 46.3737 70.6768 45.8801 70.8722C45.3865 71.0639 44.8218 71.1598 44.1862 71.1598ZM56.7452 71.1598C55.9462 71.1598 55.2537 70.984 54.6678 70.6325C54.0819 70.2809 53.6273 69.7891 53.3042 69.157C52.9846 68.5249 52.8248 67.7862 52.8248 66.9411C52.8248 66.0959 52.9846 65.3555 53.3042 64.7198C53.6273 64.0842 54.0819 63.5906 54.6678 63.239C55.2537 62.8874 55.9462 62.7116 56.7452 62.7116C57.5442 62.7116 58.2367 62.8874 58.8226 63.239C59.4086 63.5906 59.8613 64.0842 60.1809 64.7198C60.5041 65.3555 60.6657 66.0959 60.6657 66.9411C60.6657 67.7862 60.5041 68.5249 60.1809 69.157C59.8613 69.7891 59.4086 70.2809 58.8226 70.6325C58.2367 70.984 57.5442 71.1598 56.7452 71.1598ZM56.7559 69.6151C57.1891 69.6151 57.5513 69.4961 57.8425 69.2582C58.1337 69.0167 58.3503 68.6935 58.4924 68.2887C58.638 67.8839 58.7108 67.4329 58.7108 66.9357C58.7108 66.435 58.638 65.9822 58.4924 65.5774C58.3503 65.169 58.1337 64.8441 57.8425 64.6026C57.5513 64.3612 57.1891 64.2404 56.7559 64.2404C56.312 64.2404 55.9426 64.3612 55.6479 64.6026C55.3567 64.8441 55.1383 65.169 54.9927 65.5774C54.8507 65.9822 54.7797 66.435 54.7797 66.9357C54.7797 67.4329 54.8507 67.8839 54.9927 68.2887C55.1383 68.6935 55.3567 69.0167 55.6479 69.2582C55.9426 69.4961 56.312 69.6151 56.7559 69.6151ZM62.3023 74.0682V62.8182H64.1986V64.1712H64.3105C64.4099 63.9723 64.5502 63.761 64.7313 63.5373C64.9124 63.31 65.1574 63.1165 65.4664 62.9567C65.7753 62.7933 66.1695 62.7116 66.6489 62.7116C67.281 62.7116 67.8509 62.8732 68.3588 63.1964C68.8701 63.516 69.2749 63.9901 69.5732 64.6186C69.8751 65.2436 70.026 66.0107 70.026 66.9197C70.026 67.8182 69.8786 68.5817 69.5839 69.2102C69.2892 69.8388 68.8879 70.3182 68.3801 70.6484C67.8722 70.9787 67.297 71.1438 66.6542 71.1438C66.1855 71.1438 65.7966 71.0657 65.4877 70.9094C65.1787 70.7532 64.9301 70.565 64.7419 70.3448C64.5573 70.1211 64.4134 69.9098 64.3105 69.7109H64.2306V74.0682H62.3023ZM64.1933 66.9091C64.1933 67.4382 64.2678 67.9016 64.417 68.2994C64.5697 68.6971 64.7881 69.0078 65.0722 69.2315C65.3598 69.4517 65.7078 69.5618 66.1162 69.5618C66.5423 69.5618 66.8992 69.4482 67.1869 69.2209C67.4745 68.9901 67.6911 68.6758 67.8367 68.2781C67.9859 67.8768 68.0605 67.4205 68.0605 66.9091C68.0605 66.4013 67.9877 65.9503 67.8421 65.5561C67.6965 65.1619 67.4798 64.853 67.1922 64.6293C66.9046 64.4055 66.5459 64.2937 66.1162 64.2937C65.7043 64.2937 65.3545 64.402 65.0669 64.6186C64.7792 64.8352 64.5608 65.1388 64.4117 65.5295C64.2661 65.9201 64.1933 66.38 64.1933 66.9091ZM71.6773 74.0682V62.8182H73.5736V64.1712H73.6855C73.7849 63.9723 73.9252 63.761 74.1063 63.5373C74.2874 63.31 74.5324 63.1165 74.8414 62.9567C75.1503 62.7933 75.5445 62.7116 76.0239 62.7116C76.656 62.7116 77.2259 62.8732 77.7338 63.1964C78.2451 63.516 78.6499 63.9901 78.9482 64.6186C79.2501 65.2436 79.401 66.0107 79.401 66.9197C79.401 67.8182 79.2536 68.5817 78.9589 69.2102C78.6642 69.8388 78.2629 70.3182 77.7551 70.6484C77.2472 70.9787 76.672 71.1438 76.0292 71.1438C75.5605 71.1438 75.1716 71.0657 74.8627 70.9094C74.5537 70.7532 74.3051 70.565 74.1169 70.3448C73.9323 70.1211 73.7884 69.9098 73.6855 69.7109H73.6056V74.0682H71.6773ZM73.5683 66.9091C73.5683 67.4382 73.6428 67.9016 73.792 68.2994C73.9447 68.6971 74.1631 69.0078 74.4472 69.2315C74.7348 69.4517 75.0828 69.5618 75.4912 69.5618C75.9173 69.5618 76.2742 69.4482 76.5619 69.2209C76.8495 68.9901 77.0661 68.6758 77.2117 68.2781C77.3609 67.8768 77.4355 67.4205 77.4355 66.9091C77.4355 66.4013 77.3627 65.9503 77.2171 65.5561C77.0715 65.1619 76.8548 64.853 76.5672 64.6293C76.2796 64.4055 75.9209 64.2937 75.4912 64.2937C75.0793 64.2937 74.7295 64.402 74.4419 64.6186C74.1542 64.8352 73.9358 65.1388 73.7867 65.5295C73.6411 65.9201 73.5683 66.38 73.5683 66.9091ZM84.6212 71.1598C83.8222 71.1598 83.1297 70.984 82.5438 70.6325C81.9578 70.2809 81.5033 69.7891 81.1801 69.157C80.8605 68.5249 80.7007 67.7862 80.7007 66.9411C80.7007 66.0959 80.8605 65.3555 81.1801 64.7198C81.5033 64.0842 81.9578 63.5906 82.5438 63.239C83.1297 62.8874 83.8222 62.7116 84.6212 62.7116C85.4202 62.7116 86.1127 62.8874 86.6986 63.239C87.2845 63.5906 87.7373 64.0842 88.0569 64.7198C88.3801 65.3555 88.5416 66.0959 88.5416 66.9411C88.5416 67.7862 88.3801 68.5249 88.0569 69.157C87.7373 69.7891 87.2845 70.2809 86.6986 70.6325C86.1127 70.984 85.4202 71.1598 84.6212 71.1598ZM84.6318 69.6151C85.0651 69.6151 85.4273 69.4961 85.7185 69.2582C86.0097 69.0167 86.2263 68.6935 86.3683 68.2887C86.5139 67.8839 86.5867 67.4329 86.5867 66.9357C86.5867 66.435 86.5139 65.9822 86.3683 65.5774C86.2263 65.169 86.0097 64.8441 85.7185 64.6026C85.4273 64.3612 85.0651 64.2404 84.6318 64.2404C84.1879 64.2404 83.8186 64.3612 83.5239 64.6026C83.2327 64.8441 83.0143 65.169 82.8687 65.5774C82.7267 65.9822 82.6556 66.435 82.6556 66.9357C82.6556 67.4329 82.7267 67.8839 82.8687 68.2887C83.0143 68.6935 83.2327 69.0167 83.5239 69.2582C83.8186 69.4961 84.1879 69.6151 84.6318 69.6151ZM90.1783 71V62.8182H92.0479V64.1818H92.1332C92.2823 63.7095 92.538 63.3455 92.9002 63.0898C93.266 62.8306 93.6832 62.701 94.152 62.701C94.2585 62.701 94.3775 62.7063 94.5089 62.717C94.6438 62.7241 94.7557 62.7365 94.8445 62.7543V64.5281C94.7628 64.4996 94.6332 64.4748 94.4556 64.4535C94.2816 64.4286 94.1129 64.4162 93.9496 64.4162C93.598 64.4162 93.282 64.4925 93.0014 64.6452C92.7244 64.7944 92.506 65.0021 92.3462 65.2685C92.1864 65.5348 92.1065 65.842 92.1065 66.19V71H90.1783ZM100.651 62.8182V64.3097H95.9471V62.8182H100.651ZM97.1083 60.858H99.0366V68.5391C99.0366 68.7983 99.0756 68.9972 99.1538 69.1357C99.2354 69.2706 99.342 69.3629 99.4734 69.4126C99.6048 69.4624 99.7504 69.4872 99.9102 69.4872C100.031 69.4872 100.141 69.4783 100.24 69.4606C100.343 69.4428 100.422 69.4268 100.475 69.4126L100.8 70.9201C100.697 70.9556 100.549 70.9947 100.358 71.0373C100.169 71.0799 99.9386 71.1048 99.6651 71.1119C99.1822 71.1261 98.7472 71.0533 98.3601 70.8935C97.973 70.7301 97.6658 70.478 97.4386 70.1371C97.2148 69.7962 97.1048 69.37 97.1083 68.8587V60.858ZM107.478 67.5589V62.8182H109.406V71H107.537V69.5458H107.451C107.267 70.0039 106.963 70.3786 106.541 70.6697C106.122 70.9609 105.605 71.1065 104.991 71.1065C104.454 71.1065 103.98 70.9876 103.568 70.7496C103.16 70.5082 102.84 70.1584 102.609 69.7003C102.379 69.2386 102.263 68.6811 102.263 68.0277V62.8182H104.191V67.7294C104.191 68.2479 104.334 68.6598 104.618 68.9652C104.902 69.2706 105.275 69.4233 105.736 69.4233C106.02 69.4233 106.296 69.354 106.562 69.2156C106.828 69.0771 107.047 68.8711 107.217 68.5977C107.391 68.3207 107.478 67.9744 107.478 67.5589ZM113.317 66.206V71H111.389V62.8182H113.232V64.2085H113.328C113.516 63.7504 113.816 63.3864 114.228 63.1165C114.644 62.8466 115.157 62.7116 115.768 62.7116C116.332 62.7116 116.824 62.8324 117.243 63.0739C117.666 63.3153 117.993 63.6651 118.223 64.1232C118.458 64.5813 118.573 65.1371 118.57 65.7905V71H116.641V66.0888C116.641 65.5419 116.499 65.114 116.215 64.805C115.935 64.4961 115.546 64.3416 115.049 64.3416C114.711 64.3416 114.411 64.4162 114.148 64.5653C113.889 64.7109 113.685 64.9222 113.536 65.1992C113.39 65.4762 113.317 65.8118 113.317 66.206ZM120.53 71V62.8182H122.458V71H120.53ZM121.499 61.657C121.194 61.657 120.931 61.5558 120.711 61.3533C120.491 61.1474 120.381 60.9006 120.381 60.6129C120.381 60.3217 120.491 60.0749 120.711 59.8725C120.931 59.6665 121.194 59.5636 121.499 59.5636C121.808 59.5636 122.071 59.6665 122.288 59.8725C122.508 60.0749 122.618 60.3217 122.618 60.6129C122.618 60.9006 122.508 61.1474 122.288 61.3533C122.071 61.5558 121.808 61.657 121.499 61.657ZM128.527 62.8182V64.3097H123.823V62.8182H128.527ZM124.984 60.858H126.913V68.5391C126.913 68.7983 126.952 68.9972 127.03 69.1357C127.111 69.2706 127.218 69.3629 127.349 69.4126C127.481 69.4624 127.626 69.4872 127.786 69.4872C127.907 69.4872 128.017 69.4783 128.116 69.4606C128.219 69.4428 128.297 69.4268 128.351 69.4126L128.676 70.9201C128.573 70.9556 128.425 70.9947 128.234 71.0373C128.045 71.0799 127.815 71.1048 127.541 71.1119C127.058 71.1261 126.623 71.0533 126.236 70.8935C125.849 70.7301 125.542 70.478 125.315 70.1371C125.091 69.7962 124.981 69.37 124.984 68.8587V60.858ZM131.338 74.0682C131.075 74.0682 130.832 74.0469 130.608 74.0043C130.388 73.9652 130.212 73.919 130.081 73.8658L130.528 72.3636C130.809 72.4453 131.059 72.4844 131.279 72.4808C131.499 72.4773 131.693 72.408 131.86 72.2731C132.03 72.1417 132.174 71.9215 132.291 71.6126L132.456 71.1705L129.489 62.8182H131.535L133.42 68.9972H133.506L135.397 62.8182H137.447L134.172 71.9908C134.019 72.424 133.816 72.7951 133.564 73.104C133.312 73.4165 133.003 73.6545 132.637 73.8178C132.275 73.9847 131.842 74.0682 131.338 74.0682ZM146.588 62.8182V64.3097H141.885V62.8182H146.588ZM143.046 60.858H144.974V68.5391C144.974 68.7983 145.013 68.9972 145.091 69.1357C145.173 69.2706 145.279 69.3629 145.411 69.4126C145.542 69.4624 145.688 69.4872 145.848 69.4872C145.968 69.4872 146.078 69.4783 146.178 69.4606C146.281 69.4428 146.359 69.4268 146.412 69.4126L146.737 70.9201C146.634 70.9556 146.487 70.9947 146.295 71.0373C146.107 71.0799 145.876 71.1048 145.603 71.1119C145.12 71.1261 144.685 71.0533 144.298 70.8935C143.911 70.7301 143.603 70.478 143.376 70.1371C143.152 69.7962 143.042 69.37 143.046 68.8587V60.858ZM151.682 71.1598C150.883 71.1598 150.19 70.984 149.604 70.6325C149.018 70.2809 148.564 69.7891 148.241 69.157C147.921 68.5249 147.761 67.7862 147.761 66.9411C147.761 66.0959 147.921 65.3555 148.241 64.7198C148.564 64.0842 149.018 63.5906 149.604 63.239C150.19 62.8874 150.883 62.7116 151.682 62.7116C152.481 62.7116 153.173 62.8874 153.759 63.239C154.345 63.5906 154.798 64.0842 155.117 64.7198C155.441 65.3555 155.602 66.0959 155.602 66.9411C155.602 67.7862 155.441 68.5249 155.117 69.157C154.798 69.7891 154.345 70.2809 153.759 70.6325C153.173 70.984 152.481 71.1598 151.682 71.1598ZM151.692 69.6151C152.126 69.6151 152.488 69.4961 152.779 69.2582C153.07 69.0167 153.287 68.6935 153.429 68.2887C153.574 67.8839 153.647 67.4329 153.647 66.9357C153.647 66.435 153.574 65.9822 153.429 65.5774C153.287 65.169 153.07 64.8441 152.779 64.6026C152.488 64.3612 152.126 64.2404 151.692 64.2404C151.248 64.2404 150.879 64.3612 150.584 64.6026C150.293 64.8441 150.075 65.169 149.929 65.5774C149.787 65.9822 149.716 66.435 149.716 66.9357C149.716 67.4329 149.787 67.8839 149.929 68.2887C150.075 68.6935 150.293 69.0167 150.584 69.2582C150.879 69.4961 151.248 69.6151 151.692 69.6151ZM25.4908 89V80.8182H27.419V89H25.4908ZM26.4602 79.657C26.1548 79.657 25.892 79.5558 25.6719 79.3533C25.4517 79.1474 25.3416 78.9006 25.3416 78.6129C25.3416 78.3217 25.4517 78.0749 25.6719 77.8725C25.892 77.6665 26.1548 77.5636 26.4602 77.5636C26.7692 77.5636 27.032 77.6665 27.2486 77.8725C27.4688 78.0749 27.5788 78.3217 27.5788 78.6129C27.5788 78.9006 27.4688 79.1474 27.2486 79.3533C27.032 79.5558 26.7692 79.657 26.4602 79.657ZM31.3302 84.206V89H29.4019V80.8182H31.2449V82.2085H31.3408C31.529 81.7504 31.8291 81.3864 32.241 81.1165C32.6565 80.8466 33.1697 80.7116 33.7805 80.7116C34.3451 80.7116 34.8369 80.8324 35.2559 81.0739C35.6785 81.3153 36.0052 81.6651 36.2361 82.1232C36.4704 82.5813 36.5858 83.1371 36.5823 83.7905V89H34.654V84.0888C34.654 83.5419 34.512 83.114 34.2279 82.805C33.9474 82.4961 33.5585 82.3416 33.0613 82.3416C32.724 82.3416 32.4239 82.4162 32.1611 82.5653C31.9019 82.7109 31.6977 82.9222 31.5486 83.1992C31.403 83.4762 31.3302 83.8118 31.3302 84.206ZM42.1114 89.1598C41.2947 89.1598 40.5933 88.9805 40.0074 88.6218C39.425 88.2631 38.9758 87.7678 38.6597 87.1357C38.3472 86.5 38.191 85.7685 38.191 84.9411C38.191 84.1101 38.3508 83.3768 38.6704 82.7411C38.99 82.1019 39.441 81.6048 40.0233 81.2496C40.6093 80.891 41.3018 80.7116 42.1008 80.7116C42.7648 80.7116 43.3525 80.8342 43.8639 81.0792C44.3788 81.3207 44.789 81.6634 45.0944 82.1072C45.3998 82.5476 45.5738 83.0625 45.6164 83.652H43.7733C43.6988 83.2578 43.5212 82.9293 43.2407 82.6665C42.9637 82.4002 42.5926 82.267 42.1274 82.267C41.7332 82.267 41.387 82.3736 41.0887 82.5866C40.7904 82.7962 40.5578 83.098 40.3909 83.4922C40.2275 83.8864 40.1459 84.3587 40.1459 84.9091C40.1459 85.4666 40.2275 85.946 40.3909 86.3473C40.5542 86.745 40.7833 87.0522 41.078 87.2688C41.3763 87.4819 41.7261 87.5884 42.1274 87.5884C42.4115 87.5884 42.6654 87.5352 42.8891 87.4286C43.1164 87.3185 43.3064 87.1605 43.4591 86.9545C43.6118 86.7486 43.7165 86.4982 43.7733 86.2035H45.6164C45.5702 86.7823 45.3998 87.2955 45.105 87.7429C44.8103 88.1868 44.409 88.5348 43.9012 88.7869C43.3934 89.0355 42.7968 89.1598 42.1114 89.1598ZM47.1998 89V80.8182H49.0694V82.1818H49.1547C49.3038 81.7095 49.5595 81.3455 49.9217 81.0898C50.2875 80.8306 50.7047 80.701 51.1735 80.701C51.28 80.701 51.399 80.7063 51.5304 80.717C51.6653 80.7241 51.7772 80.7365 51.8659 80.7543V82.5281C51.7843 82.4996 51.6547 82.4748 51.4771 82.4535C51.3031 82.4286 51.1344 82.4162 50.9711 82.4162C50.6195 82.4162 50.3034 82.4925 50.0229 82.6452C49.7459 82.7944 49.5275 83.0021 49.3677 83.2685C49.2079 83.5348 49.128 83.842 49.128 84.19V89H47.1998ZM56.4323 89.1598C55.6119 89.1598 54.9035 88.9893 54.3069 88.6484C53.7139 88.304 53.2575 87.8175 52.9379 87.1889C52.6183 86.5568 52.4585 85.8129 52.4585 84.957C52.4585 84.1154 52.6183 83.3768 52.9379 82.7411C53.2611 82.1019 53.7121 81.6048 54.2909 81.2496C54.8698 80.891 55.5498 80.7116 56.3311 80.7116C56.8353 80.7116 57.3112 80.7933 57.7586 80.9567C58.2096 81.1165 58.6073 81.3651 58.9518 81.7024C59.2998 82.0398 59.5732 82.4695 59.7721 82.9915C59.971 83.5099 60.0704 84.1278 60.0704 84.8452V85.4364H53.3641V84.1367H58.222C58.2185 83.7674 58.1386 83.4389 57.9823 83.1513C57.8261 82.8601 57.6077 82.631 57.3271 82.4641C57.0502 82.2972 56.727 82.2138 56.3577 82.2138C55.9635 82.2138 55.6173 82.3097 55.319 82.5014C55.0207 82.6896 54.7881 82.9382 54.6212 83.2472C54.4578 83.5526 54.3744 83.8881 54.3708 84.2539V85.3885C54.3708 85.8643 54.4578 86.2727 54.6318 86.6136C54.8058 86.951 55.0491 87.2102 55.3616 87.3913C55.6741 87.5689 56.0399 87.6577 56.4589 87.6577C56.7394 87.6577 56.9933 87.6186 57.2206 87.5405C57.4479 87.4588 57.645 87.3398 57.8119 87.1836C57.9788 87.0273 58.1048 86.8338 58.1901 86.603L59.9905 86.8054C59.8769 87.2812 59.6602 87.6967 59.3406 88.0518C59.0246 88.4034 58.6198 88.6768 58.1262 88.8722C57.6325 89.0639 57.0679 89.1598 56.4323 89.1598ZM64.0561 89.1651C63.5376 89.1651 63.0707 89.0728 62.6552 88.8881C62.2433 88.6999 61.9165 88.4229 61.6751 88.0572C61.4371 87.6914 61.3182 87.2404 61.3182 86.7042C61.3182 86.2425 61.4034 85.8608 61.5739 85.5589C61.7443 85.2571 61.9769 85.0156 62.2717 84.8345C62.5664 84.6534 62.8984 84.5167 63.2678 84.4244C63.6406 84.3285 64.0259 84.2592 64.4237 84.2166C64.9031 84.1669 65.2919 84.1225 65.5902 84.0835C65.8885 84.0408 66.1051 83.9769 66.2401 83.8917C66.3786 83.8029 66.4478 83.6662 66.4478 83.4815V83.4496C66.4478 83.0483 66.3288 82.7376 66.0909 82.5174C65.853 82.2972 65.5103 82.1871 65.0629 82.1871C64.5906 82.1871 64.2159 82.2901 63.9389 82.4961C63.6655 82.7021 63.4808 82.9453 63.3849 83.2259L61.5845 82.9702C61.7266 82.473 61.9609 82.0575 62.2876 81.7237C62.6143 81.3864 63.0138 81.1342 63.4862 80.9673C63.9585 80.7969 64.4805 80.7116 65.0522 80.7116C65.4464 80.7116 65.8388 80.7578 66.2294 80.8501C66.62 80.9425 66.9769 81.0952 67.3001 81.3082C67.6232 81.5178 67.8825 81.8036 68.0778 82.1658C68.2766 82.5281 68.3761 82.9808 68.3761 83.5241V89H66.5224V87.8761H66.4585C66.3413 88.1033 66.1761 88.3164 65.9631 88.5153C65.7536 88.7106 65.489 88.8686 65.1694 88.9893C64.8533 89.1065 64.4822 89.1651 64.0561 89.1651ZM64.5568 87.7482C64.9439 87.7482 65.2795 87.6719 65.5636 87.5192C65.8477 87.3629 66.0661 87.157 66.2188 86.9013C66.375 86.6456 66.4531 86.3668 66.4531 86.065V85.1009C66.3928 85.1506 66.2898 85.1967 66.1442 85.2393C66.0021 85.282 65.8423 85.3192 65.6648 85.3512C65.4872 85.3832 65.3114 85.4116 65.1374 85.4364C64.9634 85.4613 64.8125 85.4826 64.6847 85.5004C64.397 85.5394 64.1396 85.6033 63.9123 85.6921C63.685 85.7809 63.5057 85.9052 63.3743 86.065C63.2429 86.2212 63.1772 86.4237 63.1772 86.6722C63.1772 87.0273 63.3068 87.2955 63.5661 87.4766C63.8253 87.6577 64.1555 87.7482 64.5568 87.7482ZM76.7816 82.9808L75.0238 83.1726C74.9741 82.995 74.8871 82.8281 74.7628 82.6719C74.642 82.5156 74.4787 82.3896 74.2727 82.2937C74.0668 82.1978 73.8146 82.1499 73.5163 82.1499C73.1151 82.1499 72.7777 82.2369 72.5043 82.4109C72.2344 82.5849 72.1012 82.8104 72.1048 83.0874C72.1012 83.3253 72.1882 83.5188 72.3658 83.668C72.5469 83.8171 72.8452 83.9396 73.2607 84.0355L74.6562 84.3338C75.4304 84.5007 76.0057 84.7653 76.3821 85.1275C76.7621 85.4897 76.9538 85.9638 76.9574 86.5497C76.9538 87.0646 76.8029 87.5192 76.5046 87.9134C76.2099 88.304 75.7997 88.6094 75.2741 88.8295C74.7486 89.0497 74.1449 89.1598 73.4631 89.1598C72.4616 89.1598 71.6555 88.9503 71.0447 88.5312C70.4339 88.1087 70.07 87.521 69.9528 86.7681L71.8331 86.587C71.9183 86.9563 72.0994 87.2351 72.3764 87.4233C72.6534 87.6115 73.0138 87.7056 73.4577 87.7056C73.9158 87.7056 74.2834 87.6115 74.5604 87.4233C74.8409 87.2351 74.9812 87.0025 74.9812 86.7255C74.9812 86.4911 74.8906 86.2976 74.7095 86.1449C74.532 85.9922 74.255 85.875 73.8786 85.7933L72.483 85.5004C71.6982 85.337 71.1175 85.0618 70.7411 84.6747C70.3647 84.2841 70.1783 83.7905 70.1818 83.1939C70.1783 82.6896 70.315 82.2528 70.592 81.8835C70.8725 81.5107 71.2614 81.223 71.7585 81.0206C72.2592 80.8146 72.8363 80.7116 73.4897 80.7116C74.4485 80.7116 75.2031 80.9158 75.7536 81.3242C76.3075 81.7326 76.6502 82.2848 76.7816 82.9808ZM82.1696 89.1598C81.3493 89.1598 80.6408 88.9893 80.0442 88.6484C79.4512 88.304 78.9949 87.8175 78.6752 87.1889C78.3556 86.5568 78.1958 85.8129 78.1958 84.957C78.1958 84.1154 78.3556 83.3768 78.6752 82.7411C78.9984 82.1019 79.4494 81.6048 80.0282 81.2496C80.6071 80.891 81.2871 80.7116 82.0684 80.7116C82.5726 80.7116 83.0485 80.7933 83.4959 80.9567C83.9469 81.1165 84.3446 81.3651 84.6891 81.7024C85.0371 82.0398 85.3105 82.4695 85.5094 82.9915C85.7083 83.5099 85.8077 84.1278 85.8077 84.8452V85.4364H79.1014V84.1367H83.9593C83.9558 83.7674 83.8759 83.4389 83.7196 83.1513C83.5634 82.8601 83.345 82.631 83.0645 82.4641C82.7875 82.2972 82.4643 82.2138 82.095 82.2138C81.7008 82.2138 81.3546 82.3097 81.0563 82.5014C80.758 82.6896 80.5254 82.9382 80.3585 83.2472C80.1951 83.5526 80.1117 83.8881 80.1081 84.2539V85.3885C80.1081 85.8643 80.1951 86.2727 80.3691 86.6136C80.5431 86.951 80.7864 87.2102 81.0989 87.3913C81.4114 87.5689 81.7772 87.6577 82.1962 87.6577C82.4767 87.6577 82.7306 87.6186 82.9579 87.5405C83.1852 87.4588 83.3823 87.3398 83.5492 87.1836C83.7161 87.0273 83.8422 86.8338 83.9274 86.603L85.7278 86.8054C85.6142 87.2812 85.3975 87.6967 85.0779 88.0518C84.7619 88.4034 84.3571 88.6768 83.8635 88.8722C83.3699 89.0639 82.8052 89.1598 82.1696 89.1598ZM92.3582 92.0682C92.0954 92.0682 91.8522 92.0469 91.6285 92.0043C91.4083 91.9652 91.2325 91.919 91.1011 91.8658L91.5486 90.3636C91.8291 90.4453 92.0795 90.4844 92.2996 90.4808C92.5198 90.4773 92.7133 90.408 92.8802 90.2731C93.0507 90.1417 93.1945 89.9215 93.3117 89.6126L93.4768 89.1705L90.5099 80.8182H92.5553L94.441 86.9972H94.5262L96.4172 80.8182H98.468L95.192 89.9908C95.0393 90.424 94.8369 90.7951 94.5848 91.104C94.3327 91.4165 94.0237 91.6545 93.6579 91.8178C93.2957 91.9847 92.8625 92.0682 92.3582 92.0682ZM103.093 89.1598C102.294 89.1598 101.601 88.984 101.015 88.6325C100.43 88.2809 99.975 87.7891 99.6518 87.157C99.3322 86.5249 99.1724 85.7862 99.1724 84.9411C99.1724 84.0959 99.3322 83.3555 99.6518 82.7198C99.975 82.0842 100.43 81.5906 101.015 81.239C101.601 80.8874 102.294 80.7116 103.093 80.7116C103.892 80.7116 104.584 80.8874 105.17 81.239C105.756 81.5906 106.209 82.0842 106.529 82.7198C106.852 83.3555 107.013 84.0959 107.013 84.9411C107.013 85.7862 106.852 86.5249 106.529 87.157C106.209 87.7891 105.756 88.2809 105.17 88.6325C104.584 88.984 103.892 89.1598 103.093 89.1598ZM103.104 87.6151C103.537 87.6151 103.899 87.4961 104.19 87.2582C104.481 87.0167 104.698 86.6935 104.84 86.2887C104.986 85.8839 105.058 85.4329 105.058 84.9357C105.058 84.435 104.986 83.9822 104.84 83.5774C104.698 83.169 104.481 82.8441 104.19 82.6026C103.899 82.3612 103.537 82.2404 103.104 82.2404C102.66 82.2404 102.29 82.3612 101.996 82.6026C101.704 82.8441 101.486 83.169 101.34 83.5774C101.198 83.9822 101.127 84.435 101.127 84.9357C101.127 85.4329 101.198 85.8839 101.34 86.2887C101.486 86.6935 101.704 87.0167 101.996 87.2582C102.29 87.4961 102.66 87.6151 103.104 87.6151ZM113.865 85.5589V80.8182H115.793V89H113.923V87.5458H113.838C113.653 88.0039 113.35 88.3786 112.927 88.6697C112.508 88.9609 111.992 89.1065 111.377 89.1065C110.841 89.1065 110.367 88.9876 109.955 88.7496C109.547 88.5082 109.227 88.1584 108.996 87.7003C108.765 87.2386 108.65 86.6811 108.65 86.0277V80.8182H110.578V85.7294C110.578 86.2479 110.72 86.6598 111.004 86.9652C111.288 87.2706 111.661 87.4233 112.123 87.4233C112.407 87.4233 112.682 87.354 112.949 87.2156C113.215 87.0771 113.433 86.8711 113.604 86.5977C113.778 86.3207 113.865 85.9744 113.865 85.5589ZM117.776 89V80.8182H119.646V82.1818H119.731C119.88 81.7095 120.136 81.3455 120.498 81.0898C120.864 80.8306 121.281 80.701 121.75 80.701C121.856 80.701 121.975 80.7063 122.107 80.717C122.241 80.7241 122.353 80.7365 122.442 80.7543V82.5281C122.36 82.4996 122.231 82.4748 122.053 82.4535C121.879 82.4286 121.711 82.4162 121.547 82.4162C121.196 82.4162 120.88 82.4925 120.599 82.6452C120.322 82.7944 120.104 83.0021 119.944 83.2685C119.784 83.5348 119.704 83.842 119.704 84.19V89H117.776ZM25.4908 110.068V98.8182H27.3871V100.171H27.4989C27.5984 99.9723 27.7386 99.761 27.9197 99.5373C28.1009 99.31 28.3459 99.1165 28.6548 98.9567C28.9638 98.7933 29.358 98.7116 29.8374 98.7116C30.4695 98.7116 31.0394 98.8732 31.5472 99.1964C32.0586 99.516 32.4634 99.9901 32.7617 100.619C33.0636 101.244 33.2145 102.011 33.2145 102.92C33.2145 103.818 33.0671 104.582 32.7724 105.21C32.4776 105.839 32.0763 106.318 31.5685 106.648C31.0607 106.979 30.4854 107.144 29.8427 107.144C29.3739 107.144 28.9851 107.066 28.6761 106.909C28.3672 106.753 28.1186 106.565 27.9304 106.345C27.7457 106.121 27.6019 105.91 27.4989 105.711H27.419V110.068H25.4908ZM27.3817 102.909C27.3817 103.438 27.4563 103.902 27.6055 104.299C27.7582 104.697 27.9766 105.008 28.2607 105.232C28.5483 105.452 28.8963 105.562 29.3047 105.562C29.7308 105.562 30.0877 105.448 30.3754 105.221C30.663 104.99 30.8796 104.676 31.0252 104.278C31.1744 103.877 31.2489 103.42 31.2489 102.909C31.2489 102.401 31.1761 101.95 31.0305 101.556C30.8849 101.162 30.6683 100.853 30.3807 100.629C30.093 100.406 29.7344 100.294 29.3047 100.294C28.8928 100.294 28.543 100.402 28.2553 100.619C27.9677 100.835 27.7493 101.139 27.6001 101.529C27.4545 101.92 27.3817 102.38 27.3817 102.909ZM38.4347 107.16C37.6357 107.16 36.9432 106.984 36.3572 106.632C35.7713 106.281 35.3168 105.789 34.9936 105.157C34.674 104.525 34.5142 103.786 34.5142 102.941C34.5142 102.096 34.674 101.355 34.9936 100.72C35.3168 100.084 35.7713 99.5906 36.3572 99.239C36.9432 98.8874 37.6357 98.7116 38.4347 98.7116C39.2337 98.7116 39.9261 98.8874 40.5121 99.239C41.098 99.5906 41.5508 100.084 41.8704 100.72C42.1935 101.355 42.3551 102.096 42.3551 102.941C42.3551 103.786 42.1935 104.525 41.8704 105.157C41.5508 105.789 41.098 106.281 40.5121 106.632C39.9261 106.984 39.2337 107.16 38.4347 107.16ZM38.4453 105.615C38.8786 105.615 39.2408 105.496 39.532 105.258C39.8232 105.017 40.0398 104.694 40.1818 104.289C40.3274 103.884 40.4002 103.433 40.4002 102.936C40.4002 102.435 40.3274 101.982 40.1818 101.577C40.0398 101.169 39.8232 100.844 39.532 100.603C39.2408 100.361 38.8786 100.24 38.4453 100.24C38.0014 100.24 37.6321 100.361 37.3374 100.603C37.0462 100.844 36.8278 101.169 36.6822 101.577C36.5401 101.982 36.4691 102.435 36.4691 102.936C36.4691 103.433 36.5401 103.884 36.6822 104.289C36.8278 104.694 37.0462 105.017 37.3374 105.258C37.6321 105.496 38.0014 105.615 38.4453 105.615ZM43.9917 107V98.8182H45.92V107H43.9917ZM44.9612 97.657C44.6558 97.657 44.393 97.5558 44.1729 97.3533C43.9527 97.1474 43.8426 96.9006 43.8426 96.6129C43.8426 96.3217 43.9527 96.0749 44.1729 95.8725C44.393 95.6665 44.6558 95.5636 44.9612 95.5636C45.2702 95.5636 45.5329 95.6665 45.7496 95.8725C45.9697 96.0749 46.0798 96.3217 46.0798 96.6129C46.0798 96.9006 45.9697 97.1474 45.7496 97.3533C45.5329 97.5558 45.2702 97.657 44.9612 97.657ZM49.8311 102.206V107H47.9029V98.8182H49.7459V100.208H49.8418C50.03 99.7504 50.3301 99.3864 50.742 99.1165C51.1575 98.8466 51.6706 98.7116 52.2814 98.7116C52.8461 98.7116 53.3379 98.8324 53.7569 99.0739C54.1795 99.3153 54.5062 99.6651 54.737 100.123C54.9714 100.581 55.0868 101.137 55.0833 101.79V107H53.155V102.089C53.155 101.542 53.013 101.114 52.7289 100.805C52.4483 100.496 52.0595 100.342 51.5623 100.342C51.225 100.342 50.9249 100.416 50.6621 100.565C50.4029 100.711 50.1987 100.922 50.0495 101.199C49.9039 101.476 49.8311 101.812 49.8311 102.206ZM61.1291 98.8182V100.31H56.4256V98.8182H61.1291ZM57.5868 96.858H59.5151V104.539C59.5151 104.798 59.5542 104.997 59.6323 105.136C59.714 105.271 59.8205 105.363 59.9519 105.413C60.0833 105.462 60.2289 105.487 60.3887 105.487C60.5094 105.487 60.6195 105.478 60.7189 105.461C60.8219 105.443 60.9 105.427 60.9533 105.413L61.2782 106.92C61.1752 106.956 61.0279 106.995 60.8361 107.037C60.6479 107.08 60.4171 107.105 60.1436 107.112C59.6607 107.126 59.2257 107.053 58.8386 106.893C58.4515 106.73 58.1444 106.478 57.9171 106.137C57.6934 105.796 57.5833 105.37 57.5868 104.859V96.858ZM69.0912 100.981L67.3334 101.173C67.2836 100.995 67.1966 100.828 67.0724 100.672C66.9516 100.516 66.7883 100.39 66.5823 100.294C66.3763 100.198 66.1242 100.15 65.8259 100.15C65.4246 100.15 65.0873 100.237 64.8138 100.411C64.5439 100.585 64.4108 100.81 64.4143 101.087C64.4108 101.325 64.4978 101.519 64.6753 101.668C64.8564 101.817 65.1547 101.94 65.5702 102.036L66.9658 102.334C67.74 102.501 68.3153 102.765 68.6917 103.127C69.0716 103.49 69.2634 103.964 69.267 104.55C69.2634 105.065 69.1125 105.519 68.8142 105.913C68.5194 106.304 68.1093 106.609 67.5837 106.83C67.0581 107.05 66.4545 107.16 65.7726 107.16C64.7712 107.16 63.9651 106.95 63.3543 106.531C62.7435 106.109 62.3795 105.521 62.2623 104.768L64.1427 104.587C64.2279 104.956 64.409 105.235 64.686 105.423C64.963 105.612 65.3234 105.706 65.7673 105.706C66.2254 105.706 66.593 105.612 66.8699 105.423C67.1505 105.235 67.2907 105.002 67.2907 104.725C67.2907 104.491 67.2002 104.298 67.0191 104.145C66.8415 103.992 66.5645 103.875 66.1881 103.793L64.7925 103.5C64.0077 103.337 63.4271 103.062 63.0507 102.675C62.6743 102.284 62.4878 101.79 62.4914 101.194C62.4878 100.69 62.6246 100.253 62.9015 99.8835C63.1821 99.5107 63.5709 99.223 64.0681 99.0206C64.5688 98.8146 65.1459 98.7116 65.7993 98.7116C66.7581 98.7116 67.5127 98.9158 68.0631 99.3242C68.6171 99.7326 68.9598 100.285 69.0912 100.981ZM74.5777 107V98.8182H76.5059V107H74.5777ZM75.5471 97.657C75.2417 97.657 74.979 97.5558 74.7588 97.3533C74.5386 97.1474 74.4285 96.9006 74.4285 96.6129C74.4285 96.3217 74.5386 96.0749 74.7588 95.8725C74.979 95.6665 75.2417 95.5636 75.5471 95.5636C75.8561 95.5636 76.1189 95.6665 76.3355 95.8725C76.5557 96.0749 76.6657 96.3217 76.6657 96.6129C76.6657 96.9006 76.5557 97.1474 76.3355 97.3533C76.1189 97.5558 75.8561 97.657 75.5471 97.657ZM80.4171 102.206V107H78.4888V98.8182H80.3319V100.208H80.4277C80.6159 99.7504 80.916 99.3864 81.3279 99.1165C81.7434 98.8466 82.2566 98.7116 82.8674 98.7116C83.432 98.7116 83.9238 98.8324 84.3429 99.0739C84.7654 99.3153 85.0922 99.6651 85.323 100.123C85.5574 100.581 85.6728 101.137 85.6692 101.79V107H83.7409V102.089C83.7409 101.542 83.5989 101.114 83.3148 100.805C83.0343 100.496 82.6454 100.342 82.1483 100.342C81.8109 100.342 81.5108 100.416 81.248 100.565C80.9888 100.711 80.7846 100.922 80.6355 101.199C80.4899 101.476 80.4171 101.812 80.4171 102.206ZM93.7045 107.165C93.1861 107.165 92.7191 107.073 92.3036 106.888C91.8917 106.7 91.565 106.423 91.3235 106.057C91.0856 105.691 90.9666 105.24 90.9666 104.704C90.9666 104.243 91.0518 103.861 91.2223 103.559C91.3928 103.257 91.6254 103.016 91.9201 102.835C92.2148 102.653 92.5469 102.517 92.9162 102.424C93.2891 102.328 93.6744 102.259 94.0721 102.217C94.5515 102.167 94.9403 102.123 95.2386 102.083C95.5369 102.041 95.7536 101.977 95.8885 101.892C96.027 101.803 96.0962 101.666 96.0962 101.482V101.45C96.0962 101.048 95.9773 100.738 95.7393 100.517C95.5014 100.297 95.1587 100.187 94.7113 100.187C94.239 100.187 93.8643 100.29 93.5874 100.496C93.3139 100.702 93.1293 100.945 93.0334 101.226L91.233 100.97C91.375 100.473 91.6094 100.058 91.9361 99.7237C92.2628 99.3864 92.6623 99.1342 93.1346 98.9673C93.6069 98.7969 94.1289 98.7116 94.7006 98.7116C95.0948 98.7116 95.4872 98.7578 95.8778 98.8501C96.2685 98.9425 96.6254 99.0952 96.9485 99.3082C97.2717 99.5178 97.5309 99.8036 97.7262 100.166C97.9251 100.528 98.0245 100.981 98.0245 101.524V107H96.1708V105.876H96.1069C95.9897 106.103 95.8246 106.316 95.6115 106.515C95.402 106.711 95.1374 106.869 94.8178 106.989C94.5018 107.107 94.1307 107.165 93.7045 107.165ZM94.2053 105.748C94.5923 105.748 94.9279 105.672 95.212 105.519C95.4961 105.363 95.7145 105.157 95.8672 104.901C96.0234 104.646 96.1016 104.367 96.1016 104.065V103.101C96.0412 103.151 95.9382 103.197 95.7926 103.239C95.6506 103.282 95.4908 103.319 95.3132 103.351C95.1357 103.383 94.9599 103.412 94.7859 103.436C94.6119 103.461 94.4609 103.483 94.3331 103.5C94.0455 103.539 93.788 103.603 93.5607 103.692C93.3335 103.781 93.1541 103.905 93.0227 104.065C92.8913 104.221 92.8256 104.424 92.8256 104.672C92.8256 105.027 92.9553 105.295 93.2145 105.477C93.4737 105.658 93.804 105.748 94.2053 105.748ZM101.892 102.206V107H99.9634V98.8182H101.806V100.208H101.902C102.091 99.7504 102.391 99.3864 102.803 99.1165C103.218 98.8466 103.731 98.7116 104.342 98.7116C104.907 98.7116 105.398 98.8324 105.817 99.0739C106.24 99.3153 106.567 99.6651 106.798 100.123C107.032 100.581 107.147 101.137 107.144 101.79V107H105.216V102.089C105.216 101.542 105.074 101.114 104.789 100.805C104.509 100.496 104.12 100.342 103.623 100.342C103.286 100.342 102.985 100.416 102.723 100.565C102.463 100.711 102.259 100.922 102.11 101.199C101.964 101.476 101.892 101.812 101.892 102.206ZM27.8452 125.165C27.3267 125.165 26.8597 125.073 26.4442 124.888C26.0323 124.7 25.7056 124.423 25.4641 124.057C25.2262 123.691 25.1072 123.24 25.1072 122.704C25.1072 122.243 25.1925 121.861 25.3629 121.559C25.5334 121.257 25.766 121.016 26.0607 120.835C26.3555 120.653 26.6875 120.517 27.0568 120.424C27.4297 120.328 27.815 120.259 28.2127 120.217C28.6921 120.167 29.081 120.123 29.3793 120.083C29.6776 120.041 29.8942 119.977 30.0291 119.892C30.1676 119.803 30.2369 119.666 30.2369 119.482V119.45C30.2369 119.048 30.1179 118.738 29.88 118.517C29.642 118.297 29.2994 118.187 28.8519 118.187C28.3796 118.187 28.005 118.29 27.728 118.496C27.4545 118.702 27.2699 118.945 27.174 119.226L25.3736 118.97C25.5156 118.473 25.75 118.058 26.0767 117.724C26.4034 117.386 26.8029 117.134 27.2752 116.967C27.7475 116.797 28.2695 116.712 28.8413 116.712C29.2354 116.712 29.6278 116.758 30.0185 116.85C30.4091 116.942 30.766 117.095 31.0891 117.308C31.4123 117.518 31.6715 117.804 31.8668 118.166C32.0657 118.528 32.1651 118.981 32.1651 119.524V125H30.3114V123.876H30.2475C30.1303 124.103 29.9652 124.316 29.7521 124.515C29.5426 124.711 29.2781 124.869 28.9585 124.989C28.6424 125.107 28.2713 125.165 27.8452 125.165ZM28.3459 123.748C28.733 123.748 29.0685 123.672 29.3526 123.519C29.6367 123.363 29.8551 123.157 30.0078 122.901C30.1641 122.646 30.2422 122.367 30.2422 122.065V121.101C30.1818 121.151 30.0788 121.197 29.9332 121.239C29.7912 121.282 29.6314 121.319 29.4538 121.351C29.2763 121.383 29.1005 121.412 28.9265 121.436C28.7525 121.461 28.6016 121.483 28.4737 121.5C28.1861 121.539 27.9286 121.603 27.7013 121.692C27.4741 121.781 27.2947 121.905 27.1634 122.065C27.032 122.221 26.9663 122.424 26.9663 122.672C26.9663 123.027 27.0959 123.295 27.3551 123.477C27.6143 123.658 27.9446 123.748 28.3459 123.748ZM37.1403 125.144C36.4975 125.144 35.9222 124.979 35.4144 124.648C34.9066 124.318 34.5053 123.839 34.2106 123.21C33.9158 122.582 33.7685 121.818 33.7685 120.92C33.7685 120.011 33.9176 119.244 34.2159 118.619C34.5178 117.99 34.9244 117.516 35.4357 117.196C35.9471 116.873 36.517 116.712 37.1456 116.712C37.625 116.712 38.0192 116.793 38.3281 116.957C38.6371 117.116 38.8821 117.31 39.0632 117.537C39.2443 117.761 39.3846 117.972 39.484 118.171H39.5639V114.091H41.4975V125H39.6012V123.711H39.484C39.3846 123.91 39.2408 124.121 39.0526 124.345C38.8643 124.565 38.6158 124.753 38.3068 124.909C37.9979 125.066 37.609 125.144 37.1403 125.144ZM37.6783 123.562C38.0866 123.562 38.4347 123.452 38.7223 123.232C39.0099 123.008 39.2283 122.697 39.3775 122.299C39.5266 121.902 39.6012 121.438 39.6012 120.909C39.6012 120.38 39.5266 119.92 39.3775 119.529C39.2319 119.139 39.0153 118.835 38.7276 118.619C38.4435 118.402 38.0938 118.294 37.6783 118.294C37.2486 118.294 36.8899 118.406 36.6023 118.629C36.3146 118.853 36.098 119.162 35.9524 119.556C35.8068 119.95 35.734 120.401 35.734 120.909C35.734 121.42 35.8068 121.877 35.9524 122.278C36.1016 122.676 36.32 122.99 36.6076 123.221C36.8988 123.448 37.2557 123.562 37.6783 123.562ZM46.5885 125.144C45.9458 125.144 45.3705 124.979 44.8627 124.648C44.3548 124.318 43.9536 123.839 43.6588 123.21C43.3641 122.582 43.2167 121.818 43.2167 120.92C43.2167 120.011 43.3659 119.244 43.6642 118.619C43.966 117.99 44.3726 117.516 44.884 117.196C45.3953 116.873 45.9653 116.712 46.5938 116.712C47.0732 116.712 47.4674 116.793 47.7764 116.957C48.0853 117.116 48.3303 117.31 48.5115 117.537C48.6926 117.761 48.8328 117.972 48.9323 118.171H49.0122V114.091H50.9458V125H49.0494V123.711H48.9323C48.8328 123.91 48.689 124.121 48.5008 124.345C48.3126 124.565 48.064 124.753 47.7551 124.909C47.4461 125.066 47.0573 125.144 46.5885 125.144ZM47.1265 123.562C47.5349 123.562 47.8829 123.452 48.1705 123.232C48.4582 123.008 48.6766 122.697 48.8257 122.299C48.9749 121.902 49.0494 121.438 49.0494 120.909C49.0494 120.38 48.9749 119.92 48.8257 119.529C48.6801 119.139 48.4635 118.835 48.1759 118.619C47.8918 118.402 47.542 118.294 47.1265 118.294C46.6968 118.294 46.3382 118.406 46.0505 118.629C45.7629 118.853 45.5463 119.162 45.4007 119.556C45.2551 119.95 45.1823 120.401 45.1823 120.909C45.1823 121.42 45.2551 121.877 45.4007 122.278C45.5498 122.676 45.7682 122.99 46.0558 123.221C46.347 123.448 46.7039 123.562 47.1265 123.562ZM53.0005 125V116.818H54.9288V125H53.0005ZM53.97 115.657C53.6646 115.657 53.4018 115.556 53.1816 115.353C52.9615 115.147 52.8514 114.901 52.8514 114.613C52.8514 114.322 52.9615 114.075 53.1816 113.873C53.4018 113.667 53.6646 113.564 53.97 113.564C54.2789 113.564 54.5417 113.667 54.7583 113.873C54.9785 114.075 55.0886 114.322 55.0886 114.613C55.0886 114.901 54.9785 115.147 54.7583 115.353C54.5417 115.556 54.2789 115.657 53.97 115.657ZM60.9972 116.818V118.31H56.2938V116.818H60.9972ZM57.455 114.858H59.3833V122.539C59.3833 122.798 59.4223 122.997 59.5004 123.136C59.5821 123.271 59.6887 123.363 59.82 123.413C59.9514 123.462 60.097 123.487 60.2568 123.487C60.3776 123.487 60.4877 123.478 60.5871 123.461C60.6901 123.443 60.7682 123.427 60.8215 123.413L61.1464 124.92C61.0434 124.956 60.896 124.995 60.7043 125.037C60.5161 125.08 60.2852 125.105 60.0118 125.112C59.5289 125.126 59.0938 125.053 58.7068 124.893C58.3197 124.73 58.0125 124.478 57.7852 124.137C57.5615 123.796 57.4514 123.37 57.455 122.859V114.858ZM62.6099 125V116.818H64.5382V125H62.6099ZM63.5794 115.657C63.274 115.657 63.0112 115.556 62.791 115.353C62.5708 115.147 62.4608 114.901 62.4608 114.613C62.4608 114.322 62.5708 114.075 62.791 113.873C63.0112 113.667 63.274 113.564 63.5794 113.564C63.8883 113.564 64.1511 113.667 64.3677 113.873C64.5879 114.075 64.698 114.322 64.698 114.613C64.698 114.901 64.5879 115.147 64.3677 115.353C64.1511 115.556 63.8883 115.657 63.5794 115.657ZM70.0899 125.16C69.2909 125.16 68.5985 124.984 68.0125 124.632C67.4266 124.281 66.972 123.789 66.6489 123.157C66.3293 122.525 66.1695 121.786 66.1695 120.941C66.1695 120.096 66.3293 119.355 66.6489 118.72C66.972 118.084 67.4266 117.591 68.0125 117.239C68.5985 116.887 69.2909 116.712 70.0899 116.712C70.8889 116.712 71.5814 116.887 72.1673 117.239C72.7533 117.591 73.2061 118.084 73.5257 118.72C73.8488 119.355 74.0104 120.096 74.0104 120.941C74.0104 121.786 73.8488 122.525 73.5257 123.157C73.2061 123.789 72.7533 124.281 72.1673 124.632C71.5814 124.984 70.8889 125.16 70.0899 125.16ZM70.1006 123.615C70.5338 123.615 70.896 123.496 71.1872 123.258C71.4784 123.017 71.695 122.694 71.8371 122.289C71.9827 121.884 72.0555 121.433 72.0555 120.936C72.0555 120.435 71.9827 119.982 71.8371 119.577C71.695 119.169 71.4784 118.844 71.1872 118.603C70.896 118.361 70.5338 118.24 70.1006 118.24C69.6567 118.24 69.2874 118.361 68.9926 118.603C68.7014 118.844 68.483 119.169 68.3374 119.577C68.1954 119.982 68.1244 120.435 68.1244 120.936C68.1244 121.433 68.1954 121.884 68.3374 122.289C68.483 122.694 68.7014 123.017 68.9926 123.258C69.2874 123.496 69.6567 123.615 70.1006 123.615ZM77.5753 120.206V125H75.647V116.818H77.4901V118.208H77.5859C77.7741 117.75 78.0742 117.386 78.4862 117.116C78.9016 116.847 79.4148 116.712 80.0256 116.712C80.5902 116.712 81.082 116.832 81.5011 117.074C81.9237 117.315 82.2504 117.665 82.4812 118.123C82.7156 118.581 82.831 119.137 82.8274 119.79V125H80.8991V120.089C80.8991 119.542 80.7571 119.114 80.473 118.805C80.1925 118.496 79.8036 118.342 79.3065 118.342C78.9691 118.342 78.669 118.416 78.4062 118.565C78.147 118.711 77.9428 118.922 77.7937 119.199C77.6481 119.476 77.5753 119.812 77.5753 120.206ZM87.142 125.165C86.6236 125.165 86.1566 125.073 85.7411 124.888C85.3292 124.7 85.0025 124.423 84.761 124.057C84.5231 123.691 84.4041 123.24 84.4041 122.704C84.4041 122.243 84.4893 121.861 84.6598 121.559C84.8303 121.257 85.0629 121.016 85.3576 120.835C85.6523 120.653 85.9844 120.517 86.3537 120.424C86.7266 120.328 87.1119 120.259 87.5096 120.217C87.989 120.167 88.3778 120.123 88.6761 120.083C88.9744 120.041 89.1911 119.977 89.326 119.892C89.4645 119.803 89.5337 119.666 89.5337 119.482V119.45C89.5337 119.048 89.4148 118.738 89.1768 118.517C88.9389 118.297 88.5962 118.187 88.1488 118.187C87.6765 118.187 87.3018 118.29 87.0249 118.496C86.7514 118.702 86.5668 118.945 86.4709 119.226L84.6705 118.97C84.8125 118.473 85.0469 118.058 85.3736 117.724C85.7003 117.386 86.0998 117.134 86.5721 116.967C87.0444 116.797 87.5664 116.712 88.1381 116.712C88.5323 116.712 88.9247 116.758 89.3153 116.85C89.706 116.942 90.0629 117.095 90.386 117.308C90.7092 117.518 90.9684 117.804 91.1637 118.166C91.3626 118.528 91.462 118.981 91.462 119.524V125H89.6083V123.876H89.5444C89.4272 124.103 89.2621 124.316 89.049 124.515C88.8395 124.711 88.5749 124.869 88.2553 124.989C87.9393 125.107 87.5682 125.165 87.142 125.165ZM87.6428 123.748C88.0298 123.748 88.3654 123.672 88.6495 123.519C88.9336 123.363 89.152 123.157 89.3047 122.901C89.4609 122.646 89.5391 122.367 89.5391 122.065V121.101C89.4787 121.151 89.3757 121.197 89.2301 121.239C89.0881 121.282 88.9283 121.319 88.7507 121.351C88.5732 121.383 88.3974 121.412 88.2234 121.436C88.0494 121.461 87.8984 121.483 87.7706 121.5C87.483 121.539 87.2255 121.603 86.9982 121.692C86.771 121.781 86.5916 121.905 86.4602 122.065C86.3288 122.221 86.2631 122.424 86.2631 122.672C86.2631 123.027 86.3928 123.295 86.652 123.477C86.9112 123.658 87.2415 123.748 87.6428 123.748ZM95.3292 114.091V125H93.4009V114.091H95.3292ZM106.493 128.068V123.711H106.413C106.313 123.91 106.169 124.121 105.981 124.345C105.793 124.565 105.544 124.753 105.236 124.909C104.927 125.066 104.538 125.144 104.069 125.144C103.426 125.144 102.851 124.979 102.343 124.648C101.835 124.318 101.434 123.839 101.139 123.21C100.845 122.582 100.697 121.818 100.697 120.92C100.697 120.011 100.846 119.244 101.145 118.619C101.446 117.99 101.853 117.516 102.364 117.196C102.876 116.873 103.446 116.712 104.074 116.712C104.554 116.712 104.948 116.793 105.257 116.957C105.566 117.116 105.811 117.31 105.992 117.537C106.173 117.761 106.313 117.972 106.413 118.171H106.53V116.818H108.426V128.068H106.493ZM104.607 123.562C105.015 123.562 105.363 123.452 105.651 123.232C105.939 123.008 106.157 122.697 106.306 122.299C106.455 121.902 106.53 121.438 106.53 120.909C106.53 120.38 106.455 119.92 106.306 119.529C106.161 119.139 105.944 118.835 105.656 118.619C105.372 118.402 105.022 118.294 104.607 118.294C104.177 118.294 103.819 118.406 103.531 118.629C103.243 118.853 103.027 119.162 102.881 119.556C102.736 119.95 102.663 120.401 102.663 120.909C102.663 121.42 102.736 121.877 102.881 122.278C103.03 122.676 103.249 122.99 103.536 123.221C103.828 123.448 104.184 123.562 104.607 123.562ZM115.623 121.559V116.818H117.551V125H115.681V123.546H115.596C115.411 124.004 115.108 124.379 114.685 124.67C114.266 124.961 113.749 125.107 113.135 125.107C112.599 125.107 112.125 124.988 111.713 124.75C111.304 124.508 110.985 124.158 110.754 123.7C110.523 123.239 110.408 122.681 110.408 122.028V116.818H112.336V121.729C112.336 122.248 112.478 122.66 112.762 122.965C113.046 123.271 113.419 123.423 113.881 123.423C114.165 123.423 114.44 123.354 114.706 123.216C114.973 123.077 115.191 122.871 115.362 122.598C115.536 122.321 115.623 121.974 115.623 121.559ZM119.534 125V116.818H121.462V125H119.534ZM120.503 115.657C120.198 115.657 119.935 115.556 119.715 115.353C119.495 115.147 119.385 114.901 119.385 114.613C119.385 114.322 119.495 114.075 119.715 113.873C119.935 113.667 120.198 113.564 120.503 113.564C120.812 113.564 121.075 113.667 121.292 113.873C121.512 114.075 121.622 114.322 121.622 114.613C121.622 114.901 121.512 115.147 121.292 115.353C121.075 115.556 120.812 115.657 120.503 115.657ZM123.338 125V123.775L127.557 118.485V118.416H123.477V116.818H129.917V118.134L125.9 123.333V123.402H130.055V125H123.338Z" fill="white"/>
<path d="M36 181C42.4 162.2 34 151.833 29 149L44 149C50.4 163.8 41.3333 176.5 36 181Z" fill="black"/>
</svg>
