<svg width="187" height="127" viewBox="0 0 187 127" fill="none" xmlns="http://www.w3.org/2000/svg">
<rect x="0.5" width="186" height="95" rx="10.8054" fill="black"/>
<path d="M24.8303 24.0909H27.0621L29.7308 28.9169H29.8374L32.506 24.0909H34.7379L30.7695 30.9304V35H28.7987V30.9304L24.8303 24.0909ZM38.0977 35.1598C37.2987 35.1598 36.6063 34.984 36.0203 34.6325C35.4344 34.2809 34.9798 33.7891 34.6567 33.157C34.3371 32.5249 34.1773 31.7862 34.1773 30.9411C34.1773 30.0959 34.3371 29.3555 34.6567 28.7198C34.9798 28.0842 35.4344 27.5906 36.0203 27.239C36.6063 26.8874 37.2987 26.7116 38.0977 26.7116C38.8968 26.7116 39.5892 26.8874 40.1752 27.239C40.7611 27.5906 41.2139 28.0842 41.5335 28.7198C41.8566 29.3555 42.0182 30.0959 42.0182 30.9411C42.0182 31.7862 41.8566 32.5249 41.5335 33.157C41.2139 33.7891 40.7611 34.2809 40.1752 34.6325C39.5892 34.984 38.8968 35.1598 38.0977 35.1598ZM38.1084 33.6151C38.5416 33.6151 38.9039 33.4961 39.195 33.2582C39.4862 33.0167 39.7029 32.6935 39.8449 32.2887C39.9905 31.8839 40.0633 31.4329 40.0633 30.9357C40.0633 30.435 39.9905 29.9822 39.8449 29.5774C39.7029 29.169 39.4862 28.8441 39.195 28.6026C38.9039 28.3612 38.5416 28.2404 38.1084 28.2404C37.6645 28.2404 37.2952 28.3612 37.0004 28.6026C36.7093 28.8441 36.4909 29.169 36.3453 29.5774C36.2032 29.9822 36.1322 30.435 36.1322 30.9357C36.1322 31.4329 36.2032 31.8839 36.3453 32.2887C36.4909 32.6935 36.7093 33.0167 37.0004 33.2582C37.2952 33.4961 37.6645 33.6151 38.1084 33.6151ZM48.8697 31.5589V26.8182H50.7979V35H48.9283V33.5458H48.843C48.6584 34.0039 48.3548 34.3786 47.9322 34.6697C47.5131 34.9609 46.9964 35.1065 46.3821 35.1065C45.8459 35.1065 45.3718 34.9876 44.9599 34.7496C44.5515 34.5082 44.2319 34.1584 44.0011 33.7003C43.7702 33.2386 43.6548 32.6811 43.6548 32.0277V26.8182H45.5831V31.7294C45.5831 32.2479 45.7251 32.6598 46.0092 32.9652C46.2933 33.2706 46.6662 33.4233 47.1278 33.4233C47.4119 33.4233 47.6871 33.354 47.9535 33.2156C48.2198 33.0771 48.4382 32.8711 48.6087 32.5977C48.7827 32.3207 48.8697 31.9744 48.8697 31.5589ZM58.4298 30.206V35H56.5015V24.0909H58.3872V28.2085H58.483C58.6748 27.7468 58.9713 27.3828 59.3726 27.1165C59.7774 26.8466 60.2923 26.7116 60.9173 26.7116C61.4855 26.7116 61.9809 26.8306 62.4035 27.0685C62.8261 27.3065 63.1528 27.6545 63.3836 28.1126C63.618 28.5707 63.7352 29.13 63.7352 29.7905V35H61.8069V30.0888C61.8069 29.5384 61.6649 29.1104 61.3808 28.805C61.1002 28.4961 60.7061 28.3416 60.1982 28.3416C59.8573 28.3416 59.5519 28.4162 59.282 28.5653C59.0157 28.7109 58.8062 28.9222 58.6535 29.1992C58.5044 29.4762 58.4298 29.8118 58.4298 30.206ZM68.0551 35.1651C67.5367 35.1651 67.0697 35.0728 66.6542 34.8881C66.2423 34.6999 65.9156 34.4229 65.6741 34.0572C65.4362 33.6914 65.3172 33.2404 65.3172 32.7042C65.3172 32.2425 65.4024 31.8608 65.5729 31.5589C65.7433 31.2571 65.9759 31.0156 66.2707 30.8345C66.5654 30.6534 66.8975 30.5167 67.2668 30.4244C67.6396 30.3285 68.0249 30.2592 68.4227 30.2166C68.9021 30.1669 69.2909 30.1225 69.5892 30.0835C69.8875 30.0408 70.1041 29.9769 70.2391 29.8917C70.3776 29.8029 70.4468 29.6662 70.4468 29.4815V29.4496C70.4468 29.0483 70.3279 28.7376 70.0899 28.5174C69.852 28.2972 69.5093 28.1871 69.0619 28.1871C68.5896 28.1871 68.2149 28.2901 67.9379 28.4961C67.6645 28.7021 67.4798 28.9453 67.384 29.2259L65.5835 28.9702C65.7256 28.473 65.96 28.0575 66.2867 27.7237C66.6134 27.3864 67.0129 27.1342 67.4852 26.9673C67.9575 26.7969 68.4795 26.7116 69.0512 26.7116C69.4454 26.7116 69.8378 26.7578 70.2284 26.8501C70.6191 26.9425 70.9759 27.0952 71.2991 27.3082C71.6222 27.5178 71.8815 27.8036 72.0768 28.1658C72.2757 28.5281 72.3751 28.9808 72.3751 29.5241V35H70.5214V33.8761H70.4575C70.3403 34.1033 70.1752 34.3164 69.9621 34.5153C69.7526 34.7106 69.488 34.8686 69.1684 34.9893C68.8524 35.1065 68.4813 35.1651 68.0551 35.1651ZM68.5558 33.7482C68.9429 33.7482 69.2785 33.6719 69.5626 33.5192C69.8467 33.3629 70.0651 33.157 70.2178 32.9013C70.374 32.6456 70.4521 32.3668 70.4521 32.065V31.1009C70.3918 31.1506 70.2888 31.1967 70.1432 31.2393C70.0012 31.282 69.8414 31.3192 69.6638 31.3512C69.4862 31.3832 69.3105 31.4116 69.1365 31.4364C68.9624 31.4613 68.8115 31.4826 68.6837 31.5004C68.396 31.5394 68.1386 31.6033 67.9113 31.6921C67.684 31.7809 67.5047 31.9052 67.3733 32.065C67.2419 32.2212 67.1762 32.4237 67.1762 32.6722C67.1762 33.0273 67.3058 33.2955 67.5651 33.4766C67.8243 33.6577 68.1546 33.7482 68.5558 33.7482ZM81.3293 26.8182L78.4156 35H76.2849L73.3712 26.8182H75.4273L77.3076 32.896H77.3928L79.2785 26.8182H81.3293ZM86.0075 35.1598C85.1871 35.1598 84.4787 34.9893 83.8821 34.6484C83.2891 34.304 82.8327 33.8175 82.5131 33.1889C82.1935 32.5568 82.0337 31.8129 82.0337 30.957C82.0337 30.1154 82.1935 29.3768 82.5131 28.7411C82.8363 28.1019 83.2873 27.6048 83.8661 27.2496C84.445 26.891 85.125 26.7116 85.9062 26.7116C86.4105 26.7116 86.8864 26.7933 87.3338 26.9567C87.7848 27.1165 88.1825 27.3651 88.527 27.7024C88.875 28.0398 89.1484 28.4695 89.3473 28.9915C89.5462 29.5099 89.6456 30.1278 89.6456 30.8452V31.4364H82.9393V30.1367H87.7972C87.7937 29.7674 87.7138 29.4389 87.5575 29.1513C87.4013 28.8601 87.1829 28.631 86.9023 28.4641C86.6254 28.2972 86.3022 28.2138 85.9329 28.2138C85.5387 28.2138 85.1925 28.3097 84.8942 28.5014C84.5959 28.6896 84.3633 28.9382 84.1964 29.2472C84.033 29.5526 83.9496 29.8881 83.946 30.2539V31.3885C83.946 31.8643 84.033 32.2727 84.207 32.6136C84.381 32.951 84.6243 33.2102 84.9368 33.3913C85.2493 33.5689 85.6151 33.6577 86.0341 33.6577C86.3146 33.6577 86.5685 33.6186 86.7958 33.5405C87.0231 33.4588 87.2202 33.3398 87.3871 33.1836C87.554 33.0273 87.68 32.8338 87.7653 32.603L89.5657 32.8054C89.4521 33.2812 89.2354 33.6967 88.9158 34.0518C88.5998 34.4034 88.195 34.6768 87.7013 34.8722C87.2077 35.0639 86.6431 35.1598 86.0075 35.1598ZM97.352 35.1651C96.8335 35.1651 96.3666 35.0728 95.9511 34.8881C95.5392 34.6999 95.2124 34.4229 94.971 34.0572C94.733 33.6914 94.6141 33.2404 94.6141 32.7042C94.6141 32.2425 94.6993 31.8608 94.8698 31.5589C95.0402 31.2571 95.2728 31.0156 95.5676 30.8345C95.8623 30.6534 96.1943 30.5167 96.5637 30.4244C96.9365 30.3285 97.3218 30.2592 97.7195 30.2166C98.199 30.1669 98.5878 30.1225 98.8861 30.0835C99.1844 30.0408 99.401 29.9769 99.536 29.8917C99.6744 29.8029 99.7437 29.6662 99.7437 29.4815V29.4496C99.7437 29.0483 99.6247 28.7376 99.3868 28.5174C99.1489 28.2972 98.8062 28.1871 98.3588 28.1871C97.8865 28.1871 97.5118 28.2901 97.2348 28.4961C96.9614 28.7021 96.7767 28.9453 96.6808 29.2259L94.8804 28.9702C95.0225 28.473 95.2568 28.0575 95.5835 27.7237C95.9102 27.3864 96.3097 27.1342 96.782 26.9673C97.2544 26.7969 97.7764 26.7116 98.3481 26.7116C98.7423 26.7116 99.1347 26.7578 99.5253 26.8501C99.9159 26.9425 100.273 27.0952 100.596 27.3082C100.919 27.5178 101.178 27.8036 101.374 28.1658C101.573 28.5281 101.672 28.9808 101.672 29.5241V35H99.8183V33.8761H99.7544C99.6372 34.1033 99.472 34.3164 99.259 34.5153C99.0494 34.7106 98.7849 34.8686 98.4653 34.9893C98.1492 35.1065 97.7781 35.1651 97.352 35.1651ZM97.8527 33.7482C98.2398 33.7482 98.5754 33.6719 98.8595 33.5192C99.1436 33.3629 99.3619 33.157 99.5146 32.9013C99.6709 32.6456 99.749 32.3668 99.749 32.065V31.1009C99.6887 31.1506 99.5857 31.1967 99.4401 31.2393C99.298 31.282 99.1382 31.3192 98.9607 31.3512C98.7831 31.3832 98.6073 31.4116 98.4333 31.4364C98.2593 31.4613 98.1084 31.4826 97.9806 31.5004C97.6929 31.5394 97.4355 31.6033 97.2082 31.6921C96.9809 31.7809 96.8016 31.9052 96.6702 32.065C96.5388 32.2212 96.4731 32.4237 96.4731 32.6722C96.4731 33.0273 96.6027 33.2955 96.8619 33.4766C97.1212 33.6577 97.4514 33.7482 97.8527 33.7482ZM110.9 35.1598C110.084 35.1598 109.382 34.9805 108.796 34.6218C108.214 34.2631 107.765 33.7678 107.449 33.1357C107.136 32.5 106.98 31.7685 106.98 30.9411C106.98 30.1101 107.14 29.3768 107.459 28.7411C107.779 28.1019 108.23 27.6048 108.812 27.2496C109.398 26.891 110.091 26.7116 110.89 26.7116C111.554 26.7116 112.142 26.8342 112.653 27.0792C113.168 27.3207 113.578 27.6634 113.883 28.1072C114.189 28.5476 114.363 29.0625 114.405 29.652H112.562C112.488 29.2578 112.31 28.9293 112.03 28.6665C111.753 28.4002 111.382 28.267 110.916 28.267C110.522 28.267 110.176 28.3736 109.878 28.5866C109.579 28.7962 109.347 29.098 109.18 29.4922C109.017 29.8864 108.935 30.3587 108.935 30.9091C108.935 31.4666 109.017 31.946 109.18 32.3473C109.343 32.745 109.572 33.0522 109.867 33.2688C110.165 33.4819 110.515 33.5884 110.916 33.5884C111.201 33.5884 111.454 33.5352 111.678 33.4286C111.905 33.3185 112.095 33.1605 112.248 32.9545C112.401 32.7486 112.506 32.4982 112.562 32.2035H114.405C114.359 32.7823 114.189 33.2955 113.894 33.7429C113.599 34.1868 113.198 34.5348 112.69 34.7869C112.182 35.0355 111.586 35.1598 110.9 35.1598ZM119.611 35.1598C118.791 35.1598 118.082 34.9893 117.486 34.6484C116.893 34.304 116.436 33.8175 116.117 33.1889C115.797 32.5568 115.637 31.8129 115.637 30.957C115.637 30.1154 115.797 29.3768 116.117 28.7411C116.44 28.1019 116.891 27.6048 117.47 27.2496C118.048 26.891 118.729 26.7116 119.51 26.7116C120.014 26.7116 120.49 26.7933 120.937 26.9567C121.388 27.1165 121.786 27.3651 122.131 27.7024C122.479 28.0398 122.752 28.4695 122.951 28.9915C123.15 29.5099 123.249 30.1278 123.249 30.8452V31.4364H116.543V30.1367H121.401C121.397 29.7674 121.317 29.4389 121.161 29.1513C121.005 28.8601 120.786 28.631 120.506 28.4641C120.229 28.2972 119.906 28.2138 119.536 28.2138C119.142 28.2138 118.796 28.3097 118.498 28.5014C118.199 28.6896 117.967 28.9382 117.8 29.2472C117.637 29.5526 117.553 29.8881 117.55 30.2539V31.3885C117.55 31.8643 117.637 32.2727 117.811 32.6136C117.985 32.951 118.228 33.2102 118.54 33.3913C118.853 33.5689 119.219 33.6577 119.638 33.6577C119.918 33.6577 120.172 33.6186 120.399 33.5405C120.627 33.4588 120.824 33.3398 120.991 33.1836C121.157 33.0273 121.284 32.8338 121.369 32.603L123.169 32.8054C123.056 33.2812 122.839 33.6967 122.519 34.0518C122.203 34.4034 121.798 34.6768 121.305 34.8722C120.811 35.0639 120.247 35.1598 119.611 35.1598ZM124.88 35V26.8182H126.75V28.1818H126.835C126.984 27.7095 127.24 27.3455 127.602 27.0898C127.968 26.8306 128.385 26.701 128.854 26.701C128.961 26.701 129.08 26.7063 129.211 26.717C129.346 26.7241 129.458 26.7365 129.547 26.7543V28.5281C129.465 28.4996 129.335 28.4748 129.158 28.4535C128.984 28.4286 128.815 28.4162 128.652 28.4162C128.3 28.4162 127.984 28.4925 127.704 28.6452C127.427 28.7944 127.208 29.0021 127.048 29.2685C126.889 29.5348 126.809 29.842 126.809 30.19V35H124.88ZM135.353 26.8182V28.3097H130.649V26.8182H135.353ZM131.81 24.858H133.739V32.5391C133.739 32.7983 133.778 32.9972 133.856 33.1357C133.938 33.2706 134.044 33.3629 134.176 33.4126C134.307 33.4624 134.453 33.4872 134.612 33.4872C134.733 33.4872 134.843 33.4783 134.943 33.4606C135.046 33.4428 135.124 33.4268 135.177 33.4126L135.502 34.9201C135.399 34.9556 135.252 34.9947 135.06 35.0373C134.872 35.0799 134.641 35.1048 134.367 35.1119C133.884 35.1261 133.449 35.0533 133.062 34.8935C132.675 34.7301 132.368 34.478 132.141 34.1371C131.917 33.7962 131.807 33.37 131.81 32.8587V24.858ZM139.32 35.1651C138.801 35.1651 138.334 35.0728 137.919 34.8881C137.507 34.6999 137.18 34.4229 136.939 34.0572C136.701 33.6914 136.582 33.2404 136.582 32.7042C136.582 32.2425 136.667 31.8608 136.838 31.5589C137.008 31.2571 137.241 31.0156 137.535 30.8345C137.83 30.6534 138.162 30.5167 138.531 30.4244C138.904 30.3285 139.29 30.2592 139.687 30.2166C140.167 30.1669 140.556 30.1225 140.854 30.0835C141.152 30.0408 141.369 29.9769 141.504 29.8917C141.642 29.8029 141.711 29.6662 141.711 29.4815V29.4496C141.711 29.0483 141.593 28.7376 141.355 28.5174C141.117 28.2972 140.774 28.1871 140.327 28.1871C139.854 28.1871 139.48 28.2901 139.203 28.4961C138.929 28.7021 138.744 28.9453 138.649 29.2259L136.848 28.9702C136.99 28.473 137.225 28.0575 137.551 27.7237C137.878 27.3864 138.278 27.1342 138.75 26.9673C139.222 26.7969 139.744 26.7116 140.316 26.7116C140.71 26.7116 141.102 26.7578 141.493 26.8501C141.884 26.9425 142.241 27.0952 142.564 27.3082C142.887 27.5178 143.146 27.8036 143.341 28.1658C143.54 28.5281 143.64 28.9808 143.64 29.5241V35H141.786V33.8761H141.722C141.605 34.1033 141.44 34.3164 141.227 34.5153C141.017 34.7106 140.753 34.8686 140.433 34.9893C140.117 35.1065 139.746 35.1651 139.32 35.1651ZM139.82 33.7482C140.208 33.7482 140.543 33.6719 140.827 33.5192C141.111 33.3629 141.33 33.157 141.482 32.9013C141.639 32.6456 141.717 32.3668 141.717 32.065V31.1009C141.656 31.1506 141.553 31.1967 141.408 31.2393C141.266 31.282 141.106 31.3192 140.928 31.3512C140.751 31.3832 140.575 31.4116 140.401 31.4364C140.227 31.4613 140.076 31.4826 139.948 31.5004C139.661 31.5394 139.403 31.6033 139.176 31.6921C138.949 31.7809 138.769 31.9052 138.638 32.065C138.507 32.2212 138.441 32.4237 138.441 32.6722C138.441 33.0273 138.57 33.2955 138.83 33.4766C139.089 33.6577 139.419 33.7482 139.82 33.7482ZM145.579 35V26.8182H147.507V35H145.579ZM146.548 25.657C146.243 25.657 145.98 25.5558 145.76 25.3533C145.54 25.1474 145.43 24.9006 145.43 24.6129C145.43 24.3217 145.54 24.0749 145.76 23.8725C145.98 23.6665 146.243 23.5636 146.548 23.5636C146.857 23.5636 147.12 23.6665 147.336 23.8725C147.557 24.0749 147.667 24.3217 147.667 24.6129C147.667 24.9006 147.557 25.1474 147.336 25.3533C147.12 25.5558 146.857 25.657 146.548 25.657ZM151.418 30.206V35H149.49V26.8182H151.333V28.2085H151.429C151.617 27.7504 151.917 27.3864 152.329 27.1165C152.744 26.8466 153.258 26.7116 153.868 26.7116C154.433 26.7116 154.925 26.8324 155.344 27.0739C155.766 27.3153 156.093 27.6651 156.324 28.1232C156.558 28.5813 156.674 29.1371 156.67 29.7905V35H154.742V30.0888C154.742 29.5419 154.6 29.114 154.316 28.805C154.035 28.4961 153.646 28.3416 153.149 28.3416C152.812 28.3416 152.512 28.4162 152.249 28.5653C151.99 28.7109 151.786 28.9222 151.636 29.1992C151.491 29.4762 151.418 29.8118 151.418 30.206ZM29.5763 44.8182V46.3097H24.8729V44.8182H29.5763ZM26.0341 42.858H27.9624V50.5391C27.9624 50.7983 28.0014 50.9972 28.0795 51.1357C28.1612 51.2706 28.2678 51.3629 28.3991 51.4126C28.5305 51.4624 28.6761 51.4872 28.8359 51.4872C28.9567 51.4872 29.0668 51.4783 29.1662 51.4606C29.2692 51.4428 29.3473 51.4268 29.4006 51.4126L29.7255 52.9201C29.6225 52.9556 29.4751 52.9947 29.2834 53.0373C29.0952 53.0799 28.8643 53.1048 28.5909 53.1119C28.108 53.1261 27.6729 53.0533 27.2859 52.8935C26.8988 52.7301 26.5916 52.478 26.3643 52.1371C26.1406 51.7962 26.0305 51.37 26.0341 50.8587V42.858ZM31.189 53V44.8182H33.1173V53H31.189ZM32.1585 43.657C31.8531 43.657 31.5903 43.5558 31.3701 43.3533C31.1499 43.1474 31.0399 42.9006 31.0399 42.6129C31.0399 42.3217 31.1499 42.0749 31.3701 41.8725C31.5903 41.6665 31.8531 41.5636 32.1585 41.5636C32.4674 41.5636 32.7302 41.6665 32.9468 41.8725C33.167 42.0749 33.2771 42.3217 33.2771 42.6129C33.2771 42.9006 33.167 43.1474 32.9468 43.3533C32.7302 43.5558 32.4674 43.657 32.1585 43.657ZM35.1001 53V44.8182H36.9432V46.2085H37.0391C37.2095 45.7397 37.4918 45.3739 37.886 45.1112C38.2802 44.8448 38.7507 44.7116 39.2976 44.7116C39.8516 44.7116 40.3185 44.8466 40.6985 45.1165C41.082 45.3828 41.3519 45.7468 41.5082 46.2085H41.5934C41.7745 45.7539 42.0799 45.3917 42.5096 45.1218C42.9428 44.8484 43.456 44.7116 44.049 44.7116C44.8018 44.7116 45.4162 44.9496 45.892 45.4254C46.3679 45.9013 46.6058 46.5955 46.6058 47.5082V53H44.6722V47.8065C44.6722 47.2987 44.5373 46.9276 44.2674 46.6932C43.9975 46.4553 43.6673 46.3363 43.2766 46.3363C42.8114 46.3363 42.4474 46.4819 42.1847 46.7731C41.9254 47.0607 41.7958 47.4354 41.7958 47.897V53H39.9048V47.7266C39.9048 47.304 39.777 46.9666 39.5213 46.7145C39.2692 46.4624 38.9389 46.3363 38.5305 46.3363C38.2536 46.3363 38.0014 46.4073 37.7741 46.5494C37.5469 46.6879 37.3658 46.8849 37.2308 47.1406C37.0959 47.3928 37.0284 47.6875 37.0284 48.0249V53H35.1001ZM52.1842 53.1598C51.3639 53.1598 50.6555 52.9893 50.0589 52.6484C49.4658 52.304 49.0095 51.8175 48.6899 51.1889C48.3703 50.5568 48.2105 49.8129 48.2105 48.957C48.2105 48.1154 48.3703 47.3768 48.6899 46.7411C49.0131 46.1019 49.464 45.6048 50.0429 45.2496C50.6217 44.891 51.3018 44.7116 52.083 44.7116C52.5873 44.7116 53.0631 44.7933 53.5106 44.9567C53.9616 45.1165 54.3593 45.3651 54.7037 45.7024C55.0518 46.0398 55.3252 46.4695 55.5241 46.9915C55.7229 47.5099 55.8224 48.1278 55.8224 48.8452V49.4364H49.116V48.1367H53.974C53.9704 47.7674 53.8905 47.4389 53.7343 47.1513C53.578 46.8601 53.3596 46.631 53.0791 46.4641C52.8021 46.2972 52.479 46.2138 52.1096 46.2138C51.7155 46.2138 51.3692 46.3097 51.0709 46.5014C50.7726 46.6896 50.54 46.9382 50.3731 47.2472C50.2098 47.5526 50.1263 47.8881 50.1228 48.2539V49.3885C50.1228 49.8643 50.2098 50.2727 50.3838 50.6136C50.5578 50.951 50.801 51.2102 51.1135 51.3913C51.426 51.5689 51.7918 51.6577 52.2108 51.6577C52.4914 51.6577 52.7453 51.6186 52.9726 51.5405C53.1998 51.4588 53.3969 51.3398 53.5638 51.1836C53.7307 51.0273 53.8568 50.8338 53.942 50.603L55.7425 50.8054C55.6288 51.2812 55.4122 51.6967 55.0926 52.0518C54.7765 52.4034 54.3717 52.6768 53.8781 52.8722C53.3845 53.0639 52.8199 53.1598 52.1842 53.1598ZM65.2599 44.8182V46.3097H60.5565V44.8182H65.2599ZM61.7177 42.858H63.646V50.5391C63.646 50.7983 63.685 50.9972 63.7631 51.1357C63.8448 51.2706 63.9513 51.3629 64.0827 51.4126C64.2141 51.4624 64.3597 51.4872 64.5195 51.4872C64.6403 51.4872 64.7504 51.4783 64.8498 51.4606C64.9528 51.4428 65.0309 51.4268 65.0842 51.4126L65.4091 52.9201C65.3061 52.9556 65.1587 52.9947 64.967 53.0373C64.7788 53.0799 64.5479 53.1048 64.2745 53.1119C63.7915 53.1261 63.3565 53.0533 62.9695 52.8935C62.5824 52.7301 62.2752 52.478 62.0479 52.1371C61.8242 51.7962 61.7141 51.37 61.7177 50.8587V42.858ZM70.3536 53.1598C69.5546 53.1598 68.8621 52.984 68.2762 52.6325C67.6903 52.2809 67.2357 51.7891 66.9126 51.157C66.593 50.5249 66.4331 49.7862 66.4331 48.9411C66.4331 48.0959 66.593 47.3555 66.9126 46.7198C67.2357 46.0842 67.6903 45.5906 68.2762 45.239C68.8621 44.8874 69.5546 44.7116 70.3536 44.7116C71.1526 44.7116 71.8451 44.8874 72.431 45.239C73.017 45.5906 73.4697 46.0842 73.7893 46.7198C74.1125 47.3555 74.2741 48.0959 74.2741 48.9411C74.2741 49.7862 74.1125 50.5249 73.7893 51.157C73.4697 51.7891 73.017 52.2809 72.431 52.6325C71.8451 52.984 71.1526 53.1598 70.3536 53.1598ZM70.3643 51.6151C70.7975 51.6151 71.1597 51.4961 71.4509 51.2582C71.7421 51.0167 71.9587 50.6935 72.1008 50.2887C72.2464 49.8839 72.3192 49.4329 72.3192 48.9357C72.3192 48.435 72.2464 47.9822 72.1008 47.5774C71.9587 47.169 71.7421 46.8441 71.4509 46.6026C71.1597 46.3612 70.7975 46.2404 70.3643 46.2404C69.9204 46.2404 69.551 46.3612 69.2563 46.6026C68.9651 46.8441 68.7467 47.169 68.6011 47.5774C68.4591 47.9822 68.3881 48.435 68.3881 48.9357C68.3881 49.4329 68.4591 49.8839 68.6011 50.2887C68.7467 50.6935 68.9651 51.0167 69.2563 51.2582C69.551 51.4961 69.9204 51.6151 70.3643 51.6151ZM81.9858 53.1651C81.4673 53.1651 81.0004 53.0728 80.5849 52.8881C80.1729 52.6999 79.8462 52.4229 79.6048 52.0572C79.3668 51.6914 79.2479 51.2404 79.2479 50.7042C79.2479 50.2425 79.3331 49.8608 79.5036 49.5589C79.674 49.2571 79.9066 49.0156 80.2013 48.8345C80.4961 48.6534 80.8281 48.5167 81.1974 48.4244C81.5703 48.3285 81.9556 48.2592 82.3533 48.2166C82.8327 48.1669 83.2216 48.1225 83.5199 48.0835C83.8182 48.0408 84.0348 47.9769 84.1697 47.8917C84.3082 47.8029 84.3775 47.6662 84.3775 47.4815V47.4496C84.3775 47.0483 84.2585 46.7376 84.0206 46.5174C83.7827 46.2972 83.44 46.1871 82.9925 46.1871C82.5202 46.1871 82.1456 46.2901 81.8686 46.4961C81.5952 46.7021 81.4105 46.9453 81.3146 47.2259L79.5142 46.9702C79.6563 46.473 79.8906 46.0575 80.2173 45.7237C80.544 45.3864 80.9435 45.1342 81.4158 44.9673C81.8881 44.7969 82.4102 44.7116 82.9819 44.7116C83.3761 44.7116 83.7685 44.7578 84.1591 44.8501C84.5497 44.9425 84.9066 45.0952 85.2298 45.3082C85.5529 45.5178 85.8121 45.8036 86.0075 46.1658C86.2063 46.5281 86.3058 46.9808 86.3058 47.5241V53H84.4521V51.8761H84.3881C84.271 52.1033 84.1058 52.3164 83.8928 52.5153C83.6832 52.7106 83.4187 52.8686 83.0991 52.9893C82.783 53.1065 82.4119 53.1651 81.9858 53.1651ZM82.4865 51.7482C82.8736 51.7482 83.2092 51.6719 83.4933 51.5192C83.7773 51.3629 83.9957 51.157 84.1484 50.9013C84.3047 50.6456 84.3828 50.3668 84.3828 50.065V49.1009C84.3224 49.1506 84.2195 49.1967 84.0739 49.2393C83.9318 49.282 83.772 49.3192 83.5945 49.3512C83.4169 49.3832 83.2411 49.4116 83.0671 49.4364C82.8931 49.4613 82.7422 49.4826 82.6143 49.5004C82.3267 49.5394 82.0692 49.6033 81.842 49.6921C81.6147 49.7809 81.4354 49.9052 81.304 50.065C81.1726 50.2212 81.1069 50.4237 81.1069 50.6722C81.1069 51.0273 81.2365 51.2955 81.4957 51.4766C81.755 51.6577 82.0852 51.7482 82.4865 51.7482ZM90.1729 48.206V53H88.2447V44.8182H90.0877V46.2085H90.1836C90.3718 45.7504 90.6719 45.3864 91.0838 45.1165C91.4993 44.8466 92.0124 44.7116 92.6232 44.7116C93.1879 44.7116 93.6797 44.8324 94.0987 45.0739C94.5213 45.3153 94.848 45.6651 95.0788 46.1232C95.3132 46.5813 95.4286 47.1371 95.4251 47.7905V53H93.4968V48.0888C93.4968 47.5419 93.3548 47.114 93.0707 46.805C92.7901 46.4961 92.4013 46.3416 91.9041 46.3416C91.5668 46.3416 91.2667 46.4162 91.0039 46.5653C90.7447 46.7109 90.5405 46.9222 90.3913 47.1992C90.2457 47.4762 90.1729 47.8118 90.1729 48.206ZM103.852 46.9808L102.094 47.1726C102.044 46.995 101.957 46.8281 101.833 46.6719C101.712 46.5156 101.549 46.3896 101.343 46.2937C101.137 46.1978 100.885 46.1499 100.587 46.1499C100.185 46.1499 99.848 46.2369 99.5746 46.4109C99.3047 46.5849 99.1715 46.8104 99.1751 47.0874C99.1715 47.3253 99.2585 47.5188 99.4361 47.668C99.6172 47.8171 99.9155 47.9396 100.331 48.0355L101.727 48.3338C102.501 48.5007 103.076 48.7653 103.452 49.1275C103.832 49.4897 104.024 49.9638 104.028 50.5497C104.024 51.0646 103.873 51.5192 103.575 51.9134C103.28 52.304 102.87 52.6094 102.344 52.8295C101.819 53.0497 101.215 53.1598 100.533 53.1598C99.532 53.1598 98.7259 52.9503 98.1151 52.5312C97.5043 52.1087 97.1403 51.521 97.0231 50.7681L98.9034 50.587C98.9886 50.9563 99.1697 51.2351 99.4467 51.4233C99.7237 51.6115 100.084 51.7056 100.528 51.7056C100.986 51.7056 101.354 51.6115 101.631 51.4233C101.911 51.2351 102.051 51.0025 102.051 50.7255C102.051 50.4911 101.961 50.2976 101.78 50.1449C101.602 49.9922 101.325 49.875 100.949 49.7933L99.5533 49.5004C98.7685 49.337 98.1879 49.0618 97.8114 48.6747C97.435 48.2841 97.2486 47.7905 97.2521 47.1939C97.2486 46.6896 97.3853 46.2528 97.6623 45.8835C97.9428 45.5107 98.3317 45.223 98.8288 45.0206C99.3295 44.8146 99.9066 44.7116 100.56 44.7116C101.519 44.7116 102.273 44.9158 102.824 45.3242C103.378 45.7326 103.721 46.2848 103.852 46.9808ZM107.306 53L104.994 44.8182H106.96L108.398 50.571H108.473L109.943 44.8182H111.887L113.357 50.5391H113.437L114.854 44.8182H116.825L114.508 53H112.5L110.966 47.4709H110.854L109.32 53H107.306ZM121.559 53.1598C120.739 53.1598 120.03 52.9893 119.434 52.6484C118.841 52.304 118.384 51.8175 118.065 51.1889C117.745 50.5568 117.585 49.8129 117.585 48.957C117.585 48.1154 117.745 47.3768 118.065 46.7411C118.388 46.1019 118.839 45.6048 119.418 45.2496C119.997 44.891 120.677 44.7116 121.458 44.7116C121.962 44.7116 122.438 44.7933 122.886 44.9567C123.337 45.1165 123.734 45.3651 124.079 45.7024C124.427 46.0398 124.7 46.4695 124.899 46.9915C125.098 47.5099 125.197 48.1278 125.197 48.8452V49.4364H118.491V48.1367H123.349C123.345 47.7674 123.266 47.4389 123.109 47.1513C122.953 46.8601 122.735 46.631 122.454 46.4641C122.177 46.2972 121.854 46.2138 121.485 46.2138C121.09 46.2138 120.744 46.3097 120.446 46.5014C120.148 46.6896 119.915 46.9382 119.748 47.2472C119.585 47.5526 119.501 47.8881 119.498 48.2539V49.3885C119.498 49.8643 119.585 50.2727 119.759 50.6136C119.933 50.951 120.176 51.2102 120.489 51.3913C120.801 51.5689 121.167 51.6577 121.586 51.6577C121.866 51.6577 122.12 51.6186 122.348 51.5405C122.575 51.4588 122.772 51.3398 122.939 51.1836C123.106 51.0273 123.232 50.8338 123.317 50.603L125.117 50.8054C125.004 51.2812 124.787 51.6967 124.468 52.0518C124.152 52.4034 123.747 52.6768 123.253 52.8722C122.759 53.0639 122.195 53.1598 121.559 53.1598ZM126.829 53V44.8182H128.698V46.1818H128.784C128.933 45.7095 129.188 45.3455 129.551 45.0898C129.916 44.8306 130.334 44.701 130.802 44.701C130.909 44.701 131.028 44.7063 131.159 44.717C131.294 44.7241 131.406 44.7365 131.495 44.7543V46.5281C131.413 46.4996 131.284 46.4748 131.106 46.4535C130.932 46.4286 130.763 46.4162 130.6 46.4162C130.248 46.4162 129.932 46.4925 129.652 46.6452C129.375 46.7944 129.156 47.0021 128.997 47.2685C128.837 47.5348 128.757 47.842 128.757 48.19V53H126.829ZM140.582 44.8182V46.3097H135.879V44.8182H140.582ZM137.04 42.858H138.968V50.5391C138.968 50.7983 139.007 50.9972 139.085 51.1357C139.167 51.2706 139.274 51.3629 139.405 51.4126C139.536 51.4624 139.682 51.4872 139.842 51.4872C139.963 51.4872 140.073 51.4783 140.172 51.4606C140.275 51.4428 140.353 51.4268 140.406 51.4126L140.731 52.9201C140.628 52.9556 140.481 52.9947 140.289 53.0373C140.101 53.0799 139.87 53.1048 139.597 53.1119C139.114 53.1261 138.679 53.0533 138.292 52.8935C137.905 52.7301 137.597 52.478 137.37 52.1371C137.146 51.7962 137.036 51.37 137.04 50.8587V42.858ZM144.299 48.206V53H142.371V42.0909H144.256V46.2085H144.352C144.544 45.7468 144.84 45.3828 145.242 45.1165C145.647 44.8466 146.161 44.7116 146.786 44.7116C147.355 44.7116 147.85 44.8306 148.273 45.0685C148.695 45.3065 149.022 45.6545 149.253 46.1126C149.487 46.5707 149.604 47.13 149.604 47.7905V53H147.676V48.0888C147.676 47.5384 147.534 47.1104 147.25 46.805C146.969 46.4961 146.575 46.3416 146.067 46.3416C145.726 46.3416 145.421 46.4162 145.151 46.5653C144.885 46.7109 144.675 46.9222 144.523 47.1992C144.373 47.4762 144.299 47.8118 144.299 48.206ZM155.192 53.1598C154.372 53.1598 153.663 52.9893 153.067 52.6484C152.474 52.304 152.017 51.8175 151.698 51.1889C151.378 50.5568 151.218 49.8129 151.218 48.957C151.218 48.1154 151.378 47.3768 151.698 46.7411C152.021 46.1019 152.472 45.6048 153.051 45.2496C153.63 44.891 154.31 44.7116 155.091 44.7116C155.595 44.7116 156.071 44.7933 156.518 44.9567C156.969 45.1165 157.367 45.3651 157.712 45.7024C158.06 46.0398 158.333 46.4695 158.532 46.9915C158.731 47.5099 158.83 48.1278 158.83 48.8452V49.4364H152.124V48.1367H156.982C156.978 47.7674 156.898 47.4389 156.742 47.1513C156.586 46.8601 156.367 46.631 156.087 46.4641C155.81 46.2972 155.487 46.2138 155.117 46.2138C154.723 46.2138 154.377 46.3097 154.079 46.5014C153.78 46.6896 153.548 46.9382 153.381 47.2472C153.218 47.5526 153.134 47.8881 153.131 48.2539V49.3885C153.131 49.8643 153.218 50.2727 153.392 50.6136C153.566 50.951 153.809 51.2102 154.121 51.3913C154.434 51.5689 154.8 51.6577 155.219 51.6577C155.499 51.6577 155.753 51.6186 155.98 51.5405C156.208 51.4588 156.405 51.3398 156.572 51.1836C156.739 51.0273 156.865 50.8338 156.95 50.603L158.75 50.8054C158.637 51.2812 158.42 51.6967 158.1 52.0518C157.784 52.4034 157.38 52.6768 156.886 52.8722C156.392 53.0639 155.828 53.1598 155.192 53.1598ZM30.9506 74.0682V69.7109H30.8707C30.7713 69.9098 30.6275 70.1211 30.4393 70.3448C30.2511 70.565 30.0025 70.7532 29.6935 70.9094C29.3846 71.0657 28.9957 71.1438 28.527 71.1438C27.8842 71.1438 27.3089 70.9787 26.8011 70.6484C26.2933 70.3182 25.892 69.8388 25.5973 69.2102C25.3026 68.5817 25.1552 67.8182 25.1552 66.9197C25.1552 66.0107 25.3043 65.2436 25.6026 64.6186C25.9045 63.9901 26.3111 63.516 26.8224 63.1964C27.3338 62.8732 27.9038 62.7116 28.5323 62.7116C29.0117 62.7116 29.4059 62.7933 29.7148 62.9567C30.0238 63.1165 30.2688 63.31 30.4499 63.5373C30.631 63.761 30.7713 63.9723 30.8707 64.1712H30.9879V62.8182H32.8842V74.0682H30.9506ZM29.065 69.5618C29.4734 69.5618 29.8214 69.4517 30.109 69.2315C30.3967 69.0078 30.6151 68.6971 30.7642 68.2994C30.9134 67.9016 30.9879 67.4382 30.9879 66.9091C30.9879 66.38 30.9134 65.9201 30.7642 65.5295C30.6186 65.1388 30.402 64.8352 30.1143 64.6186C29.8303 64.402 29.4805 64.2937 29.065 64.2937C28.6353 64.2937 28.2766 64.4055 27.989 64.6293C27.7013 64.853 27.4847 65.1619 27.3391 65.5561C27.1935 65.9503 27.1207 66.4013 27.1207 66.9091C27.1207 67.4205 27.1935 67.8768 27.3391 68.2781C27.4883 68.6758 27.7067 68.9901 27.9943 69.2209C28.2855 69.4482 28.6424 69.5618 29.065 69.5618ZM40.0806 67.5589V62.8182H42.0089V71H40.1392V69.5458H40.054C39.8693 70.0039 39.5657 70.3786 39.1431 70.6697C38.7241 70.9609 38.2074 71.1065 37.593 71.1065C37.0568 71.1065 36.5827 70.9876 36.1708 70.7496C35.7624 70.5082 35.4428 70.1584 35.212 69.7003C34.9812 69.2386 34.8658 68.6811 34.8658 68.0277V62.8182H36.794V67.7294C36.794 68.2479 36.9361 68.6598 37.2202 68.9652C37.5043 69.2706 37.8771 69.4233 38.3388 69.4233C38.6229 69.4233 38.8981 69.354 39.1644 69.2156C39.4308 69.0771 39.6491 68.8711 39.8196 68.5977C39.9936 68.3207 40.0806 67.9744 40.0806 67.5589ZM47.6139 71.1598C46.7936 71.1598 46.0851 70.9893 45.4885 70.6484C44.8955 70.304 44.4392 69.8175 44.1196 69.1889C43.8 68.5568 43.6402 67.8129 43.6402 66.957C43.6402 66.1154 43.8 65.3768 44.1196 64.7411C44.4427 64.1019 44.8937 63.6048 45.4726 63.2496C46.0514 62.891 46.7314 62.7116 47.5127 62.7116C48.017 62.7116 48.4928 62.7933 48.9403 62.9567C49.3912 63.1165 49.789 63.3651 50.1334 63.7024C50.4814 64.0398 50.7549 64.4695 50.9537 64.9915C51.1526 65.5099 51.252 66.1278 51.252 66.8452V67.4364H44.5457V66.1367H49.4037C49.4001 65.7674 49.3202 65.4389 49.164 65.1513C49.0077 64.8601 48.7893 64.631 48.5088 64.4641C48.2318 64.2972 47.9086 64.2138 47.5393 64.2138C47.1452 64.2138 46.7989 64.3097 46.5006 64.5014C46.2023 64.6896 45.9697 64.9382 45.8028 65.2472C45.6395 65.5526 45.556 65.8881 45.5525 66.2539V67.3885C45.5525 67.8643 45.6395 68.2727 45.8135 68.6136C45.9875 68.951 46.2307 69.2102 46.5432 69.3913C46.8557 69.5689 47.2215 69.6577 47.6405 69.6577C47.9211 69.6577 48.175 69.6186 48.4023 69.5405C48.6295 69.4588 48.8266 69.3398 48.9935 69.1836C49.1604 69.0273 49.2865 68.8338 49.3717 68.603L51.1721 68.8054C51.0585 69.2812 50.8419 69.6967 50.5223 70.0518C50.2062 70.4034 49.8014 70.6768 49.3078 70.8722C48.8142 71.0639 48.2496 71.1598 47.6139 71.1598ZM59.35 64.9808L57.5922 65.1726C57.5424 64.995 57.4554 64.8281 57.3311 64.6719C57.2104 64.5156 57.0471 64.3896 56.8411 64.2937C56.6351 64.1978 56.383 64.1499 56.0847 64.1499C55.6834 64.1499 55.3461 64.2369 55.0726 64.4109C54.8027 64.5849 54.6696 64.8104 54.6731 65.0874C54.6696 65.3253 54.7566 65.5188 54.9341 65.668C55.1152 65.8171 55.4135 65.9396 55.829 66.0355L57.2246 66.3338C57.9988 66.5007 58.574 66.7653 58.9505 67.1275C59.3304 67.4897 59.5222 67.9638 59.5257 68.5497C59.5222 69.0646 59.3713 69.5192 59.073 69.9134C58.7782 70.304 58.3681 70.6094 57.8425 70.8295C57.3169 71.0497 56.7132 71.1598 56.0314 71.1598C55.03 71.1598 54.2239 70.9503 53.6131 70.5312C53.0023 70.1087 52.6383 69.521 52.5211 68.7681L54.4015 68.587C54.4867 68.9563 54.6678 69.2351 54.9448 69.4233C55.2218 69.6115 55.5822 69.7056 56.0261 69.7056C56.4842 69.7056 56.8517 69.6115 57.1287 69.4233C57.4093 69.2351 57.5495 69.0025 57.5495 68.7255C57.5495 68.4911 57.459 68.2976 57.2779 68.1449C57.1003 67.9922 56.8233 67.875 56.4469 67.7933L55.0513 67.5004C54.2665 67.337 53.6859 67.0618 53.3095 66.6747C52.9331 66.2841 52.7466 65.7905 52.7502 65.1939C52.7466 64.6896 52.8833 64.2528 53.1603 63.8835C53.4409 63.5107 53.8297 63.223 54.3269 63.0206C54.8276 62.8146 55.4047 62.7116 56.0581 62.7116C57.0169 62.7116 57.7715 62.9158 58.3219 63.3242C58.8759 63.7326 59.2186 64.2848 59.35 64.9808ZM65.2013 62.8182V64.3097H60.4979V62.8182H65.2013ZM61.6591 60.858H63.5874V68.5391C63.5874 68.7983 63.6264 68.9972 63.7045 69.1357C63.7862 69.2706 63.8928 69.3629 64.0241 69.4126C64.1555 69.4624 64.3011 69.4872 64.4609 69.4872C64.5817 69.4872 64.6918 69.4783 64.7912 69.4606C64.8942 69.4428 64.9723 69.4268 65.0256 69.4126L65.3505 70.9201C65.2475 70.9556 65.1001 70.9947 64.9084 71.0373C64.7202 71.0799 64.4893 71.1048 64.2159 71.1119C63.733 71.1261 63.2979 71.0533 62.9109 70.8935C62.5238 70.7301 62.2166 70.478 61.9893 70.1371C61.7656 69.7962 61.6555 69.37 61.6591 68.8587V60.858ZM66.814 71V62.8182H68.7423V71H66.814ZM67.7835 61.657C67.4781 61.657 67.2153 61.5558 66.9951 61.3533C66.7749 61.1474 66.6649 60.9006 66.6649 60.6129C66.6649 60.3217 66.7749 60.0749 66.9951 59.8725C67.2153 59.6665 67.4781 59.5636 67.7835 59.5636C68.0924 59.5636 68.3552 59.6665 68.5718 59.8725C68.792 60.0749 68.9021 60.3217 68.9021 60.6129C68.9021 60.9006 68.792 61.1474 68.5718 61.3533C68.3552 61.5558 68.0924 61.657 67.7835 61.657ZM74.294 71.1598C73.495 71.1598 72.8026 70.984 72.2166 70.6325C71.6307 70.2809 71.1761 69.7891 70.853 69.157C70.5334 68.5249 70.3736 67.7862 70.3736 66.9411C70.3736 66.0959 70.5334 65.3555 70.853 64.7198C71.1761 64.0842 71.6307 63.5906 72.2166 63.239C72.8026 62.8874 73.495 62.7116 74.294 62.7116C75.093 62.7116 75.7855 62.8874 76.3714 63.239C76.9574 63.5906 77.4102 64.0842 77.7298 64.7198C78.0529 65.3555 78.2145 66.0959 78.2145 66.9411C78.2145 67.7862 78.0529 68.5249 77.7298 69.157C77.4102 69.7891 76.9574 70.2809 76.3714 70.6325C75.7855 70.984 75.093 71.1598 74.294 71.1598ZM74.3047 69.6151C74.7379 69.6151 75.1001 69.4961 75.3913 69.2582C75.6825 69.0167 75.8991 68.6935 76.0412 68.2887C76.1868 67.8839 76.2596 67.4329 76.2596 66.9357C76.2596 66.435 76.1868 65.9822 76.0412 65.5774C75.8991 65.169 75.6825 64.8441 75.3913 64.6026C75.1001 64.3612 74.7379 64.2404 74.3047 64.2404C73.8608 64.2404 73.4915 64.3612 73.1967 64.6026C72.9055 64.8441 72.6871 65.169 72.5415 65.5774C72.3995 65.9822 72.3285 66.435 72.3285 66.9357C72.3285 67.4329 72.3995 67.8839 72.5415 68.2887C72.6871 68.6935 72.9055 69.0167 73.1967 69.2582C73.4915 69.4961 73.8608 69.6151 74.3047 69.6151ZM81.7794 66.206V71H79.8511V62.8182H81.6942V64.2085H81.79C81.9782 63.7504 82.2783 63.3864 82.6903 63.1165C83.1057 62.8466 83.6189 62.7116 84.2297 62.7116C84.7943 62.7116 85.2861 62.8324 85.7052 63.0739C86.1278 63.3153 86.4545 63.6651 86.6853 64.1232C86.9197 64.5813 87.0351 65.1371 87.0315 65.7905V71H85.1032V66.0888C85.1032 65.5419 84.9612 65.114 84.6771 64.805C84.3966 64.4961 84.0077 64.3416 83.5106 64.3416C83.1732 64.3416 82.8731 64.4162 82.6104 64.5653C82.3511 64.7109 82.1469 64.9222 81.9978 65.1992C81.8522 65.4762 81.7794 65.8118 81.7794 66.206Z" fill="white"/>
<path d="M36 127C42.4 108.2 34 97.8333 29 95L44 95C50.4 109.8 41.3333 122.5 36 127Z" fill="black"/>
</svg>
