<svg width="17" height="23" viewBox="0 0 17 23" fill="none" xmlns="http://www.w3.org/2000/svg">
<path d="M8.50012 0C4.79134 0 1.77392 3.01731 1.77392 6.7262V10.5677C1.77392 10.6114 1.72005 10.6849 1.67773 10.699C1.314 10.8203 1.0186 10.9254 0.748188 11.0296C0.425715 11.154 0.182495 11.5113 0.182495 11.8609V20.6876C0.182495 21.0349 0.424144 21.3925 0.744574 21.5195C3.22381 22.502 5.83314 23 8.50008 23C11.167 23 13.7763 22.5018 16.2557 21.5194C16.576 21.3925 16.8175 21.0349 16.8175 20.6876V11.8609C16.8175 11.5113 16.5744 11.154 16.2517 11.0295C15.9812 10.9253 15.6858 10.8202 15.3224 10.6989C15.2802 10.6848 15.2263 10.6112 15.2263 10.5676V6.72608C15.2261 3.01731 12.2089 0 8.50012 0ZM6.66807 14.5493C6.66807 13.5367 7.4883 12.7174 8.5 12.7174C9.51162 12.7174 10.3319 13.5366 10.3319 14.5493C10.3319 15.2202 9.95351 15.7819 9.41591 16.1003V19.129C9.41591 19.6353 9.00624 20.045 8.49996 20.045C7.99364 20.045 7.58402 19.6353 7.58402 19.129V16.1003C7.04646 15.7819 6.66807 15.2202 6.66807 14.5493ZM12.9135 6.72608V10.0406C11.4662 9.72917 9.98137 9.57145 8.50071 9.57133C7.02072 9.57133 5.53621 9.72909 4.08667 10.0402V6.72608C4.08667 4.2925 6.06646 2.31275 8.5 2.31275C10.9335 2.31272 12.9135 4.2925 12.9135 6.72608Z" fill="#FF4D00"/>
</svg>
