<svg xmlns="http://www.w3.org/2000/svg" width="168" height="56" fill="none" xmlns:v="https://vecta.io/nano"><rect width="168" height="56" rx="28" fill="url(#A)"/><rect x="1" y="1" width="166" height="54" rx="27" stroke="url(#B)" stroke-width="2"/><rect x="4.5" y="4.5" width="159" height="47" rx="23.5" fill="url(#C)" stroke="#320033"/><rect x="11.455" y="7" width="145.091" height="28" rx="14" fill="url(#D)" style="mix-blend-mode:overlay"/><path d="M76.839 22.364V34h-2.386l-4.631-6.716h-.074V34h-2.812V22.364h2.42l4.58 6.705h.097v-6.705h2.807zm5.848 11.801c-.913 0-1.701-.18-2.364-.54s-1.167-.881-1.523-1.551-.528-1.475-.528-2.403c0-.902.178-1.689.534-2.364s.858-1.204 1.506-1.579 1.411-.568 2.29-.568c.621 0 1.189.097 1.704.29a3.66 3.66 0 0 1 1.335.858 3.91 3.91 0 0 1 .875 1.403c.208.553.313 1.188.313 1.903v.693h-7.585v-1.614h5c-.004-.296-.074-.559-.21-.79a1.43 1.43 0 0 0-.562-.54c-.235-.133-.506-.199-.812-.199s-.589.07-.835.21-.441.324-.585.563a1.58 1.58 0 0 0-.227.801v1.642a2 2 0 0 0 .21.938c.14.265.339.472.597.619s.564.222.92.222c.246 0 .47-.034.671-.102a1.43 1.43 0 0 0 .517-.301c.144-.133.252-.296.324-.489l2.551.074c-.106.572-.339 1.07-.699 1.494s-.824.748-1.403.983-1.25.347-2.011.347zm7.8-8.892l1.438 2.875 1.489-2.875h2.801l-2.437 4.364L96.305 34h-2.778l-1.602-2.898L90.362 34h-2.818l2.534-4.364-2.409-4.364h2.818zm11.921 0v2.046h-5.505v-2.046h5.505zm-4.352-2.091h2.779v8.074c0 .17.026.309.079.415s.138.176.244.221a1.04 1.04 0 0 0 .381.063c.106 0 .218-.009.335-.028l.273-.057.42 2.006-.562.142c-.239.057-.525.093-.858.108-.651.03-1.21-.045-1.676-.227s-.816-.474-1.062-.864-.36-.881-.352-1.472v-8.381z" fill="#fff"/><defs><linearGradient id="A" x1="84" y1="0" x2="84" y2="56" gradientUnits="userSpaceOnUse"><stop stop-color="#ffeb3c"/><stop offset=".135" stop-color="#ff730e"/><stop offset=".425" stop-color="#b3330a"/><stop offset=".66" stop-color="#ffe600"/><stop offset="1" stop-color="#ff730e"/></linearGradient><linearGradient id="B" x1="84" y1="0" x2="84" y2="56" gradientUnits="userSpaceOnUse"><stop stop-color="#ff730e"/><stop offset=".295" stop-color="#c03900"/><stop offset=".525" stop-color="#dbff00"/><stop offset=".97" stop-color="#ce7c00"/></linearGradient><linearGradient id="C" x1="84" y1="4" x2="84" y2="52" gradientUnits="userSpaceOnUse"><stop stop-color="#277dff"/><stop offset=".395" stop-color="#154cb7"/><stop offset=".78" stop-color="#061072"/><stop offset="1" stop-color="#02408a"/></linearGradient><linearGradient id="D" x1="84" y1="7" x2="84" y2="35" gradientUnits="userSpaceOnUse"><stop stop-color="#fff"/><stop offset="1" stop-color="#fff" stop-opacity="0"/></linearGradient></defs></svg>