<svg xmlns="http://www.w3.org/2000/svg" width="220" height="56" fill="none" xmlns:v="https://vecta.io/nano"><rect width="220" height="56" rx="28" fill="url(#A)"/><rect x="1" y="1" width="218" height="54" rx="27" stroke="url(#B)" stroke-width="2"/><rect x="4.5" y="4.5" width="211" height="47" rx="23.5" fill="url(#C)" stroke="#320033"/><rect x="15" y="7" width="190" height="28" rx="14" fill="url(#D)" style="mix-blend-mode:overlay"/><path d="M94.092 34V22.364h4.807c.871 0 1.624.17 2.256.511s1.127.809 1.472 1.415.517 1.303.517 2.102-.176 1.506-.529 2.108-.846 1.063-1.494 1.392-1.417.494-2.307.494h-2.966v-2.216h2.443c.424 0 .778-.074 1.063-.222s.506-.354.653-.619.222-.581.222-.937-.074-.67-.222-.932-.365-.47-.653-.614-.642-.216-1.062-.216h-1.386V34h-2.812zm13.216-11.636V34h-2.779V22.364h2.779zm4.228 11.784c-.557 0-1.051-.093-1.483-.278a2.31 2.31 0 0 1-1.017-.852c-.246-.383-.369-.862-.369-1.438 0-.485.085-.894.256-1.227a2.18 2.18 0 0 1 .704-.812 3.31 3.31 0 0 1 1.034-.472c.39-.11.807-.184 1.25-.222l1.199-.142c.303-.053.523-.127.659-.221s.21-.237.21-.415v-.028c0-.292-.1-.517-.301-.676s-.471-.239-.812-.239c-.368 0-.663.079-.887.239s-.365.379-.426.659l-2.562-.091c.076-.53.271-1.004.585-1.42s.754-.75 1.307-.989 1.225-.364 2.005-.364a5.65 5.65 0 0 1 1.54.199c.47.129.879.318 1.228.568s.617.549.806.909.29.771.29 1.233V34h-2.614v-1.216h-.068c-.155.295-.354.545-.596.75s-.521.358-.847.46-.685.153-1.091.153zm.858-1.818a1.76 1.76 0 0 0 .807-.182c.242-.121.436-.288.58-.5s.215-.466.215-.75v-.829a1.65 1.65 0 0 1-.289.114l-.364.097-.409.08-.403.063c-.262.042-.485.106-.671.193s-.322.201-.42.341-.142.299-.142.489c0 .288.102.508.306.659.209.151.472.227.79.227zm7.443 4.943c-.333 0-.647-.026-.943-.08s-.549-.115-.761-.199l.613-2.017a3.03 3.03 0 0 0 .739.159c.224.015.415-.021.574-.108s.288-.233.375-.449l.108-.261-3.102-9.045h2.909l1.608 6.227h.091l1.63-6.227h2.926l-3.289 9.563c-.159.477-.385.898-.677 1.261s-.66.655-1.119.864-1.015.313-1.682.313z" fill="#fff"/><defs><linearGradient id="A" x1="110" y1="0" x2="110" y2="56" gradientUnits="userSpaceOnUse"><stop stop-color="#ffeb3c"/><stop offset=".135" stop-color="#ff730e"/><stop offset=".425" stop-color="#b3330a"/><stop offset=".66" stop-color="#ffe600"/><stop offset="1" stop-color="#ff730e"/></linearGradient><linearGradient id="B" x1="110" y1="0" x2="110" y2="56" gradientUnits="userSpaceOnUse"><stop stop-color="#ff730e"/><stop offset=".295" stop-color="#c03900"/><stop offset=".525" stop-color="#dbff00"/><stop offset=".97" stop-color="#ce7c00"/></linearGradient><linearGradient id="C" x1="110" y1="4" x2="110" y2="52" gradientUnits="userSpaceOnUse"><stop stop-color="#ee27ff"/><stop offset=".395" stop-color="#aa15b7"/><stop offset=".78" stop-color="#6a0672"/><stop offset="1" stop-color="#7f028a"/></linearGradient><linearGradient id="D" x1="110" y1="7" x2="110" y2="35" gradientUnits="userSpaceOnUse"><stop stop-color="#fff"/><stop offset="1" stop-color="#fff" stop-opacity="0"/></linearGradient></defs></svg>