<svg xmlns="http://www.w3.org/2000/svg" width="168" height="56" fill="none" xmlns:v="https://vecta.io/nano"><rect width="168" height="56" rx="28" fill="url(#A)"/><rect x="1" y="1" width="166" height="54" rx="27" stroke="url(#B)" stroke-width="2"/><rect x="4.5" y="4.5" width="159" height="47" rx="23.5" fill="url(#C)" stroke="#320033"/><rect x="11.455" y="7" width="145.091" height="28" rx="14" fill="url(#D)" style="mix-blend-mode:overlay"/><path d="M63.303 34V22.364h4.807c.871 0 1.623.157 2.256.472s1.127.758 1.472 1.341.517 1.267.517 2.063c0 .807-.176 1.492-.528 2.057s-.852.989-1.5 1.284-1.415.438-2.301.438h-3.04v-2.216h2.517c.424 0 .778-.055 1.063-.165s.506-.284.653-.511.222-.526.222-.886-.074-.657-.222-.892-.365-.417-.653-.534-.642-.182-1.062-.182h-1.386V34h-2.812zm6.551-5.318L72.751 34h-3.068l-2.841-5.318h3.011zm9.673 1.551v-4.96H82.3V34h-2.648v-1.625h-.091c-.193.534-.523.958-.989 1.273s-1.021.466-1.676.466c-.595 0-1.117-.136-1.568-.409s-.801-.653-1.051-1.142-.377-1.068-.381-1.727v-5.562h2.778v5.017c.004.474.129.847.375 1.119s.582.409 1.006.409c.276 0 .525-.061.744-.182s.4-.305.528-.54.199-.526.199-.864zm7.32-7.869V34h-2.778V22.364h2.778zm5.848 11.801c-.913 0-1.701-.18-2.364-.54s-1.167-.881-1.523-1.551-.528-1.475-.528-2.403c0-.902.178-1.689.534-2.364s.858-1.204 1.506-1.579 1.411-.568 2.29-.568c.621 0 1.189.097 1.705.29a3.66 3.66 0 0 1 1.335.858 3.91 3.91 0 0 1 .875 1.403c.208.553.313 1.188.313 1.903v.693h-7.585v-1.614h5c-.004-.296-.074-.559-.21-.79a1.43 1.43 0 0 0-.562-.54c-.235-.133-.506-.199-.812-.199s-.589.07-.835.21-.441.324-.585.563a1.58 1.58 0 0 0-.227.801v1.642a2 2 0 0 0 .21.938c.14.265.339.472.597.619a1.82 1.82 0 0 0 .92.222c.246 0 .47-.034.671-.102a1.43 1.43 0 0 0 .517-.301c.144-.133.252-.296.324-.489l2.551.074c-.106.572-.339 1.07-.699 1.494s-.824.748-1.403.983-1.25.347-2.011.347zm13.18-6.227l-2.551.068a.96.96 0 0 0-.216-.483 1.16 1.16 0 0 0-.46-.335c-.186-.083-.402-.125-.648-.125-.322 0-.597.064-.824.193s-.333.303-.329.523c-.004.17.064.318.204.443s.4.225.767.301l1.682.318c.871.167 1.519.443 1.943.83s.644.898.648 1.534c-.004.599-.182 1.119-.534 1.563s-.826.788-1.432 1.034-1.299.364-2.08.364c-1.246 0-2.229-.256-2.948-.767s-1.125-1.205-1.227-2.068l2.745-.068c.06.318.217.561.471.727s.578.25.972.25c.356 0 .646-.066.869-.199s.337-.309.341-.528a.56.56 0 0 0-.261-.472c-.171-.121-.438-.216-.801-.284l-1.523-.29c-.875-.159-1.527-.453-1.955-.881s-.64-.981-.636-1.648c-.004-.583.151-1.081.466-1.494s.761-.735 1.341-.955 1.263-.33 2.051-.33c1.182 0 2.114.248 2.795.744s1.059 1.17 1.131 2.034z" fill="#fff"/><defs><linearGradient id="A" x1="84" y1="0" x2="84" y2="56" gradientUnits="userSpaceOnUse"><stop stop-color="#ffeb3c"/><stop offset=".135" stop-color="#ff730e"/><stop offset=".425" stop-color="#b3330a"/><stop offset=".66" stop-color="#ffe600"/><stop offset="1" stop-color="#ff730e"/></linearGradient><linearGradient id="B" x1="84" y1="0" x2="84" y2="56" gradientUnits="userSpaceOnUse"><stop stop-color="#ff730e"/><stop offset=".295" stop-color="#c03900"/><stop offset=".525" stop-color="#dbff00"/><stop offset=".97" stop-color="#ce7c00"/></linearGradient><linearGradient id="C" x1="84" y1="4" x2="84" y2="52" gradientUnits="userSpaceOnUse"><stop stop-color="#277dff"/><stop offset=".395" stop-color="#154cb7"/><stop offset=".78" stop-color="#061072"/><stop offset="1" stop-color="#02408a"/></linearGradient><linearGradient id="D" x1="84" y1="7" x2="84" y2="35" gradientUnits="userSpaceOnUse"><stop stop-color="#fff"/><stop offset="1" stop-color="#fff" stop-opacity="0"/></linearGradient></defs></svg>