<svg xmlns="http://www.w3.org/2000/svg" width="84" height="84" fill="none" xmlns:v="https://vecta.io/nano"><rect x="1" y="1" width="82" height="82" rx="41" fill="url(#C)" stroke="#c40ed4" stroke-width="2"/><mask id="A" maskUnits="userSpaceOnUse" x="0" y="0" width="84" height="84" mask-type="alpha"><rect x="1" y="1" width="82" height="82" rx="41" fill="url(#D)" stroke="#c40ed4" stroke-width="2"/></mask><g mask="url(#A)"><g style="mix-blend-mode:overlay" opacity=".2"><mask id="B" fill="#fff"><path fill-rule="evenodd" d="M49.929 5H34.071l3.894 27.261-16.522-22.03-11.213 11.213 22.03 16.522L5 34.071v15.857l27.261-3.894-22.03 16.522 11.213 11.213 16.523-22.03L34.071 79h15.857l-3.894-27.261 16.522 22.03 11.213-11.213-22.03-16.522L79 49.929V34.071l-27.261 3.894 22.03-16.522-11.213-11.213-16.522 22.03L49.929 5z"/></mask><path fill-rule="evenodd" d="M49.929 5H34.071l3.894 27.261-16.522-22.03-11.213 11.213 22.03 16.522L5 34.071v15.857l27.261-3.894-22.03 16.522 11.213 11.213 16.523-22.03L34.071 79h15.857l-3.894-27.261 16.522 22.03 11.213-11.213-22.03-16.522L79 49.929V34.071l-27.261 3.894 22.03-16.522-11.213-11.213-16.522 22.03L49.929 5z" fill="url(#E)"/><path d="M34.071 5V3.407h-1.836l.26 1.818L34.071 5zm15.857 0l1.576.225.26-1.818h-1.836V5zM37.966 32.261l-1.274.956 2.851-1.181-1.577.225zm-16.522-22.03l1.274-.956-1.102-1.469-1.298 1.298 1.126 1.126zM10.231 21.443l-1.126-1.126-1.298 1.299 1.469 1.102.956-1.274zm22.03 16.522l-.225 1.577 1.181-2.851-.956 1.274zM5 34.071l.225-1.577-1.818-.26v1.836H5zm0 15.857H3.407v1.836l1.818-.26L5 49.929zm27.261-3.894l.956 1.274-1.181-2.851.225 1.577zm-22.03 16.522l-.956-1.274-1.469 1.102 1.298 1.298 1.126-1.126zm11.213 11.213l-1.126 1.126 1.298 1.298 1.102-1.469-1.274-.956zm16.523-22.03l1.577.225-2.851-1.181 1.274.956zM34.071 79l-1.577-.225-.26 1.818h1.836V79zm15.857 0v1.593h1.836l-.26-1.818-1.576.225zm-3.894-27.261l1.274-.956-2.851 1.181 1.577-.225zm16.522 22.03l-1.274.956 1.102 1.469 1.298-1.298-1.126-1.126zm11.213-11.213l1.126 1.126 1.299-1.298-1.469-1.102-.956 1.274zM51.74 46.034l.225-1.577-1.181 2.851.956-1.274zM79 49.929l-.225 1.576 1.818.26v-1.836H79zm0-15.857h1.593v-1.836l-1.818.26.225 1.577zm-27.261 3.894l-.956-1.274 1.181 2.851-.225-1.577zm22.03-16.522l.956 1.274 1.469-1.102-1.299-1.299-1.126 1.126zM62.557 10.231l1.126-1.126-1.298-1.298-1.102 1.469 1.274.956zm-16.522 22.03l-1.577-.225 2.851 1.181-1.274-.956zM34.071 6.593h15.857V3.407H34.071v3.185zm5.471 25.443L35.648 4.775l-3.153.45 3.894 27.26 3.153-.45zm-.303-.73L22.718 9.275l-2.548 1.911 16.522 22.03 2.548-1.911zm-18.923-22.2L9.105 20.317l2.252 2.252L22.57 11.357l-2.252-2.252zM9.275 22.717l22.03 16.522 1.911-2.548-22.03-16.522-1.911 2.548zm-4.5 12.931l27.261 3.894.45-3.153-27.261-3.894-.45 3.153zm1.818 14.28V34.071H3.407v15.857h3.185zm25.443-5.471l-27.26 3.894.45 3.153 27.26-3.894-.45-3.153zM11.186 63.831l22.03-16.522-1.911-2.548-22.03 16.522 1.911 2.548zm11.383 8.813L11.357 61.43l-2.252 2.252 11.213 11.213 2.252-2.252zm14.122-21.859l-16.522 22.03 2.548 1.911 16.522-22.03-2.548-1.911zm-1.044 28.441l3.894-27.261-3.153-.45-3.894 27.261 3.153.45zm14.281-1.818H34.071v3.185h15.857v-3.185zm-5.471-25.443l3.894 27.261 3.153-.45-3.894-27.261-3.153.45zm19.373 20.849l-16.522-22.03-2.548 1.911 16.522 22.03 2.548-1.911zm8.812-11.383L61.431 72.643l2.252 2.252 11.213-11.213-2.252-2.252zM50.784 47.308l22.03 16.522 1.911-2.548-22.03-16.522-1.911 2.548zm28.441 1.044l-27.26-3.894-.45 3.153 27.261 3.894.45-3.153zm-1.818-14.281v15.857h3.185V34.071h-3.185zm-25.443 5.471l27.261-3.894-.45-3.153-27.261 3.894.45 3.153zm20.849-19.373l-22.03 16.522 1.911 2.548 22.03-16.522-1.911-2.548zm-11.383-8.812L72.643 22.57l2.252-2.252L63.683 9.105l-2.252 2.252zM47.308 33.216l16.522-22.03-2.548-1.911-16.522 22.03 2.548 1.911zm1.044-28.441l-3.894 27.261 3.153.45 3.894-27.261-3.153-.45z" fill="#c40ed4" mask="url(#B)"/></g></g><defs><radialGradient id="C" cx="0" cy="0" r="1" gradientUnits="userSpaceOnUse" gradientTransform="translate(42 42) scale(50.5556 40.95)"><stop stop-color="#76004e"/><stop offset="1" stop-color="#1d0028"/></radialGradient><radialGradient id="D" cx="0" cy="0" r="1" gradientUnits="userSpaceOnUse" gradientTransform="translate(42 42) scale(50.5556 40.95)"><stop stop-color="#9f0000"/><stop offset="1" stop-color="#1c0000"/></radialGradient><radialGradient id="E" cx="0" cy="0" r="1" gradientUnits="userSpaceOnUse" gradientTransform="translate(42 42) rotate(90) scale(37)"><stop stop-color="#fff"/><stop offset="1" stop-color="#fff" stop-opacity="0"/></radialGradient></defs></svg>