<svg xmlns="http://www.w3.org/2000/svg" width="168" height="56" fill="none" xmlns:v="https://vecta.io/nano"><rect width="168" height="56" rx="28" fill="url(#A)"/><rect x="1" y="1" width="166" height="54" rx="27" stroke="url(#B)" stroke-width="2"/><rect x="4.5" y="4.5" width="159" height="47" rx="23.5" fill="url(#C)" stroke="#320033"/><rect x="11.455" y="7" width="145.091" height="28" rx="14" fill="url(#D)" style="mix-blend-mode:overlay"/><path d="M71.233 25.852c-.038-.417-.207-.741-.506-.972s-.718-.352-1.267-.352c-.364 0-.667.047-.909.142s-.424.225-.545.392-.184.35-.187.563c-.008.174.026.328.102.46s.193.25.341.352.333.186.545.261.451.142.716.199l1 .227c.576.125 1.083.292 1.523.5s.814.456 1.114.744a2.88 2.88 0 0 1 .688.994c.155.375.235.795.239 1.261-.004.735-.189 1.366-.557 1.892s-.896.93-1.585 1.21-1.513.42-2.483.42-1.822-.146-2.545-.437-1.286-.735-1.687-1.33-.608-1.347-.619-2.256h2.693c.023.375.123.688.301.938a1.65 1.65 0 0 0 .733.568c.314.129.678.193 1.091.193.379 0 .701-.051.966-.153s.475-.244.619-.426.218-.39.222-.625a.86.86 0 0 0-.205-.562c-.133-.159-.337-.295-.614-.409s-.621-.225-1.046-.324l-1.216-.284c-1.008-.231-1.801-.604-2.381-1.119s-.867-1.22-.864-2.102c-.004-.72.189-1.35.58-1.892s.93-.964 1.619-1.267 1.475-.455 2.358-.455c.901 0 1.684.154 2.347.46s1.184.729 1.551 1.278.555 1.186.563 1.909h-2.693zm7.051 3.17V34h-2.778V22.364h2.688v4.511h.097c.197-.538.519-.958.966-1.261s1.002-.455 1.653-.455c.614 0 1.148.136 1.602.409a2.73 2.73 0 0 1 1.057 1.142c.254.492.379 1.068.375 1.727V34h-2.778v-5.017c.004-.485-.117-.864-.364-1.136s-.593-.409-1.04-.409a1.52 1.52 0 0 0-.773.193c-.22.125-.392.305-.517.54s-.184.519-.187.852zm11.467 5.142c-.917 0-1.705-.187-2.364-.562a3.88 3.88 0 0 1-1.517-1.58c-.352-.678-.528-1.464-.528-2.358s.176-1.684.528-2.358.862-1.204 1.517-1.579 1.447-.568 2.364-.568 1.703.189 2.358.568a3.79 3.79 0 0 1 1.517 1.579c.356.674.534 1.46.534 2.358s-.178 1.68-.534 2.358-.858 1.201-1.517 1.58-1.441.563-2.358.563zm.017-2.097c.333 0 .615-.102.847-.307s.407-.489.528-.852.188-.784.188-1.261c0-.485-.062-.909-.187-1.273s-.297-.648-.528-.852-.513-.307-.847-.307c-.345 0-.636.102-.875.307s-.415.489-.54.852-.182.788-.182 1.273c0 .477.061.898.182 1.261s.305.648.54.852.53.307.875.307zm5.815 5.205v-12h2.75v1.494h.085c.114-.265.275-.521.483-.767s.481-.447.807-.602.723-.239 1.182-.239c.606 0 1.172.159 1.698.477.531.318.959.809 1.285 1.472s.488 1.508.488 2.534c0 .989-.157 1.816-.471 2.483s-.731 1.167-1.262 1.5a3.21 3.21 0 0 1-1.755.5c-.44 0-.82-.072-1.142-.216s-.593-.333-.812-.568a2.73 2.73 0 0 1-.5-.756h-.057v4.688h-2.778zm2.722-7.636c0 .47.063.879.188 1.227s.313.619.551.813a1.37 1.37 0 0 0 .869.284c.341 0 .631-.095.87-.284s.418-.464.539-.812.188-.758.188-1.227-.063-.877-.188-1.222-.301-.612-.539-.801-.525-.284-.87-.284-.631.093-.869.279-.422.451-.551.795-.187.756-.187 1.233z" fill="#fff"/><defs><linearGradient id="A" x1="84" y1="0" x2="84" y2="56" gradientUnits="userSpaceOnUse"><stop stop-color="#ffeb3c"/><stop offset=".135" stop-color="#ff730e"/><stop offset=".425" stop-color="#b3330a"/><stop offset=".66" stop-color="#ffe600"/><stop offset="1" stop-color="#ff730e"/></linearGradient><linearGradient id="B" x1="84" y1="0" x2="84" y2="56" gradientUnits="userSpaceOnUse"><stop stop-color="#ff730e"/><stop offset=".295" stop-color="#c03900"/><stop offset=".525" stop-color="#dbff00"/><stop offset=".97" stop-color="#ce7c00"/></linearGradient><linearGradient id="C" x1="84" y1="4" x2="84" y2="52" gradientUnits="userSpaceOnUse"><stop stop-color="#277dff"/><stop offset=".395" stop-color="#154cb7"/><stop offset=".78" stop-color="#061072"/><stop offset="1" stop-color="#02408a"/></linearGradient><linearGradient id="D" x1="84" y1="7" x2="84" y2="35" gradientUnits="userSpaceOnUse"><stop stop-color="#fff"/><stop offset="1" stop-color="#fff" stop-opacity="0"/></linearGradient></defs></svg>