<svg xmlns="http://www.w3.org/2000/svg" width="220" height="56" fill="none" xmlns:v="https://vecta.io/nano"><rect width="220" height="56" rx="28" fill="url(#A)"/><rect x="1" y="1" width="218" height="54" rx="27" stroke="url(#B)" stroke-width="2"/><rect x="4.5" y="4.5" width="211" height="47" rx="23.5" fill="url(#C)" stroke="#073300"/><rect x="15" y="7" width="190" height="28" rx="14" fill="url(#D)" style="mix-blend-mode:overlay"/><path d="M99.428 25.852c-.038-.417-.206-.741-.506-.972s-.718-.352-1.267-.352c-.364 0-.667.047-.909.142s-.424.225-.545.392-.184.35-.187.563c-.008.174.027.328.102.46s.193.25.341.352.333.186.545.261a5.68 5.68 0 0 0 .716.199l1 .227c.576.125 1.083.292 1.523.5s.814.456 1.113.744.533.619.688.994a3.35 3.35 0 0 1 .239 1.261c-.004.735-.19 1.366-.557 1.892s-.896.93-1.586 1.21-1.513.42-2.483.42-1.822-.146-2.545-.437-1.286-.735-1.687-1.33-.608-1.347-.619-2.256h2.693c.023.375.123.688.301.938a1.65 1.65 0 0 0 .733.568c.314.129.678.193 1.091.193.379 0 .701-.051.966-.153s.475-.244.619-.426.218-.39.222-.625a.86.86 0 0 0-.205-.562c-.133-.159-.337-.295-.614-.409s-.621-.225-1.046-.324l-1.216-.284c-1.008-.231-1.801-.604-2.381-1.119s-.867-1.22-.864-2.102c-.004-.72.189-1.35.579-1.892s.93-.964 1.619-1.267 1.475-.455 2.358-.455c.902 0 1.684.154 2.347.46s1.184.729 1.551 1.278.555 1.186.562 1.909h-2.693zm4.273 11.42v-12h2.75v1.494h.085a3.07 3.07 0 0 1 .483-.767 2.42 2.42 0 0 1 .807-.602c.33-.159.723-.239 1.182-.239a3.23 3.23 0 0 1 1.699.477c.53.318.958.809 1.284 1.472s.488 1.508.488 2.534c0 .989-.157 1.816-.471 2.483s-.731 1.167-1.262 1.5a3.21 3.21 0 0 1-1.755.5c-.44 0-.82-.072-1.142-.216a2.49 2.49 0 0 1-.813-.568 2.74 2.74 0 0 1-.5-.756h-.057v4.688h-2.778zm2.722-7.636c0 .47.062.879.187 1.227s.313.619.551.813a1.37 1.37 0 0 0 .87.284c.34 0 .63-.095.869-.284s.418-.464.54-.812.187-.758.187-1.227-.062-.877-.187-1.222-.302-.612-.54-.801-.525-.284-.869-.284-.631.093-.87.279-.422.451-.551.795-.187.756-.187 1.233zM113.935 34v-8.727h2.779V34h-2.779zm1.392-9.744c-.39 0-.725-.129-1.005-.386a1.24 1.24 0 0 1-.421-.943c0-.364.14-.674.421-.932a1.42 1.42 0 0 1 1.005-.392 1.41 1.41 0 0 1 1.006.392 1.22 1.22 0 0 1 .421.932c0 .367-.141.682-.421.943a1.42 1.42 0 0 1-1.006.386zm5.934 4.767V34h-2.779v-8.727h2.642v1.602h.097a2.45 2.45 0 0 1 .989-1.256c.465-.307 1.02-.46 1.664-.46.614 0 1.146.138 1.597.415a2.77 2.77 0 0 1 1.057 1.148c.253.489.378 1.061.375 1.716V34h-2.779v-5.017c.004-.485-.119-.864-.369-1.136s-.589-.409-1.028-.409c-.292 0-.55.064-.773.193s-.39.305-.512.54c-.117.235-.178.519-.181.852z" fill="#fff"/><defs><linearGradient id="A" x1="110" y1="0" x2="110" y2="56" gradientUnits="userSpaceOnUse"><stop stop-color="#ffeb3c"/><stop offset=".135" stop-color="#ff730e"/><stop offset=".425" stop-color="#b3330a"/><stop offset=".66" stop-color="#ffe600"/><stop offset="1" stop-color="#ff730e"/></linearGradient><linearGradient id="B" x1="110" y1="0" x2="110" y2="56" gradientUnits="userSpaceOnUse"><stop stop-color="#ff730e"/><stop offset=".295" stop-color="#c03900"/><stop offset=".525" stop-color="#dbff00"/><stop offset=".97" stop-color="#ce7c00"/></linearGradient><linearGradient id="C" x1="110" y1="4" x2="110" y2="52" gradientUnits="userSpaceOnUse"><stop stop-color="#baff27"/><stop offset=".395" stop-color="#3fb715"/><stop offset=".78" stop-color="#0e7206"/><stop offset="1" stop-color="#468a02"/></linearGradient><linearGradient id="D" x1="110" y1="7" x2="110" y2="35" gradientUnits="userSpaceOnUse"><stop stop-color="#fff"/><stop offset="1" stop-color="#fff" stop-opacity="0"/></linearGradient></defs></svg>