<svg width="190" height="64" viewBox="0 0 190 64" fill="none" xmlns="http://www.w3.org/2000/svg">
<rect x="32" width="158" height="64" rx="10.8054" fill="#881AB9"/>
<path d="M42.5568 11.3643V9.81818H50.6804V11.3643H47.5334V20H45.7038V11.3643H42.5568ZM51.3739 20V12.3636H53.119V13.6364H53.1985C53.3377 13.1955 53.5763 12.8558 53.9144 12.6172C54.2558 12.3752 54.6452 12.2543 55.0827 12.2543C55.1822 12.2543 55.2932 12.2592 55.4158 12.2692C55.5418 12.2758 55.6462 12.2874 55.729 12.304V13.9595C55.6528 13.933 55.5318 13.9098 55.3661 13.8899C55.2037 13.8667 55.0463 13.8551 54.8938 13.8551C54.5657 13.8551 54.2707 13.9264 54.0089 14.0689C53.7504 14.2081 53.5465 14.402 53.3974 14.6506C53.2482 14.8991 53.1737 15.1858 53.1737 15.5107V20H51.3739ZM58.2757 22.8636C58.0305 22.8636 57.8034 22.8438 57.5946 22.804C57.3891 22.7675 57.2251 22.7244 57.1025 22.6747L57.5201 21.2727C57.7819 21.349 58.0156 21.3854 58.2211 21.3821C58.4266 21.3788 58.6072 21.3142 58.763 21.1882C58.9221 21.0656 59.0563 20.8601 59.1657 20.5717L59.3198 20.1591L56.5506 12.3636H58.4597L60.2196 18.1307H60.2992L62.0641 12.3636H63.9782L60.9206 20.9247C60.7781 21.3291 60.5892 21.6754 60.3539 21.9638C60.1185 22.2554 59.8302 22.4775 59.4888 22.63C59.1507 22.7857 58.7464 22.8636 58.2757 22.8636ZM69.8148 22.8636C69.5695 22.8636 69.3425 22.8438 69.1337 22.804C68.9282 22.7675 68.7641 22.7244 68.6415 22.6747L69.0591 21.2727C69.321 21.349 69.5546 21.3854 69.7601 21.3821C69.9656 21.3788 70.1462 21.3142 70.302 21.1882C70.4611 21.0656 70.5953 20.8601 70.7047 20.5717L70.8588 20.1591L68.0897 12.3636H69.9988L71.7587 18.1307H71.8382L73.6032 12.3636H75.5172L72.4597 20.9247C72.3172 21.3291 72.1283 21.6754 71.8929 21.9638C71.6576 22.2554 71.3693 22.4775 71.0279 22.63C70.6898 22.7857 70.2855 22.8636 69.8148 22.8636ZM79.8338 20.1491C79.0881 20.1491 78.4418 19.9851 77.8949 19.657C77.348 19.3288 76.9238 18.8698 76.6222 18.2798C76.3239 17.6899 76.1747 17.0005 76.1747 16.2116C76.1747 15.4228 76.3239 14.7318 76.6222 14.1385C76.9238 13.5452 77.348 13.0845 77.8949 12.7564C78.4418 12.4283 79.0881 12.2642 79.8338 12.2642C80.5795 12.2642 81.2259 12.4283 81.7727 12.7564C82.3196 13.0845 82.7422 13.5452 83.0405 14.1385C83.3421 14.7318 83.4929 15.4228 83.4929 16.2116C83.4929 17.0005 83.3421 17.6899 83.0405 18.2798C82.7422 18.8698 82.3196 19.3288 81.7727 19.657C81.2259 19.9851 80.5795 20.1491 79.8338 20.1491ZM79.8438 18.7074C80.2481 18.7074 80.5862 18.5964 80.858 18.3743C81.1297 18.1489 81.3319 17.8473 81.4645 17.4695C81.6004 17.0916 81.6683 16.6707 81.6683 16.2067C81.6683 15.7393 81.6004 15.3168 81.4645 14.9389C81.3319 14.5578 81.1297 14.2545 80.858 14.0291C80.5862 13.8037 80.2481 13.6911 79.8438 13.6911C79.4295 13.6911 79.0848 13.8037 78.8097 14.0291C78.5379 14.2545 78.334 14.5578 78.1982 14.9389C78.0656 15.3168 77.9993 15.7393 77.9993 16.2067C77.9993 16.6707 78.0656 17.0916 78.1982 17.4695C78.334 17.8473 78.5379 18.1489 78.8097 18.3743C79.0848 18.5964 79.4295 18.7074 79.8438 18.7074ZM89.8876 16.7884V12.3636H91.6873V20H89.9423V18.6428H89.8627C89.6904 19.0703 89.407 19.42 89.0126 19.6918C88.6215 19.9635 88.1393 20.0994 87.5659 20.0994C87.0654 20.0994 86.6229 19.9884 86.2385 19.7663C85.8573 19.541 85.559 19.2145 85.3436 18.7869C85.1281 18.3561 85.0204 17.8357 85.0204 17.2259V12.3636H86.8201V16.9474C86.8201 17.4313 86.9527 17.8158 87.2179 18.1009C87.483 18.3859 87.831 18.5284 88.2619 18.5284C88.527 18.5284 88.7839 18.4638 89.0325 18.3345C89.2811 18.2053 89.4849 18.013 89.644 17.7578C89.8064 17.4993 89.8876 17.1761 89.8876 16.7884ZM93.538 20V12.3636H95.283V13.6364H95.3626C95.5018 13.1955 95.7404 12.8558 96.0785 12.6172C96.4199 12.3752 96.8093 12.2543 97.2468 12.2543C97.3462 12.2543 97.4573 12.2592 97.5799 12.2692C97.7058 12.2758 97.8103 12.2874 97.8931 12.304V13.9595C97.8169 13.933 97.6959 13.9098 97.5302 13.8899C97.3678 13.8667 97.2103 13.8551 97.0579 13.8551C96.7298 13.8551 96.4348 13.9264 96.1729 14.0689C95.9144 14.2081 95.7106 14.402 95.5614 14.6506C95.4123 14.8991 95.3377 15.1858 95.3377 15.5107V20H93.538ZM104.361 9.81818V20H102.561V9.81818H104.361ZM111.079 16.7884V12.3636H112.879V20H111.134V18.6428H111.054C110.882 19.0703 110.598 19.42 110.204 19.6918C109.813 19.9635 109.331 20.0994 108.757 20.0994C108.257 20.0994 107.814 19.9884 107.43 19.7663C107.049 19.541 106.75 19.2145 106.535 18.7869C106.32 18.3561 106.212 17.8357 106.212 17.2259V12.3636H108.012V16.9474C108.012 17.4313 108.144 17.8158 108.409 18.1009C108.674 18.3859 109.022 18.5284 109.453 18.5284C109.718 18.5284 109.975 18.4638 110.224 18.3345C110.472 18.2053 110.676 18.013 110.835 17.7578C110.998 17.4993 111.079 17.1761 111.079 16.7884ZM118.06 20.1491C117.298 20.1491 116.643 19.9818 116.097 19.647C115.553 19.3123 115.134 18.8499 114.839 18.2599C114.547 17.6667 114.401 16.9839 114.401 16.2116C114.401 15.4361 114.55 14.7517 114.849 14.1584C115.147 13.5618 115.568 13.0978 116.112 12.7663C116.658 12.4316 117.305 12.2642 118.05 12.2642C118.67 12.2642 119.219 12.3786 119.696 12.6072C120.177 12.8326 120.559 13.1525 120.844 13.5668C121.129 13.9777 121.292 14.4583 121.332 15.0085H119.612C119.542 14.6406 119.376 14.334 119.114 14.0888C118.856 13.8402 118.509 13.7159 118.075 13.7159C117.707 13.7159 117.384 13.8153 117.106 14.0142C116.827 14.2098 116.61 14.4915 116.455 14.8594C116.302 15.2273 116.226 15.6681 116.226 16.1818C116.226 16.7022 116.302 17.1496 116.455 17.5241C116.607 17.8954 116.821 18.1821 117.096 18.3842C117.374 18.5831 117.701 18.6825 118.075 18.6825C118.34 18.6825 118.577 18.6328 118.786 18.5334C118.998 18.4306 119.176 18.2831 119.318 18.0909C119.461 17.8987 119.558 17.665 119.612 17.3899H121.332C121.289 17.9302 121.129 18.4091 120.854 18.8267C120.579 19.241 120.205 19.5658 119.731 19.8011C119.257 20.0331 118.7 20.1491 118.06 20.1491ZM124.45 17.6037L124.445 15.4311H124.733L127.478 12.3636H129.581L126.205 16.1222H125.832L124.45 17.6037ZM122.809 20V9.81818H124.609V20H122.809ZM127.602 20L125.116 16.5249L126.329 15.2571L129.755 20H127.602ZM136.45 20.1541C135.966 20.1541 135.531 20.0679 135.143 19.8956C134.758 19.7199 134.453 19.4614 134.228 19.12C134.006 18.7786 133.895 18.3577 133.895 17.8572C133.895 17.4264 133.974 17.0701 134.134 16.7884C134.293 16.5066 134.51 16.2812 134.785 16.1122C135.06 15.9432 135.37 15.8156 135.714 15.7294C136.063 15.6399 136.422 15.5753 136.793 15.5355C137.241 15.4891 137.604 15.4477 137.882 15.4112C138.161 15.3714 138.363 15.3118 138.489 15.2322C138.618 15.1494 138.683 15.0218 138.683 14.8494V14.8196C138.683 14.4451 138.571 14.1551 138.349 13.9496C138.127 13.7441 137.808 13.6413 137.39 13.6413C136.949 13.6413 136.599 13.7375 136.341 13.9297C136.086 14.1219 135.913 14.349 135.824 14.6108L134.143 14.3722C134.276 13.9081 134.495 13.5204 134.8 13.2088C135.105 12.8939 135.478 12.6586 135.918 12.5028C136.359 12.3438 136.846 12.2642 137.38 12.2642C137.748 12.2642 138.114 12.3073 138.479 12.3935C138.843 12.4796 139.176 12.6222 139.478 12.821C139.78 13.0166 140.022 13.2834 140.204 13.6214C140.389 13.9595 140.482 14.3821 140.482 14.8892V20H138.752V18.951H138.692C138.583 19.1631 138.429 19.362 138.23 19.5476C138.035 19.7299 137.788 19.8774 137.489 19.9901C137.194 20.0994 136.848 20.1541 136.45 20.1541ZM136.918 18.8317C137.279 18.8317 137.592 18.7604 137.857 18.6179C138.122 18.4721 138.326 18.2798 138.469 18.0412C138.615 17.8026 138.688 17.5424 138.688 17.2607V16.3608C138.631 16.4072 138.535 16.4503 138.399 16.4901C138.267 16.5298 138.117 16.5646 137.952 16.5945C137.786 16.6243 137.622 16.6508 137.46 16.674C137.297 16.6972 137.156 16.7171 137.037 16.7337C136.768 16.7701 136.528 16.8298 136.316 16.9126C136.104 16.9955 135.937 17.1115 135.814 17.2607C135.691 17.4065 135.63 17.5954 135.63 17.8274C135.63 18.1589 135.751 18.4091 135.993 18.5781C136.235 18.7472 136.543 18.8317 136.918 18.8317ZM144.092 15.5256V20H142.292V12.3636H144.012V13.6612H144.102C144.277 13.2337 144.557 12.8939 144.942 12.642C145.33 12.3902 145.808 12.2642 146.379 12.2642C146.906 12.2642 147.365 12.3769 147.756 12.6023C148.15 12.8277 148.455 13.1541 148.67 13.5817C148.889 14.0092 148.997 14.5279 148.994 15.1378V20H147.194V15.4162C147.194 14.9058 147.061 14.5064 146.796 14.218C146.534 13.9297 146.171 13.7855 145.707 13.7855C145.393 13.7855 145.112 13.8551 144.867 13.9943C144.625 14.1302 144.435 14.3274 144.295 14.5859C144.16 14.8445 144.092 15.1577 144.092 15.5256ZM153.657 20.1342C153.057 20.1342 152.52 19.9801 152.046 19.6719C151.572 19.3636 151.198 18.9162 150.923 18.3295C150.647 17.7429 150.51 17.0303 150.51 16.1918C150.51 15.3433 150.649 14.6274 150.928 14.044C151.209 13.4574 151.589 13.0149 152.066 12.7166C152.543 12.415 153.075 12.2642 153.662 12.2642C154.109 12.2642 154.477 12.3404 154.766 12.4929C155.054 12.642 155.283 12.8227 155.452 13.0348C155.621 13.2436 155.752 13.4408 155.844 13.6264H155.919V9.81818H157.724V20H155.954V18.7969H155.844C155.752 18.9825 155.617 19.1797 155.442 19.3885C155.266 19.594 155.034 19.7696 154.746 19.9155C154.457 20.0613 154.094 20.1342 153.657 20.1342ZM154.159 18.6577C154.54 18.6577 154.865 18.5549 155.134 18.3494C155.402 18.1406 155.606 17.8506 155.745 17.4794C155.884 17.1082 155.954 16.6757 155.954 16.1818C155.954 15.688 155.884 15.2588 155.745 14.8942C155.609 14.5296 155.407 14.2462 155.138 14.044C154.873 13.8419 154.547 13.7408 154.159 13.7408C153.758 13.7408 153.423 13.8452 153.155 14.054C152.886 14.2628 152.684 14.5511 152.548 14.919C152.412 15.2869 152.344 15.7079 152.344 16.1818C152.344 16.6591 152.412 17.085 152.548 17.4595C152.688 17.8307 152.891 18.1241 153.16 18.3395C153.432 18.5516 153.765 18.6577 154.159 18.6577ZM44.5007 37L42.343 29.3636H44.1776L45.5199 34.733H45.5895L46.9616 29.3636H48.7763L50.1484 34.7031H50.223L51.5455 29.3636H53.3849L51.2223 37H49.348L47.9162 31.8395H47.8118L46.38 37H44.5007ZM54.6415 37V29.3636H56.4412V37H54.6415ZM55.5463 28.2798C55.2613 28.2798 55.016 28.1854 54.8105 27.9964C54.6051 27.8042 54.5023 27.5739 54.5023 27.3054C54.5023 27.0336 54.6051 26.8033 54.8105 26.6143C55.016 26.4221 55.2613 26.326 55.5463 26.326C55.8347 26.326 56.08 26.4221 56.2821 26.6143C56.4876 26.8033 56.5904 27.0336 56.5904 27.3054C56.5904 27.5739 56.4876 27.8042 56.2821 27.9964C56.08 28.1854 55.8347 28.2798 55.5463 28.2798ZM60.0916 32.5256V37H58.2919V29.3636H60.0121V30.6612H60.1016C60.2772 30.2337 60.5573 29.8939 60.9418 29.642C61.3295 29.3902 61.8085 29.2642 62.3786 29.2642C62.9055 29.2642 63.3646 29.3769 63.7557 29.6023C64.1501 29.8277 64.455 30.1541 64.6705 30.5817C64.8892 31.0092 64.9969 31.5279 64.9936 32.1378V37H63.1939V32.4162C63.1939 31.9058 63.0613 31.5064 62.7962 31.218C62.5343 30.9297 62.1714 30.7855 61.7074 30.7855C61.3925 30.7855 61.1125 30.8551 60.8672 30.9943C60.6252 31.1302 60.4347 31.3274 60.2955 31.5859C60.1596 31.8445 60.0916 32.1577 60.0916 32.5256ZM72.4933 37.1541C72.0094 37.1541 71.5735 37.0679 71.1857 36.8956C70.8013 36.7199 70.4963 36.4614 70.271 36.12C70.0489 35.7786 69.9379 35.3577 69.9379 34.8572C69.9379 34.4264 70.0174 34.0701 70.1765 33.7884C70.3356 33.5066 70.5527 33.2812 70.8278 33.1122C71.1029 32.9432 71.4128 32.8156 71.7575 32.7294C72.1055 32.6399 72.4651 32.5753 72.8363 32.5355C73.2837 32.4891 73.6467 32.4477 73.9251 32.4112C74.2035 32.3714 74.4057 32.3118 74.5316 32.2322C74.6609 32.1494 74.7255 32.0218 74.7255 31.8494V31.8196C74.7255 31.4451 74.6145 31.1551 74.3924 30.9496C74.1703 30.7441 73.8505 30.6413 73.4329 30.6413C72.9921 30.6413 72.6424 30.7375 72.3839 30.9297C72.1287 31.1219 71.9563 31.349 71.8668 31.6108L70.1864 31.3722C70.319 30.9081 70.5378 30.5204 70.8427 30.2088C71.1476 29.8939 71.5205 29.6586 71.9613 29.5028C72.4021 29.3438 72.8893 29.2642 73.4229 29.2642C73.7908 29.2642 74.1571 29.3073 74.5217 29.3935C74.8862 29.4796 75.2193 29.6222 75.521 29.821C75.8226 30.0166 76.0645 30.2834 76.2468 30.6214C76.4324 30.9595 76.5252 31.3821 76.5252 31.8892V37H74.7951V35.951H74.7354C74.6261 36.1631 74.4719 36.362 74.2731 36.5476C74.0775 36.7299 73.8306 36.8774 73.5323 36.9901C73.2373 37.0994 72.891 37.1541 72.4933 37.1541ZM72.9606 35.8317C73.3219 35.8317 73.6351 35.7604 73.9002 35.6179C74.1654 35.4721 74.3692 35.2798 74.5117 35.0412C74.6576 34.8026 74.7305 34.5424 74.7305 34.2607V33.3608C74.6741 33.4072 74.578 33.4503 74.4421 33.4901C74.3095 33.5298 74.1604 33.5646 73.9947 33.5945C73.829 33.6243 73.6649 33.6508 73.5025 33.674C73.3401 33.6972 73.1992 33.7171 73.0799 33.7337C72.8114 33.7701 72.5711 33.8298 72.359 33.9126C72.1469 33.9955 71.9795 34.1115 71.8569 34.2607C71.7343 34.4065 71.6729 34.5954 71.6729 34.8274C71.6729 35.1589 71.7939 35.4091 72.0359 35.5781C72.2778 35.7472 72.5861 35.8317 72.9606 35.8317ZM81.1687 37.1342C80.5688 37.1342 80.0318 36.9801 79.5579 36.6719C79.0839 36.3636 78.7094 35.9162 78.4343 35.3295C78.1592 34.7429 78.0217 34.0303 78.0217 33.1918C78.0217 32.3433 78.1609 31.6274 78.4393 31.044C78.721 30.4574 79.1005 30.0149 79.5778 29.7166C80.055 29.415 80.587 29.2642 81.1737 29.2642C81.6211 29.2642 81.989 29.3404 82.2773 29.4929C82.5657 29.642 82.7944 29.8227 82.9634 30.0348C83.1325 30.2436 83.2634 30.4408 83.3562 30.6264H83.4308V26.8182H85.2354V37H83.4656V35.7969H83.3562C83.2634 35.9825 83.1291 36.1797 82.9535 36.3885C82.7778 36.594 82.5458 36.7696 82.2575 36.9155C81.9691 37.0613 81.6062 37.1342 81.1687 37.1342ZM81.6708 35.6577C82.052 35.6577 82.3768 35.5549 82.6452 35.3494C82.9137 35.1406 83.1175 34.8506 83.2567 34.4794C83.396 34.1082 83.4656 33.6757 83.4656 33.1818C83.4656 32.688 83.396 32.2588 83.2567 31.8942C83.1209 31.5296 82.9187 31.2462 82.6502 31.044C82.3851 30.8419 82.0586 30.7408 81.6708 30.7408C81.2698 30.7408 80.935 30.8452 80.6665 31.054C80.3981 31.2628 80.1959 31.5511 80.06 31.919C79.9241 32.2869 79.8562 32.7079 79.8562 33.1818C79.8562 33.6591 79.9241 34.085 80.06 34.4595C80.1992 34.8307 80.4031 35.1241 80.6715 35.3395C80.9433 35.5516 81.2764 35.6577 81.6708 35.6577ZM89.987 37.1342C89.3871 37.1342 88.8502 36.9801 88.3762 36.6719C87.9023 36.3636 87.5278 35.9162 87.2527 35.3295C86.9776 34.7429 86.84 34.0303 86.84 33.1918C86.84 32.3433 86.9792 31.6274 87.2576 31.044C87.5394 30.4574 87.9189 30.0149 88.3961 29.7166C88.8734 29.415 89.4054 29.2642 89.992 29.2642C90.4395 29.2642 90.8074 29.3404 91.0957 29.4929C91.3841 29.642 91.6127 29.8227 91.7818 30.0348C91.9508 30.2436 92.0817 30.4408 92.1745 30.6264H92.2491V26.8182H94.0538V37H92.2839V35.7969H92.1745C92.0817 35.9825 91.9475 36.1797 91.7718 36.3885C91.5962 36.594 91.3642 36.7696 91.0758 36.9155C90.7875 37.0613 90.4245 37.1342 89.987 37.1342ZM90.4892 35.6577C90.8703 35.6577 91.1951 35.5549 91.4636 35.3494C91.7321 35.1406 91.9359 34.8506 92.0751 34.4794C92.2143 34.1082 92.2839 33.6757 92.2839 33.1818C92.2839 32.688 92.2143 32.2588 92.0751 31.8942C91.9392 31.5296 91.737 31.2462 91.4686 31.044C91.2034 30.8419 90.877 30.7408 90.4892 30.7408C90.0881 30.7408 89.7534 30.8452 89.4849 31.054C89.2164 31.2628 89.0143 31.5511 88.8784 31.919C88.7425 32.2869 88.6745 32.7079 88.6745 33.1818C88.6745 33.6591 88.7425 34.085 88.8784 34.4595C89.0176 34.8307 89.2214 35.1241 89.4899 35.3395C89.7617 35.5516 90.0948 35.6577 90.4892 35.6577ZM95.9716 37V29.3636H97.7713V37H95.9716ZM96.8764 28.2798C96.5914 28.2798 96.3461 28.1854 96.1406 27.9964C95.9351 27.8042 95.8324 27.5739 95.8324 27.3054C95.8324 27.0336 95.9351 26.8033 96.1406 26.6143C96.3461 26.4221 96.5914 26.326 96.8764 26.326C97.1648 26.326 97.41 26.4221 97.6122 26.6143C97.8177 26.8033 97.9205 27.0336 97.9205 27.3054C97.9205 27.5739 97.8177 27.8042 97.6122 27.9964C97.41 28.1854 97.1648 28.2798 96.8764 28.2798ZM103.435 29.3636V30.7557H99.0453V29.3636H103.435ZM100.129 27.5341H101.929V34.7031C101.929 34.9451 101.965 35.1307 102.038 35.2599C102.114 35.3859 102.214 35.4721 102.336 35.5185C102.459 35.5649 102.595 35.5881 102.744 35.5881C102.857 35.5881 102.96 35.5798 103.052 35.5632C103.148 35.5466 103.221 35.5317 103.271 35.5185L103.574 36.9254C103.478 36.9586 103.341 36.995 103.162 37.0348C102.986 37.0746 102.771 37.0978 102.515 37.1044C102.065 37.1177 101.659 37.0497 101.297 36.9006C100.936 36.7481 100.649 36.5128 100.437 36.1946C100.229 35.8764 100.126 35.4787 100.129 35.0014V27.5341ZM104.94 37V29.3636H106.74V37H104.94ZM105.845 28.2798C105.56 28.2798 105.315 28.1854 105.109 27.9964C104.904 27.8042 104.801 27.5739 104.801 27.3054C104.801 27.0336 104.904 26.8033 105.109 26.6143C105.315 26.4221 105.56 26.326 105.845 26.326C106.134 26.326 106.379 26.4221 106.581 26.6143C106.786 26.8033 106.889 27.0336 106.889 27.3054C106.889 27.5739 106.786 27.8042 106.581 27.9964C106.379 28.1854 106.134 28.2798 105.845 28.2798ZM111.922 37.1491C111.176 37.1491 110.53 36.9851 109.983 36.657C109.436 36.3288 109.012 35.8698 108.71 35.2798C108.412 34.6899 108.263 34.0005 108.263 33.2116C108.263 32.4228 108.412 31.7318 108.71 31.1385C109.012 30.5452 109.436 30.0845 109.983 29.7564C110.53 29.4283 111.176 29.2642 111.922 29.2642C112.667 29.2642 113.314 29.4283 113.861 29.7564C114.407 30.0845 114.83 30.5452 115.128 31.1385C115.43 31.7318 115.581 32.4228 115.581 33.2116C115.581 34.0005 115.43 34.6899 115.128 35.2798C114.83 35.8698 114.407 36.3288 113.861 36.657C113.314 36.9851 112.667 37.1491 111.922 37.1491ZM111.932 35.7074C112.336 35.7074 112.674 35.5964 112.946 35.3743C113.218 35.1489 113.42 34.8473 113.552 34.4695C113.688 34.0916 113.756 33.6707 113.756 33.2067C113.756 32.7393 113.688 32.3168 113.552 31.9389C113.42 31.5578 113.218 31.2545 112.946 31.0291C112.674 30.8037 112.336 30.6911 111.932 30.6911C111.517 30.6911 111.173 30.8037 110.898 31.0291C110.626 31.2545 110.422 31.5578 110.286 31.9389C110.153 32.3168 110.087 32.7393 110.087 33.2067C110.087 33.6707 110.153 34.0916 110.286 34.4695C110.422 34.8473 110.626 35.1489 110.898 35.3743C111.173 35.5964 111.517 35.7074 111.932 35.7074ZM118.908 32.5256V37H117.108V29.3636H118.828V30.6612H118.918C119.094 30.2337 119.374 29.8939 119.758 29.642C120.146 29.3902 120.625 29.2642 121.195 29.2642C121.722 29.2642 122.181 29.3769 122.572 29.6023C122.967 29.8277 123.271 30.1541 123.487 30.5817C123.706 31.0092 123.813 31.5279 123.81 32.1378V37H122.01V32.4162C122.01 31.9058 121.878 31.5064 121.613 31.218C121.351 30.9297 120.988 30.7855 120.524 30.7855C120.209 30.7855 119.929 30.8551 119.684 30.9943C119.442 31.1302 119.251 31.3274 119.112 31.5859C118.976 31.8445 118.908 32.1577 118.908 32.5256ZM127.837 37.1541C127.353 37.1541 126.917 37.0679 126.529 36.8956C126.145 36.7199 125.84 36.4614 125.615 36.12C125.393 35.7786 125.282 35.3577 125.282 34.8572C125.282 34.4264 125.361 34.0701 125.52 33.7884C125.679 33.5066 125.896 33.2812 126.172 33.1122C126.447 32.9432 126.757 32.8156 127.101 32.7294C127.449 32.6399 127.809 32.5753 128.18 32.5355C128.627 32.4891 128.99 32.4477 129.269 32.4112C129.547 32.3714 129.749 32.3118 129.875 32.2322C130.005 32.1494 130.069 32.0218 130.069 31.8494V31.8196C130.069 31.4451 129.958 31.1551 129.736 30.9496C129.514 30.7441 129.194 30.6413 128.777 30.6413C128.336 30.6413 127.986 30.7375 127.728 30.9297C127.472 31.1219 127.3 31.349 127.211 31.6108L125.53 31.3722C125.663 30.9081 125.882 30.5204 126.186 30.2088C126.491 29.8939 126.864 29.6586 127.305 29.5028C127.746 29.3438 128.233 29.2642 128.767 29.2642C129.135 29.2642 129.501 29.3073 129.865 29.3935C130.23 29.4796 130.563 29.6222 130.865 29.821C131.166 30.0166 131.408 30.2834 131.591 30.6214C131.776 30.9595 131.869 31.3821 131.869 31.8892V37H130.139V35.951H130.079C129.97 36.1631 129.816 36.362 129.617 36.5476C129.421 36.7299 129.174 36.8774 128.876 36.9901C128.581 37.0994 128.235 37.1541 127.837 37.1541ZM128.304 35.8317C128.666 35.8317 128.979 35.7604 129.244 35.6179C129.509 35.4721 129.713 35.2798 129.855 35.0412C130.001 34.8026 130.074 34.5424 130.074 34.2607V33.3608C130.018 33.4072 129.922 33.4503 129.786 33.4901C129.653 33.5298 129.504 33.5646 129.338 33.5945C129.173 33.6243 129.009 33.6508 128.846 33.674C128.684 33.6972 128.543 33.7171 128.424 33.7337C128.155 33.7701 127.915 33.8298 127.703 33.9126C127.491 33.9955 127.323 34.1115 127.201 34.2607C127.078 34.4065 127.017 34.5954 127.017 34.8274C127.017 35.1589 127.138 35.4091 127.38 35.5781C127.622 35.7472 127.93 35.8317 128.304 35.8317ZM135.478 26.8182V37H133.679V26.8182H135.478ZM43.0043 54V43.8182H44.804V47.6264H44.8786C44.9714 47.4408 45.1023 47.2436 45.2713 47.0348C45.4403 46.8227 45.669 46.642 45.9574 46.4929C46.2457 46.3404 46.6136 46.2642 47.0611 46.2642C47.651 46.2642 48.183 46.415 48.657 46.7166C49.1342 47.0149 49.5121 47.4574 49.7905 48.044C50.0722 48.6274 50.2131 49.3433 50.2131 50.1918C50.2131 51.0303 50.0755 51.7429 49.8004 52.3295C49.5253 52.9162 49.1508 53.3636 48.6768 53.6719C48.2029 53.9801 47.666 54.1342 47.0661 54.1342C46.6286 54.1342 46.2656 54.0613 45.9773 53.9155C45.6889 53.7696 45.4569 53.594 45.2812 53.3885C45.1089 53.1797 44.9747 52.9825 44.8786 52.7969H44.7741V54H43.0043ZM44.7692 50.1818C44.7692 50.6757 44.8388 51.1082 44.978 51.4794C45.1205 51.8506 45.3243 52.1406 45.5895 52.3494C45.858 52.5549 46.1828 52.6577 46.5639 52.6577C46.9616 52.6577 47.2947 52.5516 47.5632 52.3395C47.8317 52.1241 48.0339 51.8307 48.1697 51.4595C48.3089 51.085 48.3786 50.6591 48.3786 50.1818C48.3786 49.7079 48.3106 49.2869 48.1747 48.919C48.0388 48.5511 47.8366 48.2628 47.5682 48.054C47.2997 47.8452 46.965 47.7408 46.5639 47.7408C46.1795 47.7408 45.853 47.8419 45.5845 48.044C45.3161 48.2462 45.1122 48.5296 44.973 48.8942C44.8371 49.2588 44.7692 49.688 44.7692 50.1818ZM55.074 54.1491C54.3283 54.1491 53.682 53.9851 53.1351 53.657C52.5882 53.3288 52.164 52.8698 51.8624 52.2798C51.5641 51.6899 51.415 51.0005 51.415 50.2116C51.415 49.4228 51.5641 48.7318 51.8624 48.1385C52.164 47.5452 52.5882 47.0845 53.1351 46.7564C53.682 46.4283 54.3283 46.2642 55.074 46.2642C55.8198 46.2642 56.4661 46.4283 57.013 46.7564C57.5598 47.0845 57.9824 47.5452 58.2807 48.1385C58.5823 48.7318 58.7331 49.4228 58.7331 50.2116C58.7331 51.0005 58.5823 51.6899 58.2807 52.2798C57.9824 52.8698 57.5598 53.3288 57.013 53.657C56.4661 53.9851 55.8198 54.1491 55.074 54.1491ZM55.084 52.7074C55.4883 52.7074 55.8264 52.5964 56.0982 52.3743C56.37 52.1489 56.5721 51.8473 56.7047 51.4695C56.8406 51.0916 56.9086 50.6707 56.9086 50.2067C56.9086 49.7393 56.8406 49.3168 56.7047 48.9389C56.5721 48.5578 56.37 48.2545 56.0982 48.0291C55.8264 47.8037 55.4883 47.6911 55.084 47.6911C54.6697 47.6911 54.325 47.8037 54.0499 48.0291C53.7781 48.2545 53.5743 48.5578 53.4384 48.9389C53.3058 49.3168 53.2395 49.7393 53.2395 50.2067C53.2395 50.6707 53.3058 51.0916 53.4384 51.4695C53.5743 51.8473 53.7781 52.1489 54.0499 52.3743C54.325 52.5964 54.6697 52.7074 55.084 52.7074ZM62.0604 49.5256V54H60.2607V46.3636H61.9808V47.6612H62.0703C62.246 47.2337 62.526 46.8939 62.9105 46.642C63.2983 46.3902 63.7772 46.2642 64.3473 46.2642C64.8743 46.2642 65.3333 46.3769 65.7244 46.6023C66.1188 46.8277 66.4238 47.1541 66.6392 47.5817C66.858 48.0092 66.9657 48.5279 66.9624 49.1378V54H65.1626V49.4162C65.1626 48.9058 65.0301 48.5064 64.7649 48.218C64.5031 47.9297 64.1402 47.7855 63.6761 47.7855C63.3613 47.7855 63.0812 47.8551 62.8359 47.9943C62.594 48.1302 62.4034 48.3274 62.2642 48.5859C62.1283 48.8445 62.0604 49.1577 62.0604 49.5256ZM73.6591 50.7884V46.3636H75.4588V54H73.7138V52.6428H73.6342C73.4619 53.0703 73.1785 53.42 72.7841 53.6918C72.393 53.9635 71.9107 54.0994 71.3374 54.0994C70.8369 54.0994 70.3944 53.9884 70.0099 53.7663C69.6288 53.541 69.3305 53.2145 69.1151 52.7869C68.8996 52.3561 68.7919 51.8357 68.7919 51.2259V46.3636H70.5916V50.9474C70.5916 51.4313 70.7242 51.8158 70.9893 52.1009C71.2545 52.3859 71.6025 52.5284 72.0334 52.5284C72.2985 52.5284 72.5554 52.4638 72.804 52.3345C73.0526 52.2053 73.2564 52.013 73.4155 51.7578C73.5779 51.4993 73.6591 51.1761 73.6591 50.7884ZM83.345 48.3821L81.7044 48.5611C81.658 48.3954 81.5768 48.2396 81.4608 48.0938C81.3481 47.9479 81.1956 47.8303 81.0034 47.7408C80.8111 47.6513 80.5758 47.6065 80.2974 47.6065C79.9229 47.6065 79.608 47.6877 79.3528 47.8501C79.1009 48.0125 78.9766 48.223 78.9799 48.4815C78.9766 48.7036 79.0578 48.8842 79.2235 49.0234C79.3926 49.1626 79.671 49.277 80.0588 49.3665L81.3613 49.6449C82.0839 49.8007 82.6208 50.0476 82.9721 50.3857C83.3268 50.7237 83.5057 51.1662 83.5091 51.7131C83.5057 52.1937 83.3649 52.6179 83.0865 52.9858C82.8114 53.3504 82.4286 53.6354 81.938 53.8409C81.4475 54.0464 80.8841 54.1491 80.2477 54.1491C79.313 54.1491 78.5607 53.9536 77.9906 53.5625C77.4205 53.1681 77.0808 52.6196 76.9714 51.9169L78.7264 51.7479C78.8059 52.0926 78.975 52.3527 79.2335 52.5284C79.492 52.7041 79.8284 52.7919 80.2427 52.7919C80.6703 52.7919 81.0133 52.7041 81.2718 52.5284C81.5337 52.3527 81.6646 52.1357 81.6646 51.8771C81.6646 51.6584 81.5801 51.4777 81.411 51.3352C81.2453 51.1927 80.9868 51.0833 80.6355 51.0071L79.3329 50.7337C78.6004 50.5812 78.0585 50.3243 77.7072 49.9631C77.3559 49.5985 77.1819 49.1378 77.1852 48.581C77.1819 48.1103 77.3095 47.7027 77.568 47.358C77.8298 47.0099 78.1928 46.7415 78.6568 46.5526C79.1241 46.3603 79.6627 46.2642 80.2725 46.2642C81.1674 46.2642 81.8717 46.4548 82.3855 46.8359C82.9025 47.2171 83.2224 47.7325 83.345 48.3821ZM88.3738 54.1491C87.6081 54.1491 86.9469 53.9901 86.3901 53.6719C85.8366 53.3504 85.4107 52.8963 85.1124 52.3097C84.8141 51.7197 84.665 51.0253 84.665 50.2266C84.665 49.4411 84.8141 48.7517 85.1124 48.1584C85.414 47.5618 85.8349 47.0978 86.3752 46.7663C86.9154 46.4316 87.5501 46.2642 88.2793 46.2642C88.7499 46.2642 89.1941 46.3404 89.6117 46.4929C90.0326 46.642 90.4038 46.8741 90.7253 47.1889C91.0501 47.5038 91.3053 47.9048 91.4909 48.392C91.6766 48.8759 91.7694 49.4527 91.7694 50.1222V50.674H85.5101V49.4609H90.0442C90.0409 49.1162 89.9663 48.8097 89.8205 48.5412C89.6747 48.2694 89.4708 48.0556 89.209 47.8999C88.9505 47.7441 88.6489 47.6662 88.3042 47.6662C87.9363 47.6662 87.6131 47.7557 87.3347 47.9347C87.0563 48.1103 86.8392 48.3423 86.6834 48.6307C86.531 48.9157 86.4531 49.2289 86.4498 49.5703V50.6293C86.4498 51.0734 86.531 51.4545 86.6934 51.7727C86.8558 52.0876 87.0828 52.3295 87.3745 52.4986C87.6661 52.6643 88.0075 52.7472 88.3986 52.7472C88.6605 52.7472 88.8974 52.7107 89.1096 52.6378C89.3217 52.5616 89.5056 52.4505 89.6614 52.3047C89.8172 52.1589 89.9348 51.9782 90.0144 51.7628L91.6948 51.9517C91.5887 52.3958 91.3865 52.7836 91.0882 53.1151C90.7933 53.4432 90.4154 53.6984 89.9547 53.8807C89.494 54.0597 88.967 54.1491 88.3738 54.1491ZM99.3274 48.3821L97.6868 48.5611C97.6404 48.3954 97.5592 48.2396 97.4432 48.0938C97.3305 47.9479 97.178 47.8303 96.9858 47.7408C96.7936 47.6513 96.5582 47.6065 96.2798 47.6065C95.9053 47.6065 95.5904 47.6877 95.3352 47.8501C95.0833 48.0125 94.959 48.223 94.9624 48.4815C94.959 48.7036 95.0402 48.8842 95.206 49.0234C95.375 49.1626 95.6534 49.277 96.0412 49.3665L97.3438 49.6449C98.0663 49.8007 98.6032 50.0476 98.9545 50.3857C99.3092 50.7237 99.4882 51.1662 99.4915 51.7131C99.4882 52.1937 99.3473 52.6179 99.0689 52.9858C98.7938 53.3504 98.411 53.6354 97.9205 53.8409C97.4299 54.0464 96.8665 54.1491 96.2301 54.1491C95.2955 54.1491 94.5431 53.9536 93.973 53.5625C93.4029 53.1681 93.0632 52.6196 92.9538 51.9169L94.7088 51.7479C94.7884 52.0926 94.9574 52.3527 95.2159 52.5284C95.4744 52.7041 95.8108 52.7919 96.2251 52.7919C96.6527 52.7919 96.9957 52.7041 97.2543 52.5284C97.5161 52.3527 97.647 52.1357 97.647 51.8771C97.647 51.6584 97.5625 51.4777 97.3935 51.3352C97.2277 51.1927 96.9692 51.0833 96.6179 51.0071L95.3153 50.7337C94.5829 50.5812 94.041 50.3243 93.6896 49.9631C93.3383 49.5985 93.1643 49.1378 93.1676 48.581C93.1643 48.1103 93.2919 47.7027 93.5504 47.358C93.8123 47.0099 94.1752 46.7415 94.6392 46.5526C95.1065 46.3603 95.6451 46.2642 96.255 46.2642C97.1499 46.2642 97.8542 46.4548 98.3679 46.8359C98.8849 47.2171 99.2048 47.7325 99.3274 48.3821Z" fill="white"/>
<path d="M0.5 42C19.3 48.4 29.6667 40 32.5 35V50C17.7 56.4 5 47.3333 0.5 42Z" fill="#881AB9"/>
</svg>
