<svg xmlns="http://www.w3.org/2000/svg" width="168" height="56" fill="none" xmlns:v="https://vecta.io/nano"><rect width="168" height="56" rx="28" fill="url(#A)"/><rect x="1" y="1" width="166" height="54" rx="27" stroke="url(#B)" stroke-width="2"/><rect x="4.5" y="4.5" width="159" height="47" rx="23.5" fill="url(#C)" stroke="#320033"/><rect x="11.455" y="7" width="145.091" height="28" rx="14" fill="url(#D)" style="mix-blend-mode:overlay"/><path d="M71.288 25.852c-.038-.417-.206-.741-.506-.972s-.718-.352-1.267-.352c-.364 0-.667.047-.909.142s-.424.225-.545.392-.184.35-.187.563c-.008.174.026.328.102.46s.193.25.341.352.333.186.545.261.451.142.716.199l1 .227c.576.125 1.083.292 1.523.5s.814.456 1.114.744a2.88 2.88 0 0 1 .688.994c.155.375.235.795.239 1.261-.004.735-.189 1.366-.557 1.892s-.896.93-1.585 1.21-1.513.42-2.483.42-1.822-.146-2.545-.437-1.286-.735-1.687-1.33-.608-1.347-.619-2.256h2.693c.023.375.123.688.301.938a1.65 1.65 0 0 0 .733.568c.314.129.678.193 1.091.193.379 0 .701-.051.966-.153s.475-.244.619-.426.218-.39.221-.625a.86.86 0 0 0-.204-.562c-.133-.159-.337-.295-.614-.409s-.621-.225-1.045-.324l-1.216-.284c-1.008-.231-1.801-.604-2.381-1.119s-.867-1.22-.864-2.102c-.004-.72.189-1.35.579-1.892s.93-.964 1.619-1.267 1.475-.455 2.358-.455c.901 0 1.684.154 2.347.46s1.184.729 1.551 1.278.555 1.186.563 1.909h-2.693zm9.199-.58v2.046h-5.506v-2.046h5.506zm-4.352-2.091h2.778v8.074a.93.93 0 0 0 .08.415c.057.102.138.176.244.221a1.04 1.04 0 0 0 .381.063 2.1 2.1 0 0 0 .335-.028l.273-.057.421 2.006-.562.142c-.239.057-.525.093-.858.108-.651.03-1.21-.045-1.676-.227s-.816-.474-1.062-.864-.36-.881-.352-1.472v-8.381zm8.23 10.966c-.557 0-1.051-.093-1.483-.278a2.31 2.31 0 0 1-1.017-.852c-.246-.383-.369-.862-.369-1.438 0-.485.085-.894.256-1.227s.405-.604.705-.812a3.31 3.31 0 0 1 1.034-.472c.39-.11.807-.184 1.25-.222l1.199-.142c.303-.053.523-.127.659-.221s.21-.237.21-.415v-.028c0-.292-.1-.517-.301-.676s-.472-.239-.812-.239c-.367 0-.663.079-.886.239a1.05 1.05 0 0 0-.426.659l-2.562-.091a3.03 3.03 0 0 1 .585-1.42c.318-.42.754-.75 1.307-.989s1.225-.364 2.006-.364c.557 0 1.07.066 1.54.199s.879.318 1.227.568a2.57 2.57 0 0 1 .807.909c.193.36.29.771.29 1.233V34h-2.614v-1.216h-.068c-.155.295-.354.545-.597.75a2.38 2.38 0 0 1-.847.46c-.322.102-.686.153-1.091.153zm.858-1.818c.299 0 .568-.061.807-.182a1.49 1.49 0 0 0 .58-.5 1.32 1.32 0 0 0 .216-.75v-.829a1.66 1.66 0 0 1-.29.114l-.364.097-.409.08-.403.063a2.51 2.51 0 0 0-.671.193c-.182.087-.322.201-.42.341s-.142.299-.142.489c0 .288.102.508.307.659s.472.227.79.227zM91.279 34v-8.727h2.699v1.591h.091c.159-.576.419-1.004.778-1.284s.778-.426 1.256-.426c.129 0 .261.009.398.028s.263.04.381.074v2.415c-.133-.046-.307-.082-.523-.108a4.64 4.64 0 0 0-.568-.04c-.33 0-.627.074-.892.222a1.59 1.59 0 0 0-.619.608c-.148.258-.222.561-.222.909V34h-2.778zm12.067-8.727v2.046H97.84v-2.046h5.506zm-4.352-2.091h2.778v8.074a.93.93 0 0 0 .08.415c.056.102.138.176.244.221a1.04 1.04 0 0 0 .381.063c.106 0 .217-.009.335-.028l.273-.057.42 2.006-.563.142c-.238.057-.524.093-.857.108-.652.03-1.211-.045-1.677-.227s-.816-.474-1.062-.864-.36-.881-.352-1.472v-8.381z" fill="#fff"/><defs><linearGradient id="A" x1="84" y1="0" x2="84" y2="56" gradientUnits="userSpaceOnUse"><stop stop-color="#ffeb3c"/><stop offset=".135" stop-color="#ff730e"/><stop offset=".425" stop-color="#b3330a"/><stop offset=".66" stop-color="#ffe600"/><stop offset="1" stop-color="#ff730e"/></linearGradient><linearGradient id="B" x1="84" y1="0" x2="84" y2="56" gradientUnits="userSpaceOnUse"><stop stop-color="#ff730e"/><stop offset=".295" stop-color="#c03900"/><stop offset=".525" stop-color="#dbff00"/><stop offset=".97" stop-color="#ce7c00"/></linearGradient><linearGradient id="C" x1="84" y1="4" x2="84" y2="52" gradientUnits="userSpaceOnUse"><stop stop-color="#277dff"/><stop offset=".395" stop-color="#154cb7"/><stop offset=".78" stop-color="#061072"/><stop offset="1" stop-color="#02408a"/></linearGradient><linearGradient id="D" x1="84" y1="7" x2="84" y2="35" gradientUnits="userSpaceOnUse"><stop stop-color="#fff"/><stop offset="1" stop-color="#fff" stop-opacity="0"/></linearGradient></defs></svg>